<?xml version="1.0" encoding="utf-8" standalone="no"?>
<!DOCTYPE svg PUBLIC "-//W3C//DTD SVG 1.1//EN"
  "http://www.w3.org/Graphics/SVG/1.1/DTD/svg11.dtd">
<svg xmlns:xlink="http://www.w3.org/1999/xlink" width="541.934844pt" height="390.554019pt" viewBox="0 0 541.934844 390.554019" xmlns="http://www.w3.org/2000/svg" version="1.1">
 <metadata>
  <rdf:RDF xmlns:dc="http://purl.org/dc/elements/1.1/" xmlns:cc="http://creativecommons.org/ns#" xmlns:rdf="http://www.w3.org/1999/02/22-rdf-syntax-ns#">
   <cc:Work>
    <dc:type rdf:resource="http://purl.org/dc/dcmitype/StillImage"/>
    <dc:date>2026-06-04T19:22:03.427702</dc:date>
    <dc:format>image/svg+xml</dc:format>
    <dc:creator>
     <cc:Agent>
      <dc:title>Matplotlib v3.10.9, https://matplotlib.org/</dc:title>
     </cc:Agent>
    </dc:creator>
   </cc:Work>
  </rdf:RDF>
 </metadata>
 <defs>
  <style type="text/css">*{stroke-linejoin: round; stroke-linecap: butt}</style>
 </defs>
 <g id="figure_1">
  <g id="patch_1">
   <path d="M 0 390.554019
L 541.934844 390.554019
L 541.934844 0
L 0 0
z
" style="fill: #fbfaf7"/>
  </g>
  <g id="axes_1">
   <g id="patch_2">
    <path d="M 58.454844 362.0448
L 538.334844 362.0448
L 538.334844 51.5808
L 58.454844 51.5808
z
" style="fill: #ffffff"/>
   </g>
   <g id="patch_3">
    <path d="M 267.098322 362.0448
L 465.309626 362.0448
L 465.309626 51.5808
L 267.098322 51.5808
z
" clip-path="url(#p839f37774c)" style="fill: #6a5a8c; opacity: 0.06; stroke: #6a5a8c; stroke-linejoin: miter"/>
   </g>
   <g id="line2d_1">
    <path d="M 58.454844 347.9328
L 318.272835 347.9328
" clip-path="url(#p839f37774c)" style="fill: none; stroke: #6a5a8c; stroke-opacity: 0.6; stroke-width: 1.4; stroke-linecap: square"/>
   </g>
   <g id="line2d_2">
    <path d="M 58.454844 307.6128
L 333.492631 307.6128
" clip-path="url(#p839f37774c)" style="fill: none; stroke: #6a5a8c; stroke-opacity: 0.6; stroke-width: 1.4; stroke-linecap: square"/>
   </g>
   <g id="line2d_3">
    <path d="M 58.454844 267.2928
L 334.286628 267.2928
" clip-path="url(#p839f37774c)" style="fill: none; stroke: #6a5a8c; stroke-opacity: 0.6; stroke-width: 1.4; stroke-linecap: square"/>
   </g>
   <g id="line2d_4">
    <path d="M 58.454844 226.9728
L 358.887527 226.9728
" clip-path="url(#p839f37774c)" style="fill: none; stroke: #9ca3af; stroke-opacity: 0.6; stroke-width: 1.4; stroke-linecap: square"/>
   </g>
   <g id="line2d_5">
    <path d="M 58.454844 186.6528
L 358.887527 186.6528
" clip-path="url(#p839f37774c)" style="fill: none; stroke: #9ca3af; stroke-opacity: 0.6; stroke-width: 1.4; stroke-linecap: square"/>
   </g>
   <g id="line2d_6">
    <path d="M 58.454844 146.3328
L 384.534356 146.3328
" clip-path="url(#p839f37774c)" style="fill: none; stroke: #6a5a8c; stroke-opacity: 0.6; stroke-width: 1.4; stroke-linecap: square"/>
   </g>
   <g id="line2d_7">
    <path d="M 58.454844 106.0128
L 388.670285 106.0128
" clip-path="url(#p839f37774c)" style="fill: none; stroke: #6a5a8c; stroke-opacity: 0.6; stroke-width: 1.4; stroke-linecap: square"/>
   </g>
   <g id="line2d_8">
    <path d="M 58.454844 65.6928
L 430.495274 65.6928
" clip-path="url(#p839f37774c)" style="fill: none; stroke: #6a5a8c; stroke-opacity: 0.6; stroke-width: 1.4; stroke-linecap: square"/>
   </g>
   <g id="matplotlib.axis_1">
    <g id="xtick_1">
     <g id="line2d_9">
      <path d="M 58.454844 362.0448
L 58.454844 51.5808
" clip-path="url(#p839f37774c)" style="fill: none; stroke: #d6d3d1; stroke-opacity: 0.6; stroke-width: 0.5; stroke-linecap: square"/>
     </g>
     <g id="line2d_10">
      <defs>
       <path id="m0c9bbd23c5" d="M 0 0
L 0 3.5
" style="stroke: #000000; stroke-width: 0.8"/>
      </defs>
      <g>
       <use xlink:href="#m0c9bbd23c5" x="58.454844" y="362.0448" style="stroke: #000000; stroke-width: 0.8"/>
      </g>
     </g>
     <g id="text_1">
      <text style="font-size: 7px; font-family: 'Arial', 'DejaVu Sans', sans-serif; text-anchor: middle" x="58.454844" y="374.055269" transform="rotate(-0 58.454844 374.055269)">0.0</text>
     </g>
    </g>
    <g id="xtick_2">
     <g id="line2d_11">
      <path d="M 162.776583 362.0448
L 162.776583 51.5808
" clip-path="url(#p839f37774c)" style="fill: none; stroke: #d6d3d1; stroke-opacity: 0.6; stroke-width: 0.5; stroke-linecap: square"/>
     </g>
     <g id="line2d_12">
      <g>
       <use xlink:href="#m0c9bbd23c5" x="162.776583" y="362.0448" style="stroke: #000000; stroke-width: 0.8"/>
      </g>
     </g>
     <g id="text_2">
      <text style="font-size: 7px; font-family: 'Arial', 'DejaVu Sans', sans-serif; text-anchor: middle" x="162.776583" y="374.055269" transform="rotate(-0 162.776583 374.055269)">0.2</text>
     </g>
    </g>
    <g id="xtick_3">
     <g id="line2d_13">
      <path d="M 267.098322 362.0448
L 267.098322 51.5808
" clip-path="url(#p839f37774c)" style="fill: none; stroke: #d6d3d1; stroke-opacity: 0.6; stroke-width: 0.5; stroke-linecap: square"/>
     </g>
     <g id="line2d_14">
      <g>
       <use xlink:href="#m0c9bbd23c5" x="267.098322" y="362.0448" style="stroke: #000000; stroke-width: 0.8"/>
      </g>
     </g>
     <g id="text_3">
      <text style="font-size: 7px; font-family: 'Arial', 'DejaVu Sans', sans-serif; text-anchor: middle" x="267.098322" y="374.055269" transform="rotate(-0 267.098322 374.055269)">0.4</text>
     </g>
    </g>
    <g id="xtick_4">
     <g id="line2d_15">
      <path d="M 371.420061 362.0448
L 371.420061 51.5808
" clip-path="url(#p839f37774c)" style="fill: none; stroke: #d6d3d1; stroke-opacity: 0.6; stroke-width: 0.5; stroke-linecap: square"/>
     </g>
     <g id="line2d_16">
      <g>
       <use xlink:href="#m0c9bbd23c5" x="371.420061" y="362.0448" style="stroke: #000000; stroke-width: 0.8"/>
      </g>
     </g>
     <g id="text_4">
      <text style="font-size: 7px; font-family: 'Arial', 'DejaVu Sans', sans-serif; text-anchor: middle" x="371.420061" y="374.055269" transform="rotate(-0 371.420061 374.055269)">0.6</text>
     </g>
    </g>
    <g id="xtick_5">
     <g id="line2d_17">
      <path d="M 475.7418 362.0448
L 475.7418 51.5808
" clip-path="url(#p839f37774c)" style="fill: none; stroke: #d6d3d1; stroke-opacity: 0.6; stroke-width: 0.5; stroke-linecap: square"/>
     </g>
     <g id="line2d_18">
      <g>
       <use xlink:href="#m0c9bbd23c5" x="475.7418" y="362.0448" style="stroke: #000000; stroke-width: 0.8"/>
      </g>
     </g>
     <g id="text_5">
      <text style="font-size: 7px; font-family: 'Arial', 'DejaVu Sans', sans-serif; text-anchor: middle" x="475.7418" y="374.055269" transform="rotate(-0 475.7418 374.055269)">0.8</text>
     </g>
    </g>
    <g id="text_6">
     <text style="font-size: 8px; font-family: 'Arial', 'DejaVu Sans', sans-serif; text-anchor: middle" x="298.394844" y="385.270269" transform="rotate(-0 298.394844 385.270269)">Spearman rho of height availability vs attribute availability (across 30 cities)</text>
    </g>
   </g>
   <g id="matplotlib.axis_2">
    <g id="ytick_1">
     <g id="line2d_19">
      <defs>
       <path id="m2c8d4e28fb" d="M 0 0
L -3.5 0
" style="stroke: #000000; stroke-width: 0.8"/>
      </defs>
      <g>
       <use xlink:href="#m2c8d4e28fb" x="58.454844" y="347.9328" style="stroke: #000000; stroke-width: 0.8"/>
      </g>
     </g>
     <g id="text_7">
      <text style="font-size: 7px; font-family: 'Arial', 'DejaVu Sans', sans-serif; text-anchor: end" x="51.454844" y="350.480691" transform="rotate(-0 51.454844 350.480691)">roof shape</text>
     </g>
    </g>
    <g id="ytick_2">
     <g id="line2d_20">
      <g>
       <use xlink:href="#m2c8d4e28fb" x="58.454844" y="307.6128" style="stroke: #000000; stroke-width: 0.8"/>
      </g>
     </g>
     <g id="text_8">
      <text style="font-size: 7px; font-family: 'Arial', 'DejaVu Sans', sans-serif; text-anchor: end" x="51.454844" y="310.160691" transform="rotate(-0 51.454844 310.160691)">roof height</text>
     </g>
    </g>
    <g id="ytick_3">
     <g id="line2d_21">
      <g>
       <use xlink:href="#m2c8d4e28fb" x="58.454844" y="267.2928" style="stroke: #000000; stroke-width: 0.8"/>
      </g>
     </g>
     <g id="text_9">
      <text style="font-size: 7px; font-family: 'Arial', 'DejaVu Sans', sans-serif; text-anchor: end" x="51.454844" y="269.798034" transform="rotate(-0 51.454844 269.798034)">num floors</text>
     </g>
    </g>
    <g id="ytick_4">
     <g id="line2d_22">
      <g>
       <use xlink:href="#m2c8d4e28fb" x="58.454844" y="226.9728" style="stroke: #000000; stroke-width: 0.8"/>
      </g>
     </g>
     <g id="text_10">
      <text style="font-size: 7px; font-family: 'Arial', 'DejaVu Sans', sans-serif; text-anchor: end" x="51.454844" y="229.478034" transform="rotate(-0 51.454844 229.478034)">class</text>
     </g>
    </g>
    <g id="ytick_5">
     <g id="line2d_23">
      <g>
       <use xlink:href="#m2c8d4e28fb" x="58.454844" y="186.6528" style="stroke: #000000; stroke-width: 0.8"/>
      </g>
     </g>
     <g id="text_11">
      <text style="font-size: 7px; font-family: 'Arial', 'DejaVu Sans', sans-serif; text-anchor: end" x="51.454844" y="189.158034" transform="rotate(-0 51.454844 189.158034)">subtype</text>
     </g>
    </g>
    <g id="ytick_6">
     <g id="line2d_24">
      <g>
       <use xlink:href="#m2c8d4e28fb" x="58.454844" y="146.3328" style="stroke: #000000; stroke-width: 0.8"/>
      </g>
     </g>
     <g id="text_12">
      <text style="font-size: 7px; font-family: 'Arial', 'DejaVu Sans', sans-serif; text-anchor: end" x="51.454844" y="148.838034" transform="rotate(-0 51.454844 148.838034)">min height</text>
     </g>
    </g>
    <g id="ytick_7">
     <g id="line2d_25">
      <g>
       <use xlink:href="#m2c8d4e28fb" x="58.454844" y="106.0128" style="stroke: #000000; stroke-width: 0.8"/>
      </g>
     </g>
     <g id="text_13">
      <text style="font-size: 7px; font-family: 'Arial', 'DejaVu Sans', sans-serif; text-anchor: end" x="51.454844" y="108.518034" transform="rotate(-0 51.454844 108.518034)">facade material</text>
     </g>
    </g>
    <g id="ytick_8">
     <g id="line2d_26">
      <g>
       <use xlink:href="#m2c8d4e28fb" x="58.454844" y="65.6928" style="stroke: #000000; stroke-width: 0.8"/>
      </g>
     </g>
     <g id="text_14">
      <text style="font-size: 7px; font-family: 'Arial', 'DejaVu Sans', sans-serif; text-anchor: end" x="51.454844" y="68.198034" transform="rotate(-0 51.454844 68.198034)">roof material</text>
     </g>
    </g>
   </g>
   <g id="PathCollection_1">
    <defs>
     <path id="m64e08b6aeb" d="M 0 4.1833
C 1.109424 4.1833 2.173559 3.742521 2.95804 2.95804
C 3.742521 2.173559 4.1833 1.109424 4.1833 0
C 4.1833 -1.109424 3.742521 -2.173559 2.95804 -2.95804
C 2.173559 -3.742521 1.109424 -4.1833 0 -4.1833
C -1.109424 -4.1833 -2.173559 -3.742521 -2.95804 -2.95804
C -3.742521 -2.173559 -4.1833 -1.109424 -4.1833 0
C -4.1833 1.109424 -3.742521 2.173559 -2.95804 2.95804
C -2.173559 3.742521 -1.109424 4.1833 0 4.1833
z
" style="stroke: #ffffff; stroke-width: 0.8"/>
    </defs>
    <g clip-path="url(#p839f37774c)">
     <use xlink:href="#m64e08b6aeb" x="318.272835" y="347.9328" style="fill: #6a5a8c; stroke: #ffffff; stroke-width: 0.8"/>
    </g>
   </g>
   <g id="PathCollection_2">
    <g clip-path="url(#p839f37774c)">
     <use xlink:href="#m64e08b6aeb" x="333.492631" y="307.6128" style="fill: #6a5a8c; stroke: #ffffff; stroke-width: 0.8"/>
    </g>
   </g>
   <g id="PathCollection_3">
    <g clip-path="url(#p839f37774c)">
     <use xlink:href="#m64e08b6aeb" x="334.286628" y="267.2928" style="fill: #6a5a8c; stroke: #ffffff; stroke-width: 0.8"/>
    </g>
   </g>
   <g id="PathCollection_4">
    <defs>
     <path id="m5a3531603d" d="M 0 4.1833
C 1.109424 4.1833 2.173559 3.742521 2.95804 2.95804
C 3.742521 2.173559 4.1833 1.109424 4.1833 0
C 4.1833 -1.109424 3.742521 -2.173559 2.95804 -2.95804
C 2.173559 -3.742521 1.109424 -4.1833 0 -4.1833
C -1.109424 -4.1833 -2.173559 -3.742521 -2.95804 -2.95804
C -3.742521 -2.173559 -4.1833 -1.109424 -4.1833 0
C -4.1833 1.109424 -3.742521 2.173559 -2.95804 2.95804
C -2.173559 3.742521 -1.109424 4.1833 0 4.1833
z
" style="stroke: #ffffff; stroke-width: 0.8"/>
    </defs>
    <g clip-path="url(#p839f37774c)">
     <use xlink:href="#m5a3531603d" x="358.887527" y="226.9728" style="fill: #9ca3af; stroke: #ffffff; stroke-width: 0.8"/>
    </g>
   </g>
   <g id="PathCollection_5">
    <g clip-path="url(#p839f37774c)">
     <use xlink:href="#m5a3531603d" x="358.887527" y="186.6528" style="fill: #9ca3af; stroke: #ffffff; stroke-width: 0.8"/>
    </g>
   </g>
   <g id="PathCollection_6">
    <g clip-path="url(#p839f37774c)">
     <use xlink:href="#m64e08b6aeb" x="384.534356" y="146.3328" style="fill: #6a5a8c; stroke: #ffffff; stroke-width: 0.8"/>
    </g>
   </g>
   <g id="PathCollection_7">
    <g clip-path="url(#p839f37774c)">
     <use xlink:href="#m64e08b6aeb" x="388.670285" y="106.0128" style="fill: #6a5a8c; stroke: #ffffff; stroke-width: 0.8"/>
    </g>
   </g>
   <g id="PathCollection_8">
    <g clip-path="url(#p839f37774c)">
     <use xlink:href="#m64e08b6aeb" x="430.495274" y="65.6928" style="fill: #6a5a8c; stroke: #ffffff; stroke-width: 0.8"/>
    </g>
   </g>
   <g id="patch_4">
    <path d="M 58.454844 362.0448
L 58.454844 51.5808
" style="fill: none; stroke: #d6d3d1; stroke-width: 0.8; stroke-linejoin: miter; stroke-linecap: square"/>
   </g>
   <g id="patch_5">
    <path d="M 58.454844 362.0448
L 538.334844 362.0448
" style="fill: none; stroke: #d6d3d1; stroke-width: 0.8; stroke-linejoin: miter; stroke-linecap: square"/>
   </g>
   <g id="text_15">
    <text style="font-size: 6.8px; font-family: 'Arial', 'DejaVu Sans', sans-serif; text-anchor: start; fill: #1f2933" x="326.096965" y="349.690706" transform="rotate(-0 326.096965 349.690706)">0.50</text>
   </g>
   <g id="text_16">
    <text style="font-size: 6.8px; font-family: 'Arial', 'DejaVu Sans', sans-serif; text-anchor: start; fill: #1f2933" x="341.316761" y="309.370706" transform="rotate(-0 341.316761 309.370706)">0.53</text>
   </g>
   <g id="text_17">
    <text style="font-size: 6.8px; font-family: 'Arial', 'DejaVu Sans', sans-serif; text-anchor: start; fill: #1f2933" x="342.110758" y="269.050706" transform="rotate(-0 342.110758 269.050706)">0.53</text>
   </g>
   <g id="text_18">
    <text style="font-size: 6.8px; font-family: 'Arial', 'DejaVu Sans', sans-serif; text-anchor: start; fill: #1f2933" x="366.711658" y="228.730706" transform="rotate(-0 366.711658 228.730706)">0.58</text>
   </g>
   <g id="text_19">
    <text style="font-size: 6.8px; font-family: 'Arial', 'DejaVu Sans', sans-serif; text-anchor: start; fill: #1f2933" x="366.711658" y="188.410706" transform="rotate(-0 366.711658 188.410706)">0.58</text>
   </g>
   <g id="text_20">
    <text style="font-size: 6.8px; font-family: 'Arial', 'DejaVu Sans', sans-serif; text-anchor: start; fill: #1f2933" x="392.358486" y="148.090706" transform="rotate(-0 392.358486 148.090706)">0.63</text>
   </g>
   <g id="text_21">
    <text style="font-size: 6.8px; font-family: 'Arial', 'DejaVu Sans', sans-serif; text-anchor: start; fill: #1f2933" x="396.494415" y="107.770706" transform="rotate(-0 396.494415 107.770706)">0.63</text>
   </g>
   <g id="text_22">
    <text style="font-size: 6.8px; font-family: 'Arial', 'DejaVu Sans', sans-serif; text-anchor: start; fill: #1f2933" x="438.319405" y="67.450706" transform="rotate(-0 438.319405 67.450706)">0.71</text>
   </g>
   <g id="text_23">
    <text style="font-size: 6.8px; font-family: 'Arial', 'DejaVu Sans', sans-serif; fill: #6a5a8c" transform="translate(490.481381 315.083212)">all p &lt; 0.01</text>
    <text style="font-size: 6.8px; font-family: 'Arial', 'DejaVu Sans', sans-serif; fill: #6a5a8c" transform="translate(432.274444 322.275487)">within-bundle mean rho = 0.60</text>
    <text style="font-size: 6.8px; font-family: 'Arial', 'DejaVu Sans', sans-serif; fill: #6a5a8c" transform="translate(406.959319 329.567212)">(height vs feature volume: rho = 0.002)</text>
   </g>
   <g id="text_24">
    <text style="font-weight: 700; font-size: 10px; font-family: 'Arial', 'DejaVu Sans', sans-serif; text-anchor: start" x="58.454844" y="45.5808" transform="rotate(-0 58.454844 45.5808)">Height co-varies with the curated-attribute bundle</text>
   </g>
   <g id="legend_1">
    <g id="line2d_27">
     <path d="M 452.286313 281.054344
L 458.886313 281.054344
L 465.486312 281.054344
" style="fill: none; stroke: #ffffff; stroke-width: 1.5; stroke-linecap: square"/>
     <defs>
      <path id="mea5498084d" d="M 0 4
C 1.060812 4 2.078319 3.578535 2.828427 2.828427
C 3.578535 2.078319 4 1.060812 4 0
C 4 -1.060812 3.578535 -2.078319 2.828427 -2.828427
C 2.078319 -3.578535 1.060812 -4 0 -4
C -1.060812 -4 -2.078319 -3.578535 -2.828427 -2.828427
C -3.578535 -2.078319 -4 -1.060812 -4 0
C -4 1.060812 -3.578535 2.078319 -2.828427 2.828427
C -2.078319 3.578535 -1.060812 4 0 4
z
" style="stroke: #ffffff"/>
     </defs>
     <g>
      <use xlink:href="#mea5498084d" x="458.886313" y="281.054344" style="fill: #6a5a8c; stroke: #ffffff"/>
     </g>
    </g>
    <g id="text_25">
     <text style="font-size: 6.6px; font-family: 'Arial', 'DejaVu Sans', sans-serif; text-anchor: start" x="470.766313" y="283.364344" transform="rotate(-0 470.766313 283.364344)">curated / 3D attribute</text>
    </g>
    <g id="line2d_28">
     <path d="M 452.286313 290.39025
L 458.886313 290.39025
L 465.486312 290.39025
" style="fill: none; stroke: #ffffff; stroke-width: 1.5; stroke-linecap: square"/>
     <defs>
      <path id="md6e70f3240" d="M 0 4
C 1.060812 4 2.078319 3.578535 2.828427 2.828427
C 3.578535 2.078319 4 1.060812 4 0
C 4 -1.060812 3.578535 -2.078319 2.828427 -2.828427
C 2.078319 -3.578535 1.060812 -4 0 -4
C -1.060812 -4 -2.078319 -3.578535 -2.828427 -2.828427
C -3.578535 -2.078319 -4 -1.060812 -4 0
C -4 1.060812 -3.578535 2.078319 -2.828427 2.828427
C -2.078319 3.578535 -1.060812 4 0 4
z
" style="stroke: #ffffff"/>
     </defs>
     <g>
      <use xlink:href="#md6e70f3240" x="458.886313" y="290.39025" style="fill: #9ca3af; stroke: #ffffff"/>
     </g>
    </g>
    <g id="text_26">
     <text style="font-size: 6.6px; font-family: 'Arial', 'DejaVu Sans', sans-serif; text-anchor: start" x="470.766313" y="292.70025" transform="rotate(-0 470.766313 292.70025)">basic class attribute</text>
    </g>
   </g>
  </g>
  <g id="text_27">
   <text style="font-weight: 700; font-size: 12.5px; font-family: 'Arial', 'DejaVu Sans', sans-serif; text-anchor: start" x="5.822844" y="12.699609" transform="rotate(-0 5.822844 12.699609)">Fig. S2 | Attribute co-availability corroborates bundled provenance</text>
  </g>
 </g>
 <defs>
  <clipPath id="p839f37774c">
   <rect x="58.454844" y="51.5808" width="479.88" height="310.464"/>
  </clipPath>
 </defs>
</svg>
