<?xml version="1.0" encoding="utf-8" standalone="no"?>
<!DOCTYPE svg PUBLIC "-//W3C//DTD SVG 1.1//EN"
  "http://www.w3.org/Graphics/SVG/1.1/DTD/svg11.dtd">
<svg xmlns:xlink="http://www.w3.org/1999/xlink" width="868.938858pt" height="525.494084pt" viewBox="0 0 868.938858 525.494084" xmlns="http://www.w3.org/2000/svg" version="1.1">
 <metadata>
  <rdf:RDF xmlns:dc="http://purl.org/dc/elements/1.1/" xmlns:cc="http://creativecommons.org/ns#" xmlns:rdf="http://www.w3.org/1999/02/22-rdf-syntax-ns#">
   <cc:Work>
    <dc:type rdf:resource="http://purl.org/dc/dcmitype/StillImage"/>
    <dc:date>2026-06-04T19:09:07.312645</dc:date>
    <dc:format>image/svg+xml</dc:format>
    <dc:creator>
     <cc:Agent>
      <dc:title>Matplotlib v3.10.9, https://matplotlib.org/</dc:title>
     </cc:Agent>
    </dc:creator>
   </cc:Work>
  </rdf:RDF>
 </metadata>
 <defs>
  <style type="text/css">*{stroke-linejoin: round; stroke-linecap: butt}</style>
 </defs>
 <g id="figure_1">
  <g id="patch_1">
   <path d="M 0 525.494084 
L 868.938858 525.494084 
L 868.938858 0 
L 0 0 
z
" style="fill: #ffffff"/>
  </g>
  <g id="axes_1">
   <g id="patch_2">
    <path d="M 65.52 492.486553 
L 475.782292 492.486553 
L 475.782292 54.726553 
L 65.52 54.726553 
z
" style="fill: #ffffff"/>
   </g>
   <g id="patch_3">
    <path d="M 73.670482 492.486553 
L 255.911575 492.486553 
L 255.911575 54.726553 
L 73.670482 54.726553 
z
" clip-path="url(#pfddd06423f)" style="fill: #f8e7e3; stroke: #f8e7e3; stroke-linejoin: miter"/>
   </g>
   <g id="patch_4">
    <path d="M 255.911575 492.486553 
L 330.489727 492.486553 
L 330.489727 54.726553 
L 255.911575 54.726553 
z
" clip-path="url(#pfddd06423f)" style="fill: #fbf1d8; stroke: #fbf1d8; stroke-linejoin: miter"/>
   </g>
   <g id="patch_5">
    <path d="M 330.489727 492.486553 
L 473.722486 492.486553 
L 473.722486 54.726553 
L 330.489727 54.726553 
z
" clip-path="url(#pfddd06423f)" style="fill: #e4eef8; opacity: 0.52; stroke: #e4eef8; stroke-linejoin: miter"/>
   </g>
   <g id="matplotlib.axis_1">
    <g id="xtick_1">
     <g id="line2d_1">
      <path d="M 73.670482 492.486553 
L 73.670482 54.726553 
" clip-path="url(#pfddd06423f)" style="fill: none; stroke: #dde3e6; stroke-width: 0.55; stroke-linecap: square"/>
     </g>
     <g id="line2d_2">
      <defs>
       <path id="mb76784064f" d="M 0 0 
L 0 3.5 
" style="stroke: #000000; stroke-width: 0.8"/>
      </defs>
      <g>
       <use xlink:href="#mb76784064f" x="73.670482" y="492.486553" style="stroke: #000000; stroke-width: 0.8"/>
      </g>
     </g>
     <g id="text_1">
      <text style="font-size: 7.5px; font-family: 'DejaVu Sans'; text-anchor: middle" x="73.670482" y="505.185381" transform="rotate(-0 73.670482 505.185381)">0</text>
     </g>
    </g>
    <g id="xtick_2">
     <g id="line2d_3">
      <path d="M 149.214362 492.486553 
L 149.214362 54.726553 
" clip-path="url(#pfddd06423f)" style="fill: none; stroke: #dde3e6; stroke-width: 0.55; stroke-linecap: square"/>
     </g>
     <g id="line2d_4">
      <g>
       <use xlink:href="#mb76784064f" x="149.214362" y="492.486553" style="stroke: #000000; stroke-width: 0.8"/>
      </g>
     </g>
     <g id="text_2">
      <text style="font-size: 7.5px; font-family: 'DejaVu Sans'; text-anchor: middle" x="149.214362" y="505.185381" transform="rotate(-0 149.214362 505.185381)">0.1</text>
     </g>
    </g>
    <g id="xtick_3">
     <g id="line2d_5">
      <path d="M 255.911575 492.486553 
L 255.911575 54.726553 
" clip-path="url(#pfddd06423f)" style="fill: none; stroke: #dde3e6; stroke-width: 0.55; stroke-linecap: square"/>
     </g>
     <g id="line2d_6">
      <g>
       <use xlink:href="#mb76784064f" x="255.911575" y="492.486553" style="stroke: #000000; stroke-width: 0.8"/>
      </g>
     </g>
     <g id="text_3">
      <text style="font-size: 7.5px; font-family: 'DejaVu Sans'; text-anchor: middle" x="255.911575" y="505.185381" transform="rotate(-0 255.911575 505.185381)">1</text>
     </g>
    </g>
    <g id="xtick_4">
     <g id="line2d_7">
      <path d="M 330.489727 492.486553 
L 330.489727 54.726553 
" clip-path="url(#pfddd06423f)" style="fill: none; stroke: #dde3e6; stroke-width: 0.55; stroke-linecap: square"/>
     </g>
     <g id="line2d_8">
      <g>
       <use xlink:href="#mb76784064f" x="330.489727" y="492.486553" style="stroke: #000000; stroke-width: 0.8"/>
      </g>
     </g>
     <g id="text_4">
      <text style="font-size: 7.5px; font-family: 'DejaVu Sans'; text-anchor: middle" x="330.489727" y="505.185381" transform="rotate(-0 330.489727 505.185381)">5</text>
     </g>
    </g>
    <g id="xtick_5">
     <g id="line2d_9">
      <path d="M 362.608789 492.486553 
L 362.608789 54.726553 
" clip-path="url(#pfddd06423f)" style="fill: none; stroke: #dde3e6; stroke-width: 0.55; stroke-linecap: square"/>
     </g>
     <g id="line2d_10">
      <g>
       <use xlink:href="#mb76784064f" x="362.608789" y="492.486553" style="stroke: #000000; stroke-width: 0.8"/>
      </g>
     </g>
     <g id="text_5">
      <text style="font-size: 7.5px; font-family: 'DejaVu Sans'; text-anchor: middle" x="362.608789" y="505.185381" transform="rotate(-0 362.608789 505.185381)">10</text>
     </g>
    </g>
    <g id="xtick_6">
     <g id="line2d_11">
      <path d="M 437.18694 492.486553 
L 437.18694 54.726553 
" clip-path="url(#pfddd06423f)" style="fill: none; stroke: #dde3e6; stroke-width: 0.55; stroke-linecap: square"/>
     </g>
     <g id="line2d_12">
      <g>
       <use xlink:href="#mb76784064f" x="437.18694" y="492.486553" style="stroke: #000000; stroke-width: 0.8"/>
      </g>
     </g>
     <g id="text_6">
      <text style="font-size: 7.5px; font-family: 'DejaVu Sans'; text-anchor: middle" x="437.18694" y="505.185381" transform="rotate(-0 437.18694 505.185381)">50</text>
     </g>
    </g>
    <g id="xtick_7">
     <g id="line2d_13">
      <path d="M 469.306002 492.486553 
L 469.306002 54.726553 
" clip-path="url(#pfddd06423f)" style="fill: none; stroke: #dde3e6; stroke-width: 0.55; stroke-linecap: square"/>
     </g>
     <g id="line2d_14">
      <g>
       <use xlink:href="#mb76784064f" x="469.306002" y="492.486553" style="stroke: #000000; stroke-width: 0.8"/>
      </g>
     </g>
     <g id="text_7">
      <text style="font-size: 7.5px; font-family: 'DejaVu Sans'; text-anchor: middle" x="469.306002" y="505.185381" transform="rotate(-0 469.306002 505.185381)">100</text>
     </g>
    </g>
    <g id="xtick_8">
     <g id="line2d_15">
      <defs>
       <path id="md09ce3907f" d="M 0 0 
L 0 2 
" style="stroke: #000000; stroke-width: 0.6"/>
      </defs>
      <g>
       <use xlink:href="#md09ce3907f" x="81.820963" y="492.486553" style="stroke: #000000; stroke-width: 0.6"/>
      </g>
     </g>
    </g>
    <g id="text_8">
     <text style="font-size: 7.8px; font-family: 'DejaVu Sans'; text-anchor: middle" x="270.651146" y="516.671928" transform="rotate(-0 270.651146 516.671928)">Native Overture height availability (% of audited building records)</text>
    </g>
   </g>
   <g id="matplotlib.axis_2">
    <g id="ytick_1">
     <g id="line2d_16"/>
     <g id="text_9">
      <text style="font-size: 6.7px; font-family: 'DejaVu Sans'; text-anchor: end" x="62.02" y="475.133848" transform="rotate(-0 62.02 475.133848)">Fez</text>
     </g>
    </g>
    <g id="ytick_2">
     <g id="line2d_17"/>
     <g id="text_10">
      <text style="font-size: 6.7px; font-family: 'DejaVu Sans'; text-anchor: end" x="62.02" y="461.410964" transform="rotate(-0 62.02 461.410964)">Jaipur</text>
     </g>
    </g>
    <g id="ytick_3">
     <g id="line2d_18"/>
     <g id="text_11">
      <text style="font-size: 6.7px; font-family: 'DejaVu Sans'; text-anchor: end" x="62.02" y="447.68808" transform="rotate(-0 62.02 447.68808)">Kinshasa</text>
     </g>
    </g>
    <g id="ytick_4">
     <g id="line2d_19"/>
     <g id="text_12">
      <text style="font-size: 6.7px; font-family: 'DejaVu Sans'; text-anchor: end" x="62.02" y="433.965196" transform="rotate(-0 62.02 433.965196)">Jakarta</text>
     </g>
    </g>
    <g id="ytick_5">
     <g id="line2d_20"/>
     <g id="text_13">
      <text style="font-size: 6.7px; font-family: 'DejaVu Sans'; text-anchor: end" x="62.02" y="420.242312" transform="rotate(-0 62.02 420.242312)">Mumbai</text>
     </g>
    </g>
    <g id="ytick_6">
     <g id="line2d_21"/>
     <g id="text_14">
      <text style="font-size: 6.7px; font-family: 'DejaVu Sans'; text-anchor: end" x="62.02" y="406.519428" transform="rotate(-0 62.02 406.519428)">Mexico City</text>
     </g>
    </g>
    <g id="ytick_7">
     <g id="line2d_22"/>
     <g id="text_15">
      <text style="font-size: 6.7px; font-family: 'DejaVu Sans'; text-anchor: end" x="62.02" y="392.796544" transform="rotate(-0 62.02 392.796544)">Delhi</text>
     </g>
    </g>
    <g id="ytick_8">
     <g id="line2d_23"/>
     <g id="text_16">
      <text style="font-size: 6.7px; font-family: 'DejaVu Sans'; text-anchor: end" x="62.02" y="379.07366" transform="rotate(-0 62.02 379.07366)">Riyadh</text>
     </g>
    </g>
    <g id="ytick_9">
     <g id="line2d_24"/>
     <g id="text_17">
      <text style="font-size: 6.7px; font-family: 'DejaVu Sans'; text-anchor: end" x="62.02" y="365.350776" transform="rotate(-0 62.02 365.350776)">Nairobi</text>
     </g>
    </g>
    <g id="ytick_10">
     <g id="line2d_25"/>
     <g id="text_18">
      <text style="font-size: 6.7px; font-family: 'DejaVu Sans'; text-anchor: end" x="62.02" y="351.627892" transform="rotate(-0 62.02 351.627892)">Cairo</text>
     </g>
    </g>
    <g id="ytick_11">
     <g id="line2d_26"/>
     <g id="text_19">
      <text style="font-size: 6.7px; font-family: 'DejaVu Sans'; text-anchor: end" x="62.02" y="337.905008" transform="rotate(-0 62.02 337.905008)">Bangkok</text>
     </g>
    </g>
    <g id="ytick_12">
     <g id="line2d_27"/>
     <g id="text_20">
      <text style="font-size: 6.7px; font-family: 'DejaVu Sans'; text-anchor: end" x="62.02" y="324.182124" transform="rotate(-0 62.02 324.182124)">Istanbul</text>
     </g>
    </g>
    <g id="ytick_13">
     <g id="line2d_28"/>
     <g id="text_21">
      <text style="font-size: 6.7px; font-family: 'DejaVu Sans'; text-anchor: end" x="62.02" y="310.45924" transform="rotate(-0 62.02 310.45924)">Tehran</text>
     </g>
    </g>
    <g id="ytick_14">
     <g id="line2d_29"/>
     <g id="text_22">
      <text style="font-size: 6.7px; font-family: 'DejaVu Sans'; text-anchor: end" x="62.02" y="296.736356" transform="rotate(-0 62.02 296.736356)">Marrakech</text>
     </g>
    </g>
    <g id="ytick_15">
     <g id="line2d_30"/>
     <g id="text_23">
      <text style="font-size: 6.7px; font-family: 'DejaVu Sans'; text-anchor: end" x="62.02" y="283.013472" transform="rotate(-0 62.02 283.013472)">Dhaka</text>
     </g>
    </g>
    <g id="ytick_16">
     <g id="line2d_31"/>
     <g id="text_24">
      <text style="font-size: 6.7px; font-family: 'DejaVu Sans'; text-anchor: end" x="62.02" y="269.290588" transform="rotate(-0 62.02 269.290588)">Shanghai</text>
     </g>
    </g>
    <g id="ytick_17">
     <g id="line2d_32"/>
     <g id="text_25">
      <text style="font-size: 6.7px; font-family: 'DejaVu Sans'; text-anchor: end" x="62.02" y="255.567704" transform="rotate(-0 62.02 255.567704)">Beijing</text>
     </g>
    </g>
    <g id="ytick_18">
     <g id="line2d_33"/>
     <g id="text_26">
      <text style="font-size: 6.7px; font-family: 'DejaVu Sans'; text-anchor: end" x="62.02" y="241.84482" transform="rotate(-0 62.02 241.84482)">Lagos</text>
     </g>
    </g>
    <g id="ytick_19">
     <g id="line2d_34"/>
     <g id="text_27">
      <text style="font-size: 6.7px; font-family: 'DejaVu Sans'; text-anchor: end" x="62.02" y="228.121936" transform="rotate(-0 62.02 228.121936)">Tokyo</text>
     </g>
    </g>
    <g id="ytick_20">
     <g id="line2d_35"/>
     <g id="text_28">
      <text style="font-size: 6.7px; font-family: 'DejaVu Sans'; text-anchor: end" x="62.02" y="214.399052" transform="rotate(-0 62.02 214.399052)">Seoul</text>
     </g>
    </g>
    <g id="ytick_21">
     <g id="line2d_36"/>
     <g id="text_29">
      <text style="font-size: 6.7px; font-family: 'DejaVu Sans'; text-anchor: end" x="62.02" y="200.676168" transform="rotate(-0 62.02 200.676168)">Paris</text>
     </g>
    </g>
    <g id="ytick_22">
     <g id="line2d_37"/>
     <g id="text_30">
      <text style="font-size: 6.7px; font-family: 'DejaVu Sans'; text-anchor: end" x="62.02" y="186.953284" transform="rotate(-0 62.02 186.953284)">Dubai</text>
     </g>
    </g>
    <g id="ytick_23">
     <g id="line2d_38"/>
     <g id="text_31">
      <text style="font-size: 6.7px; font-family: 'DejaVu Sans'; text-anchor: end" x="62.02" y="173.2304" transform="rotate(-0 62.02 173.2304)">Lima</text>
     </g>
    </g>
    <g id="ytick_24">
     <g id="line2d_39"/>
     <g id="text_32">
      <text style="font-size: 6.7px; font-family: 'DejaVu Sans'; text-anchor: end" x="62.02" y="159.507516" transform="rotate(-0 62.02 159.507516)">Madrid</text>
     </g>
    </g>
    <g id="ytick_25">
     <g id="line2d_40"/>
     <g id="text_33">
      <text style="font-size: 6.7px; font-family: 'DejaVu Sans'; text-anchor: end" x="62.02" y="145.784632" transform="rotate(-0 62.02 145.784632)">Singapore</text>
     </g>
    </g>
    <g id="ytick_26">
     <g id="line2d_41"/>
     <g id="text_34">
      <text style="font-size: 6.7px; font-family: 'DejaVu Sans'; text-anchor: end" x="62.02" y="132.061748" transform="rotate(-0 62.02 132.061748)">London</text>
     </g>
    </g>
    <g id="ytick_27">
     <g id="line2d_42"/>
     <g id="text_35">
      <text style="font-size: 6.7px; font-family: 'DejaVu Sans'; text-anchor: end" x="62.02" y="118.338864" transform="rotate(-0 62.02 118.338864)">Sydney</text>
     </g>
    </g>
    <g id="ytick_28">
     <g id="line2d_43"/>
     <g id="text_36">
      <text style="font-size: 6.7px; font-family: 'DejaVu Sans'; text-anchor: end" x="62.02" y="104.61598" transform="rotate(-0 62.02 104.61598)">Sao Paulo</text>
     </g>
    </g>
    <g id="ytick_29">
     <g id="line2d_44"/>
     <g id="text_37">
      <text style="font-size: 6.7px; font-family: 'DejaVu Sans'; text-anchor: end" x="62.02" y="90.893096" transform="rotate(-0 62.02 90.893096)">New York</text>
     </g>
    </g>
    <g id="ytick_30">
     <g id="line2d_45"/>
     <g id="text_38">
      <text style="font-size: 6.7px; font-family: 'DejaVu Sans'; text-anchor: end" x="62.02" y="77.170212" transform="rotate(-0 62.02 77.170212)">Los Angeles</text>
     </g>
    </g>
   </g>
   <g id="LineCollection_1">
    <path d="M 73.670482 472.588371 
L 73.670482 472.588371 
" clip-path="url(#pfddd06423f)" style="fill: none; stroke: #be3c3a; stroke-opacity: 0.85; stroke-width: 2.2"/>
    <path d="M 73.670482 458.865487 
L 84.999651 458.865487 
" clip-path="url(#pfddd06423f)" style="fill: none; stroke: #be3c3a; stroke-opacity: 0.85; stroke-width: 2.2"/>
    <path d="M 73.670482 445.142603 
L 89.645425 445.142603 
" clip-path="url(#pfddd06423f)" style="fill: none; stroke: #be3c3a; stroke-opacity: 0.85; stroke-width: 2.2"/>
    <path d="M 73.670482 431.419719 
L 106.679932 431.419719 
" clip-path="url(#pfddd06423f)" style="fill: none; stroke: #be3c3a; stroke-opacity: 0.85; stroke-width: 2.2"/>
    <path d="M 73.670482 417.696835 
L 144.537656 417.696835 
" clip-path="url(#pfddd06423f)" style="fill: none; stroke: #be3c3a; stroke-opacity: 0.85; stroke-width: 2.2"/>
    <path d="M 73.670482 403.973951 
L 146.837533 403.973951 
" clip-path="url(#pfddd06423f)" style="fill: none; stroke: #be3c3a; stroke-opacity: 0.85; stroke-width: 2.2"/>
    <path d="M 73.670482 390.251067 
L 148.608018 390.251067 
" clip-path="url(#pfddd06423f)" style="fill: none; stroke: #be3c3a; stroke-opacity: 0.85; stroke-width: 2.2"/>
    <path d="M 73.670482 376.528183 
L 152.306203 376.528183 
" clip-path="url(#pfddd06423f)" style="fill: none; stroke: #be3c3a; stroke-opacity: 0.85; stroke-width: 2.2"/>
    <path d="M 73.670482 362.805299 
L 179.369354 362.805299 
" clip-path="url(#pfddd06423f)" style="fill: none; stroke: #be3c3a; stroke-opacity: 0.85; stroke-width: 2.2"/>
    <path d="M 73.670482 349.082415 
L 185.411673 349.082415 
" clip-path="url(#pfddd06423f)" style="fill: none; stroke: #be3c3a; stroke-opacity: 0.85; stroke-width: 2.2"/>
    <path d="M 73.670482 335.359531 
L 190.869504 335.359531 
" clip-path="url(#pfddd06423f)" style="fill: none; stroke: #be3c3a; stroke-opacity: 0.85; stroke-width: 2.2"/>
    <path d="M 73.670482 321.636647 
L 222.189615 321.636647 
" clip-path="url(#pfddd06423f)" style="fill: none; stroke: #be3c3a; stroke-opacity: 0.85; stroke-width: 2.2"/>
    <path d="M 73.670482 307.913763 
L 228.985981 307.913763 
" clip-path="url(#pfddd06423f)" style="fill: none; stroke: #be3c3a; stroke-opacity: 0.85; stroke-width: 2.2"/>
    <path d="M 73.670482 294.190879 
L 236.825612 294.190879 
" clip-path="url(#pfddd06423f)" style="fill: none; stroke: #be3c3a; stroke-opacity: 0.85; stroke-width: 2.2"/>
    <path d="M 73.670482 280.467995 
L 243.643721 280.467995 
" clip-path="url(#pfddd06423f)" style="fill: none; stroke: #be3c3a; stroke-opacity: 0.85; stroke-width: 2.2"/>
    <path d="M 73.670482 266.745111 
L 245.356737 266.745111 
" clip-path="url(#pfddd06423f)" style="fill: none; stroke: #be3c3a; stroke-opacity: 0.85; stroke-width: 2.2"/>
    <path d="M 73.670482 253.022227 
L 260.083085 253.022227 
" clip-path="url(#pfddd06423f)" style="fill: none; stroke: #d89a2b; stroke-opacity: 0.85; stroke-width: 2.2"/>
    <path d="M 73.670482 239.299343 
L 261.81213 239.299343 
" clip-path="url(#pfddd06423f)" style="fill: none; stroke: #d89a2b; stroke-opacity: 0.85; stroke-width: 2.2"/>
    <path d="M 73.670482 225.576459 
L 267.951237 225.576459 
" clip-path="url(#pfddd06423f)" style="fill: none; stroke: #d89a2b; stroke-opacity: 0.85; stroke-width: 2.2"/>
    <path d="M 73.670482 211.853575 
L 291.855713 211.853575 
" clip-path="url(#pfddd06423f)" style="fill: none; stroke: #d89a2b; stroke-opacity: 0.85; stroke-width: 2.2"/>
    <path d="M 73.670482 198.130691 
L 309.000418 198.130691 
" clip-path="url(#pfddd06423f)" style="fill: none; stroke: #d89a2b; stroke-opacity: 0.85; stroke-width: 2.2"/>
    <path d="M 73.670482 184.407807 
L 326.843067 184.407807 
" clip-path="url(#pfddd06423f)" style="fill: none; stroke: #d89a2b; stroke-opacity: 0.85; stroke-width: 2.2"/>
    <path d="M 73.670482 170.684923 
L 342.15336 170.684923 
" clip-path="url(#pfddd06423f)" style="fill: none; stroke: #2f6fad; stroke-opacity: 0.85; stroke-width: 2.2"/>
    <path d="M 73.670482 156.962039 
L 358.163195 156.962039 
" clip-path="url(#pfddd06423f)" style="fill: none; stroke: #2f6fad; stroke-opacity: 0.85; stroke-width: 2.2"/>
    <path d="M 73.670482 143.239155 
L 372.298508 143.239155 
" clip-path="url(#pfddd06423f)" style="fill: none; stroke: #2f6fad; stroke-opacity: 0.85; stroke-width: 2.2"/>
    <path d="M 73.670482 129.516271 
L 390.344439 129.516271 
" clip-path="url(#pfddd06423f)" style="fill: none; stroke: #2f6fad; stroke-opacity: 0.85; stroke-width: 2.2"/>
    <path d="M 73.670482 115.793387 
L 398.383658 115.793387 
" clip-path="url(#pfddd06423f)" style="fill: none; stroke: #2f6fad; stroke-opacity: 0.85; stroke-width: 2.2"/>
    <path d="M 73.670482 102.070503 
L 466.184594 102.070503 
" clip-path="url(#pfddd06423f)" style="fill: none; stroke: #2f6fad; stroke-opacity: 0.85; stroke-width: 2.2"/>
    <path d="M 73.670482 88.347619 
L 468.384315 88.347619 
" clip-path="url(#pfddd06423f)" style="fill: none; stroke: #2f6fad; stroke-opacity: 0.85; stroke-width: 2.2"/>
    <path d="M 73.670482 74.624735 
L 468.847684 74.624735 
" clip-path="url(#pfddd06423f)" style="fill: none; stroke: #2f6fad; stroke-opacity: 0.85; stroke-width: 2.2"/>
   </g>
   <g id="line2d_46">
    <path d="M 255.911575 492.486553 
L 255.911575 54.726553 
" clip-path="url(#pfddd06423f)" style="fill: none; stroke-dasharray: 3.7,1.6; stroke-dashoffset: 0; stroke: #be3c3a"/>
   </g>
   <g id="line2d_47">
    <path d="M 330.489727 492.486553 
L 330.489727 54.726553 
" clip-path="url(#pfddd06423f)" style="fill: none; stroke-dasharray: 3.7,1.6; stroke-dashoffset: 0; stroke: #d89a2b"/>
   </g>
   <g id="line2d_48">
    <path d="M 244.508144 492.486553 
L 244.508144 54.726553 
" clip-path="url(#pfddd06423f)" style="fill: none; stroke: #1e2429; stroke-width: 1.1; stroke-linecap: square"/>
   </g>
   <g id="patch_6">
    <path d="M 65.52 492.486553 
L 65.52 54.726553 
" style="fill: none; stroke: #000000; stroke-width: 0.75; stroke-linejoin: miter; stroke-linecap: square"/>
   </g>
   <g id="patch_7">
    <path d="M 65.52 492.486553 
L 475.782292 492.486553 
" style="fill: none; stroke: #000000; stroke-width: 0.75; stroke-linejoin: miter; stroke-linecap: square"/>
   </g>
   <g id="PathCollection_1">
    <path d="M 73.670482 478.92067 
C 75.349827 478.92067 76.960616 478.253459 78.148093 477.065983 
C 79.335569 475.878506 80.00278 474.267717 80.00278 472.588371 
C 80.00278 470.909026 79.335569 469.298236 78.148093 468.11076 
C 76.960616 466.923284 75.349827 466.256073 73.670482 466.256073 
C 71.991136 466.256073 70.380347 466.923284 69.19287 468.11076 
C 68.005394 469.298236 67.338183 470.909026 67.338183 472.588371 
C 67.338183 474.267717 68.005394 475.878506 69.19287 477.065983 
C 70.380347 478.253459 71.991136 478.92067 73.670482 478.92067 
z
" clip-path="url(#pfddd06423f)" style="fill: #be3c3a; stroke: #ffffff; stroke-width: 0.55"/>
    <path d="M 84.999651 468.536057 
C 87.564316 468.536057 90.024284 467.517105 91.837776 465.703613 
C 93.651268 463.890121 94.670221 461.430152 94.670221 458.865487 
C 94.670221 456.300822 93.651268 453.840854 91.837776 452.027362 
C 90.024284 450.21387 87.564316 449.194918 84.999651 449.194918 
C 82.434986 449.194918 79.975018 450.21387 78.161526 452.027362 
C 76.348033 453.840854 75.329081 456.300822 75.329081 458.865487 
C 75.329081 461.430152 76.348033 463.890121 78.161526 465.703613 
C 79.975018 467.517105 82.434986 468.536057 84.999651 468.536057 
z
" clip-path="url(#pfddd06423f)" style="fill: #be3c3a; stroke: #ffffff; stroke-width: 0.55"/>
    <path d="M 89.645425 456.476893 
C 92.651314 456.476893 95.534494 455.282641 97.659979 453.157157 
C 99.785463 451.031672 100.979716 448.148492 100.979716 445.142603 
C 100.979716 442.136714 99.785463 439.253534 97.659979 437.12805 
C 95.534494 435.002565 92.651314 433.808313 89.645425 433.808313 
C 86.639537 433.808313 83.756356 435.002565 81.630872 437.12805 
C 79.505388 439.253534 78.311135 442.136714 78.311135 445.142603 
C 78.311135 448.148492 79.505388 451.031672 81.630872 453.157157 
C 83.756356 455.282641 86.639537 456.476893 89.645425 456.476893 
z
" clip-path="url(#pfddd06423f)" style="fill: #be3c3a; stroke: #ffffff; stroke-width: 0.55"/>
    <path d="M 106.679932 443.238405 
C 109.814284 443.238405 112.820683 441.993114 115.037005 439.776792 
C 117.253326 437.560471 118.498618 434.554071 118.498618 431.419719 
C 118.498618 428.285367 117.253326 425.278968 115.037005 423.062646 
C 112.820683 420.846325 109.814284 419.601033 106.679932 419.601033 
C 103.54558 419.601033 100.539181 420.846325 98.322859 423.062646 
C 96.106537 425.278968 94.861246 428.285367 94.861246 431.419719 
C 94.861246 434.554071 96.106537 437.560471 98.322859 439.776792 
C 100.539181 441.993114 103.54558 443.238405 106.679932 443.238405 
z
" clip-path="url(#pfddd06423f)" style="fill: #be3c3a; stroke: #ffffff; stroke-width: 0.55"/>
    <path d="M 144.537656 424.89805 
C 146.447441 424.89805 148.279262 424.139285 149.629684 422.788863 
C 150.980106 421.438442 151.738871 419.60662 151.738871 417.696835 
C 151.738871 415.787051 150.980106 413.955229 149.629684 412.604807 
C 148.279262 411.254386 146.447441 410.49562 144.537656 410.49562 
C 142.627871 410.49562 140.79605 411.254386 139.445628 412.604807 
C 138.095206 413.955229 137.336441 415.787051 137.336441 417.696835 
C 137.336441 419.60662 138.095206 421.438442 139.445628 422.788863 
C 140.79605 424.139285 142.627871 424.89805 144.537656 424.89805 
z
" clip-path="url(#pfddd06423f)" style="fill: #be3c3a; stroke: #ffffff; stroke-width: 0.55"/>
    <path d="M 146.837533 414.032379 
C 149.505059 414.032379 152.06369 412.97256 153.949916 411.086334 
C 155.836141 409.200108 156.895961 406.641477 156.895961 403.973951 
C 156.895961 401.306425 155.836141 398.747795 153.949916 396.861569 
C 152.06369 394.975343 149.505059 393.915523 146.837533 393.915523 
C 144.170007 393.915523 141.611376 394.975343 139.725151 396.861569 
C 137.838925 398.747795 136.779105 401.306425 136.779105 403.973951 
C 136.779105 406.641477 137.838925 409.200108 139.725151 411.086334 
C 141.611376 412.97256 144.170007 414.032379 146.837533 414.032379 
z
" clip-path="url(#pfddd06423f)" style="fill: #be3c3a; stroke: #ffffff; stroke-width: 0.55"/>
    <path d="M 148.608018 400.159621 
C 151.235798 400.159621 153.756303 399.115593 155.614424 397.257473 
C 157.472544 395.399352 158.516572 392.878846 158.516572 390.251067 
C 158.516572 387.623288 157.472544 385.102782 155.614424 383.244662 
C 153.756303 381.386541 151.235798 380.342513 148.608018 380.342513 
C 145.980239 380.342513 143.459733 381.386541 141.601613 383.244662 
C 139.743492 385.102782 138.699464 387.623288 138.699464 390.251067 
C 138.699464 392.878846 139.743492 395.399352 141.601613 397.257473 
C 143.459733 399.115593 145.980239 400.159621 148.608018 400.159621 
z
" clip-path="url(#pfddd06423f)" style="fill: #be3c3a; stroke: #ffffff; stroke-width: 0.55"/>
    <path d="M 152.306203 384.373757 
C 154.386873 384.373757 156.382605 383.547098 157.853861 382.075842 
C 159.325117 380.604585 160.151776 378.608854 160.151776 376.528183 
C 160.151776 374.447513 159.325117 372.451781 157.853861 370.980525 
C 156.382605 369.509269 154.386873 368.68261 152.306203 368.68261 
C 150.225532 368.68261 148.229801 369.509269 146.758544 370.980525 
C 145.287288 372.451781 144.460629 374.447513 144.460629 376.528183 
C 144.460629 378.608854 145.287288 380.604585 146.758544 382.075842 
C 148.229801 383.547098 150.225532 384.373757 152.306203 384.373757 
z
" clip-path="url(#pfddd06423f)" style="fill: #be3c3a; stroke: #ffffff; stroke-width: 0.55"/>
    <path d="M 179.369354 371.836869 
C 181.764554 371.836869 184.061976 370.885246 185.755638 369.191583 
C 187.449301 367.497921 188.400924 365.200499 188.400924 362.805299 
C 188.400924 360.410099 187.449301 358.112677 185.755638 356.419015 
C 184.061976 354.725353 181.764554 353.77373 179.369354 353.77373 
C 176.974154 353.77373 174.676732 354.725353 172.98307 356.419015 
C 171.289408 358.112677 170.337785 360.410099 170.337785 362.805299 
C 170.337785 365.200499 171.289408 367.497921 172.98307 369.191583 
C 174.676732 370.885246 176.974154 371.836869 179.369354 371.836869 
z
" clip-path="url(#pfddd06423f)" style="fill: #be3c3a; stroke: #ffffff; stroke-width: 0.55"/>
    <path d="M 185.411673 359.015544 
C 188.04597 359.015544 190.572727 357.968927 192.435456 356.106198 
C 194.298185 354.243469 195.344802 351.716712 195.344802 349.082415 
C 195.344802 346.448119 194.298185 343.921361 192.435456 342.058632 
C 190.572727 340.195903 188.04597 339.149286 185.411673 339.149286 
C 182.777376 339.149286 180.250619 340.195903 178.38789 342.058632 
C 176.525161 343.921361 175.478544 346.448119 175.478544 349.082415 
C 175.478544 351.716712 176.525161 354.243469 178.38789 356.106198 
C 180.250619 357.968927 182.777376 359.015544 185.411673 359.015544 
z
" clip-path="url(#pfddd06423f)" style="fill: #be3c3a; stroke: #ffffff; stroke-width: 0.55"/>
    <path d="M 190.869504 345.990992 
C 193.689001 345.990992 196.393398 344.870794 198.387083 342.877109 
C 200.380768 340.883424 201.500965 338.179028 201.500965 335.359531 
C 201.500965 332.540035 200.380768 329.835638 198.387083 327.841953 
C 196.393398 325.848268 193.689001 324.72807 190.869504 324.72807 
C 188.050008 324.72807 185.345611 325.848268 183.351926 327.841953 
C 181.358241 329.835638 180.238044 332.540035 180.238044 335.359531 
C 180.238044 338.179028 181.358241 340.883424 183.351926 342.877109 
C 185.345611 344.870794 188.050008 345.990992 190.869504 345.990992 
z
" clip-path="url(#pfddd06423f)" style="fill: #be3c3a; stroke: #ffffff; stroke-width: 0.55"/>
    <path d="M 222.189615 331.157626 
C 224.714608 331.157626 227.136524 330.154435 228.921964 328.368996 
C 230.707403 326.583556 231.710594 324.16164 231.710594 321.636647 
C 231.710594 319.111654 230.707403 316.689738 228.921964 314.904299 
C 227.136524 313.118859 224.714608 312.115669 222.189615 312.115669 
C 219.664622 312.115669 217.242706 313.118859 215.457266 314.904299 
C 213.671827 316.689738 212.668636 319.111654 212.668636 321.636647 
C 212.668636 324.16164 213.671827 326.583556 215.457266 328.368996 
C 217.242706 330.154435 219.664622 331.157626 222.189615 331.157626 
z
" clip-path="url(#pfddd06423f)" style="fill: #be3c3a; stroke: #ffffff; stroke-width: 0.55"/>
    <path d="M 228.985981 317.02073 
C 231.401177 317.02073 233.717778 316.061162 235.425579 314.353361 
C 237.13338 312.64556 238.092948 310.328959 238.092948 307.913763 
C 238.092948 305.498567 237.13338 303.181967 235.425579 301.474165 
C 233.717778 299.766364 231.401177 298.806796 228.985981 298.806796 
C 226.570785 298.806796 224.254184 299.766364 222.546383 301.474165 
C 220.838582 303.181967 219.879014 305.498567 219.879014 307.913763 
C 219.879014 310.328959 220.838582 312.64556 222.546383 314.353361 
C 224.254184 316.061162 226.570785 317.02073 228.985981 317.02073 
z
" clip-path="url(#pfddd06423f)" style="fill: #be3c3a; stroke: #ffffff; stroke-width: 0.55"/>
    <path d="M 236.825612 302.909406 
C 239.137793 302.909406 241.355584 301.990767 242.990542 300.355809 
C 244.6255 298.72085 245.544139 296.50306 245.544139 294.190879 
C 245.544139 291.878699 244.6255 289.660908 242.990542 288.02595 
C 241.355584 286.390991 239.137793 285.472352 236.825612 285.472352 
C 234.513432 285.472352 232.295641 286.390991 230.660683 288.02595 
C 229.025725 289.660908 228.107085 291.878699 228.107085 294.190879 
C 228.107085 296.50306 229.025725 298.72085 230.660683 300.355809 
C 232.295641 301.990767 234.513432 302.909406 236.825612 302.909406 
z
" clip-path="url(#pfddd06423f)" style="fill: #be3c3a; stroke: #ffffff; stroke-width: 0.55"/>
    <path d="M 243.643721 290.710122 
C 246.359965 290.710122 248.965324 289.630947 250.885999 287.710273 
C 252.806673 285.789598 253.885848 283.184239 253.885848 280.467995 
C 253.885848 277.751751 252.806673 275.146392 250.885999 273.225718 
C 248.965324 271.305043 246.359965 270.225868 243.643721 270.225868 
C 240.927477 270.225868 238.322118 271.305043 236.401444 273.225718 
C 234.480769 275.146392 233.401594 277.751751 233.401594 280.467995 
C 233.401594 283.184239 234.480769 285.789598 236.401444 287.710273 
C 238.322118 289.630947 240.927477 290.710122 243.643721 290.710122 
z
" clip-path="url(#pfddd06423f)" style="fill: #be3c3a; stroke: #ffffff; stroke-width: 0.55"/>
    <path d="M 245.356737 275.499699 
C 247.678481 275.499699 249.905444 274.57726 251.547165 272.93554 
C 253.188886 271.293819 254.111324 269.066855 254.111324 266.745111 
C 254.111324 264.423367 253.188886 262.196404 251.547165 260.554683 
C 249.905444 258.912962 247.678481 257.990523 245.356737 257.990523 
C 243.034993 257.990523 240.808029 258.912962 239.166308 260.554683 
C 237.524587 262.196404 236.602149 264.423367 236.602149 266.745111 
C 236.602149 269.066855 237.524587 271.293819 239.166308 272.93554 
C 240.808029 274.57726 243.034993 275.499699 245.356737 275.499699 
z
" clip-path="url(#pfddd06423f)" style="fill: #be3c3a; stroke: #ffffff; stroke-width: 0.55"/>
    <path d="M 260.083085 262.950445 
C 262.71608 262.950445 265.241588 261.904346 267.103396 260.042538 
C 268.965204 258.180729 270.011304 255.655221 270.011304 253.022227 
C 270.011304 250.389233 268.965204 247.863725 267.103396 246.001917 
C 265.241588 244.140109 262.71608 243.094009 260.083085 243.094009 
C 257.450091 243.094009 254.924583 244.140109 253.062775 246.001917 
C 251.200967 247.863725 250.154867 250.389233 250.154867 253.022227 
C 250.154867 255.655221 251.200967 258.180729 253.062775 260.042538 
C 254.924583 261.904346 257.450091 262.950445 260.083085 262.950445 
z
" clip-path="url(#pfddd06423f)" style="fill: #d89a2b; stroke: #ffffff; stroke-width: 0.55"/>
    <path d="M 261.81213 252.085205 
C 265.20298 252.085205 268.455407 250.738006 270.8531 248.340312 
C 273.250793 245.942619 274.597992 242.690193 274.597992 239.299343 
C 274.597992 235.908493 273.250793 232.656067 270.8531 230.258374 
C 268.455407 227.860681 265.20298 226.513482 261.81213 226.513482 
C 258.42128 226.513482 255.168854 227.860681 252.771161 230.258374 
C 250.373468 232.656067 249.026269 235.908493 249.026269 239.299343 
C 249.026269 242.690193 250.373468 245.942619 252.771161 248.340312 
C 255.168854 250.738006 258.42128 252.085205 261.81213 252.085205 
z
" clip-path="url(#pfddd06423f)" style="fill: #d89a2b; stroke: #ffffff; stroke-width: 0.55"/>
    <path d="M 267.951237 236.887068 
C 270.950845 236.887068 273.828001 235.69531 275.949045 233.574267 
C 278.070088 231.453224 279.261845 228.576068 279.261845 225.576459 
C 279.261845 222.576851 278.070088 219.699695 275.949045 217.578651 
C 273.828001 215.457608 270.950845 214.265851 267.951237 214.265851 
C 264.951628 214.265851 262.074472 215.457608 259.953429 217.578651 
C 257.832385 219.699695 256.640628 222.576851 256.640628 225.576459 
C 256.640628 228.576068 257.832385 231.453224 259.953429 233.574267 
C 262.074472 235.69531 264.951628 236.887068 267.951237 236.887068 
z
" clip-path="url(#pfddd06423f)" style="fill: #d89a2b; stroke: #ffffff; stroke-width: 0.55"/>
    <path d="M 291.855713 220.36525 
C 294.113035 220.36525 296.278208 219.468406 297.874376 217.872238 
C 299.470544 216.27607 300.367387 214.110898 300.367387 211.853575 
C 300.367387 209.596253 299.470544 207.43108 297.874376 205.834912 
C 296.278208 204.238744 294.113035 203.341901 291.855713 203.341901 
C 289.59839 203.341901 287.433218 204.238744 285.83705 205.834912 
C 284.240882 207.43108 283.344038 209.596253 283.344038 211.853575 
C 283.344038 214.110898 284.240882 216.27607 285.83705 217.872238 
C 287.433218 219.468406 289.59839 220.36525 291.855713 220.36525 
z
" clip-path="url(#pfddd06423f)" style="fill: #d89a2b; stroke: #ffffff; stroke-width: 0.55"/>
    <path d="M 309.000418 206.391079 
C 311.191098 206.391079 313.292349 205.520712 314.841394 203.971667 
C 316.390439 202.422622 317.260806 200.321372 317.260806 198.130691 
C 317.260806 195.940011 316.390439 193.83876 314.841394 192.289715 
C 313.292349 190.74067 311.191098 189.870303 309.000418 189.870303 
C 306.809738 189.870303 304.708487 190.74067 303.159442 192.289715 
C 301.610397 193.83876 300.74003 195.940011 300.74003 198.130691 
C 300.74003 200.321372 301.610397 202.422622 303.159442 203.971667 
C 304.708487 205.520712 306.809738 206.391079 309.000418 206.391079 
z
" clip-path="url(#pfddd06423f)" style="fill: #d89a2b; stroke: #ffffff; stroke-width: 0.55"/>
    <path d="M 326.843067 192.672862 
C 329.034985 192.672862 331.137423 191.802003 332.687343 190.252083 
C 334.237263 188.702163 335.108121 186.599725 335.108121 184.407807 
C 335.108121 182.215889 334.237263 180.113451 332.687343 178.563531 
C 331.137423 177.013611 329.034985 176.142753 326.843067 176.142753 
C 324.651149 176.142753 322.548711 177.013611 320.998791 178.563531 
C 319.448871 180.113451 318.578012 182.215889 318.578012 184.407807 
C 318.578012 186.599725 319.448871 188.702163 320.998791 190.252083 
C 322.548711 191.802003 324.651149 192.672862 326.843067 192.672862 
z
" clip-path="url(#pfddd06423f)" style="fill: #d89a2b; stroke: #ffffff; stroke-width: 0.55"/>
    <path d="M 342.15336 181.116071 
C 344.919733 181.116071 347.573175 180.016979 349.529296 178.060858 
C 351.485417 176.104737 352.584508 173.451296 352.584508 170.684923 
C 352.584508 167.91855 351.485417 165.265109 349.529296 163.308988 
C 347.573175 161.352867 344.919733 160.253775 342.15336 160.253775 
C 339.386988 160.253775 336.733546 161.352867 334.777425 163.308988 
C 332.821304 165.265109 331.722212 167.91855 331.722212 170.684923 
C 331.722212 173.451296 332.821304 176.104737 334.777425 178.060858 
C 336.733546 180.016979 339.386988 181.116071 342.15336 181.116071 
z
" clip-path="url(#pfddd06423f)" style="fill: #2f6fad; stroke: #ffffff; stroke-width: 0.55"/>
    <path d="M 358.163195 165.143336 
C 360.3329 165.143336 362.414032 164.281303 363.948246 162.74709 
C 365.482459 161.212876 366.344492 159.131744 366.344492 156.962039 
C 366.344492 154.792334 365.482459 152.711202 363.948246 151.176988 
C 362.414032 149.642775 360.3329 148.780742 358.163195 148.780742 
C 355.99349 148.780742 353.912358 149.642775 352.378144 151.176988 
C 350.843931 152.711202 349.981898 154.792334 349.981898 156.962039 
C 349.981898 159.131744 350.843931 161.212876 352.378144 162.74709 
C 353.912358 164.281303 355.99349 165.143336 358.163195 165.143336 
z
" clip-path="url(#pfddd06423f)" style="fill: #2f6fad; stroke: #ffffff; stroke-width: 0.55"/>
    <path d="M 372.298508 150.907745 
C 374.332242 150.907745 376.282953 150.099734 377.72102 148.661667 
C 379.159087 147.2236 379.967098 145.272889 379.967098 143.239155 
C 379.967098 141.205421 379.159087 139.25471 377.72102 137.816643 
C 376.282953 136.378576 374.332242 135.570565 372.298508 135.570565 
C 370.264775 135.570565 368.314063 136.378576 366.875996 137.816643 
C 365.43793 139.25471 364.629919 141.205421 364.629919 143.239155 
C 364.629919 145.272889 365.43793 147.2236 366.875996 148.661667 
C 368.314063 150.099734 370.264775 150.907745 372.298508 150.907745 
z
" clip-path="url(#pfddd06423f)" style="fill: #2f6fad; stroke: #ffffff; stroke-width: 0.55"/>
    <path d="M 390.344439 138.875443 
C 392.826521 138.875443 395.207277 137.889301 396.962373 136.134205 
C 398.71747 134.379108 399.703611 131.998352 399.703611 129.516271 
C 399.703611 127.03419 398.71747 124.653434 396.962373 122.898337 
C 395.207277 121.143241 392.826521 120.157099 390.344439 120.157099 
C 387.862358 120.157099 385.481602 121.143241 383.726506 122.898337 
C 381.971409 124.653434 380.985268 127.03419 380.985268 129.516271 
C 380.985268 131.998352 381.971409 134.379108 383.726506 136.134205 
C 385.481602 137.889301 387.862358 138.875443 390.344439 138.875443 
z
" clip-path="url(#pfddd06423f)" style="fill: #2f6fad; stroke: #ffffff; stroke-width: 0.55"/>
    <path d="M 398.383658 121.704722 
C 399.951362 121.704722 401.455068 121.081867 402.563603 119.973332 
C 403.672137 118.864798 404.294993 117.361091 404.294993 115.793387 
C 404.294993 114.225683 403.672137 112.721976 402.563603 111.613442 
C 401.455068 110.504907 399.951362 109.882052 398.383658 109.882052 
C 396.815953 109.882052 395.312247 110.504907 394.203712 111.613442 
C 393.095178 112.721976 392.472322 114.225683 392.472322 115.793387 
C 392.472322 117.361091 393.095178 118.864798 394.203712 119.973332 
C 395.312247 121.081867 396.815953 121.704722 398.383658 121.704722 
z
" clip-path="url(#pfddd06423f)" style="fill: #2f6fad; stroke: #ffffff; stroke-width: 0.55"/>
    <path d="M 466.184594 112.126791 
C 468.851553 112.126791 471.409639 111.067197 473.295464 109.181372 
C 475.181288 107.295548 476.240882 104.737462 476.240882 102.070503 
C 476.240882 99.403544 475.181288 96.845458 473.295464 94.959634 
C 471.409639 93.073809 468.851553 92.014215 466.184594 92.014215 
C 463.517636 92.014215 460.95955 93.073809 459.073725 94.959634 
C 457.1879 96.845458 456.128306 99.403544 456.128306 102.070503 
C 456.128306 104.737462 457.1879 107.295548 459.073725 109.181372 
C 460.95955 111.067197 463.517636 112.126791 466.184594 112.126791 
z
" clip-path="url(#pfddd06423f)" style="fill: #2f6fad; stroke: #ffffff; stroke-width: 0.55"/>
    <path d="M 468.384315 102.293813 
C 472.082889 102.293813 475.630477 100.824354 478.245763 98.209067 
C 480.86105 95.593781 482.330509 92.046193 482.330509 88.347619 
C 482.330509 84.649045 480.86105 81.101457 478.245763 78.486171 
C 475.630477 75.870884 472.082889 74.401425 468.384315 74.401425 
C 464.685741 74.401425 461.138153 75.870884 458.522866 78.486171 
C 455.90758 81.101457 454.438121 84.649045 454.438121 88.347619 
C 454.438121 92.046193 455.90758 95.593781 458.522866 98.209067 
C 461.138153 100.824354 464.685741 102.293813 468.384315 102.293813 
z
" clip-path="url(#pfddd06423f)" style="fill: #2f6fad; stroke: #ffffff; stroke-width: 0.55"/>
    <path d="M 468.847684 84.819462 
C 471.551357 84.819462 474.144659 83.745282 476.056445 81.833496 
C 477.96823 79.92171 479.042411 77.328408 479.042411 74.624735 
C 479.042411 71.921062 477.96823 69.32776 476.056445 67.415974 
C 474.144659 65.504188 471.551357 64.430008 468.847684 64.430008 
C 466.144011 64.430008 463.550709 65.504188 461.638923 67.415974 
C 459.727137 69.32776 458.652956 71.921062 458.652956 74.624735 
C 458.652956 77.328408 459.727137 79.92171 461.638923 81.833496 
C 463.550709 83.745282 466.144011 84.819462 468.847684 84.819462 
z
" clip-path="url(#pfddd06423f)" style="fill: #2f6fad; stroke: #ffffff; stroke-width: 0.55"/>
   </g>
   <g id="text_39">
    <text style="font-size: 7.2px; font-family: 'DejaVu Sans'; fill: #1e2429" transform="translate(253.545241 456.12091) rotate(-90)">median 0.78%</text>
   </g>
   <g id="text_40">
    <text style="font-weight: 700; font-size: 7px; font-family: 'DejaVu Sans'; text-anchor: start; fill: #be3c3a" x="170.993396" y="77.369312" transform="rotate(-0 170.993396 77.369312)">&lt;1%</text>
   </g>
   <g id="text_41">
    <text style="font-weight: 700; font-size: 7px; font-family: 'DejaVu Sans'; text-anchor: start; fill: #d89a2b" x="273.129092" y="77.369312" transform="rotate(-0 273.129092 77.369312)">1-5%</text>
   </g>
   <g id="text_42">
    <text style="font-weight: 700; font-size: 7px; font-family: 'DejaVu Sans'; text-anchor: start; fill: #2f6fad" x="346.081181" y="77.369312" transform="rotate(-0 346.081181 77.369312)">&gt;=5%</text>
   </g>
   <g id="text_43">
    <text style="font-size: 6.2px; font-family: 'DejaVu Sans'; text-anchor: start; fill: #1e2429" x="393.910661" y="131.227083" transform="rotate(-0 393.910661 131.227083)">18</text>
   </g>
   <g id="text_44">
    <text style="font-size: 6.2px; font-family: 'DejaVu Sans'; text-anchor: start; fill: #1e2429" x="401.949879" y="117.504199" transform="rotate(-0 401.949879 117.504199)">22</text>
   </g>
   <g id="text_45">
    <text style="font-size: 6.2px; font-family: 'DejaVu Sans'; text-anchor: start; fill: #1e2429" x="469.750816" y="103.781315" transform="rotate(-0 469.750816 103.781315)">93</text>
   </g>
   <g id="text_46">
    <text style="font-size: 6.2px; font-family: 'DejaVu Sans'; text-anchor: start; fill: #1e2429" x="471.950536" y="90.058431" transform="rotate(-0 471.950536 90.058431)">98</text>
   </g>
   <g id="text_47">
    <text style="font-size: 6.2px; font-family: 'DejaVu Sans'; text-anchor: start; fill: #1e2429" x="472.413905" y="76.335547" transform="rotate(-0 472.413905 76.335547)">99</text>
   </g>
   <g id="text_48">
    <text style="font-weight: 700; font-size: 9.2px; font-family: 'DejaVu Sans'; text-anchor: start" x="65.52" y="48.726553" transform="rotate(-0 65.52 48.726553)">A. Native height availability across audited cities</text>
   </g>
  </g>
  <g id="axes_2">
   <g id="patch_8">
    <path d="M 531.641081 262.087644 
L 742.032 262.087644 
L 742.032 54.726553 
L 531.641081 54.726553 
z
" style="fill: #f7f8f8"/>
   </g>
   <g id="matplotlib.axis_3"/>
   <g id="matplotlib.axis_4"/>
   <g id="text_49">
    <text style="font-weight: 700; font-size: 9.2px; font-family: 'DejaVu Sans'; text-anchor: start; fill: #1e2429" x="540.056718" y="70.278635" transform="rotate(-0 540.056718 70.278635)">B. What the 30-city audit establishes</text>
   </g>
   <g id="text_50">
    <text style="font-weight: 700; font-size: 15.5px; font-family: 'DejaVu Sans'; text-anchor: start; fill: #26343f" x="540.056718" y="108.770246" transform="rotate(-0 540.056718 108.770246)">1.45M</text>
   </g>
   <g id="text_51">
    <text style="font-size: 7.4px; font-family: 'DejaVu Sans'; text-anchor: start; fill: #6e7781" x="611.58963" y="106.535153" transform="rotate(-0 611.58963 106.535153)">audited building records</text>
   </g>
   <g id="text_52">
    <text style="font-weight: 700; font-size: 15.5px; font-family: 'DejaVu Sans'; text-anchor: start; fill: #be3c3a" x="540.056718" y="144.021632" transform="rotate(-0 540.056718 144.021632)">78.9%</text>
   </g>
   <g id="text_53">
    <text style="font-size: 7.4px; font-family: 'DejaVu Sans'; text-anchor: start; fill: #6e7781" x="611.58963" y="141.786538" transform="rotate(-0 611.58963 141.786538)">without native height</text>
   </g>
   <g id="text_54">
    <text style="font-weight: 700; font-size: 15.5px; font-family: 'DejaVu Sans'; text-anchor: start; fill: #be3c3a" x="540.056718" y="179.273017" transform="rotate(-0 540.056718 179.273017)">0.78%</text>
   </g>
   <g id="text_55">
    <text style="font-size: 7.4px; font-family: 'DejaVu Sans'; text-anchor: start; fill: #6e7781" x="611.58963" y="177.037924" transform="rotate(-0 611.58963 177.037924)">median city height availability</text>
   </g>
   <g id="text_56">
    <text style="font-weight: 700; font-size: 15.5px; font-family: 'DejaVu Sans'; text-anchor: start; fill: #d89a2b" x="540.056718" y="214.524403" transform="rotate(-0 540.056718 214.524403)">22/30</text>
   </g>
   <g id="text_57">
    <text style="font-size: 7.4px; font-family: 'DejaVu Sans'; text-anchor: start; fill: #6e7781" x="611.58963" y="212.289309" transform="rotate(-0 611.58963 212.289309)">cities below the 5% validation-trigger heuristic</text>
   </g>
   <g id="text_58">
    <text style="font-size: 7.1px; font-family: 'DejaVu Sans'; text-anchor: start; fill: #6e7781" x="540.056718" y="247.572368" transform="rotate(-0 540.056718 247.572368)">Thresholds are diagnostic triggers for task-specific validation, not universal quality scores.</text>
   </g>
  </g>
  <g id="axes_3">
   <g id="patch_9">
    <path d="M 531.641081 492.486553 
L 742.032 492.486553 
L 742.032 314.156015 
L 531.641081 314.156015 
z
" style="fill: #ffffff"/>
   </g>
   <g id="PathCollection_2">
    <path d="M 556.533266 428.437541 
C 558.091632 428.437541 559.586382 427.818395 560.688313 426.716464 
C 561.790244 425.614532 562.40939 424.119783 562.40939 422.561416 
C 562.40939 421.00305 561.790244 419.5083 560.688313 418.406369 
C 559.586382 417.304438 558.091632 416.685292 556.533266 416.685292 
C 554.974899 416.685292 553.48015 417.304438 552.378218 418.406369 
C 551.276287 419.5083 550.657141 421.00305 550.657141 422.561416 
C 550.657141 424.119783 551.276287 425.614532 552.378218 426.716464 
C 553.48015 427.818395 554.974899 428.437541 556.533266 428.437541 
z
" clip-path="url(#pdc2a78766b)" style="fill: #be3c3a; fill-opacity: 0.92; stroke: #ffffff; stroke-opacity: 0.92; stroke-width: 0.55"/>
    <path d="M 650.885658 428.445175 
C 653.265567 428.445175 655.548321 427.499628 657.23117 425.816778 
C 658.91402 424.133929 659.859567 421.851175 659.859567 419.471266 
C 659.859567 417.091358 658.91402 414.808604 657.23117 413.125755 
C 655.548321 411.442905 653.265567 410.497358 650.885658 410.497358 
C 648.50575 410.497358 646.222996 411.442905 644.540147 413.125755 
C 642.857297 414.808604 641.91175 417.091358 641.91175 419.471266 
C 641.91175 421.851175 642.857297 424.133929 644.540147 425.816778 
C 646.222996 427.499628 648.50575 428.445175 650.885658 428.445175 
z
" clip-path="url(#pdc2a78766b)" style="fill: #be3c3a; fill-opacity: 0.92; stroke: #ffffff; stroke-opacity: 0.92; stroke-width: 0.55"/>
    <path d="M 686.25922 428.721859 
C 689.048566 428.721859 691.724044 427.61364 693.69641 425.641273 
C 695.668777 423.668907 696.776996 420.993429 696.776996 418.204083 
C 696.776996 415.414736 695.668777 412.739258 693.69641 410.766892 
C 691.724044 408.794526 689.048566 407.686306 686.25922 407.686306 
C 683.469873 407.686306 680.794395 408.794526 678.822029 410.766892 
C 676.849663 412.739258 675.741443 415.414736 675.741443 418.204083 
C 675.741443 420.993429 676.849663 423.668907 678.822029 425.641273 
C 680.794395 427.61364 683.469873 428.721859 686.25922 428.721859 
z
" clip-path="url(#pdc2a78766b)" style="fill: #be3c3a; fill-opacity: 0.92; stroke: #ffffff; stroke-opacity: 0.92; stroke-width: 0.55"/>
    <path d="M 695.584551 424.525018 
C 698.493107 424.525018 701.282927 423.369437 703.339587 421.312777 
C 705.396246 419.256118 706.551827 416.466298 706.551827 413.557742 
C 706.551827 410.649186 705.396246 407.859366 703.339587 405.802707 
C 701.282927 403.746047 698.493107 402.590466 695.584551 402.590466 
C 692.675995 402.590466 689.886175 403.746047 687.829516 405.802707 
C 685.772856 407.859366 684.617275 410.649186 684.617275 413.557742 
C 684.617275 416.466298 685.772856 419.256118 687.829516 421.312777 
C 689.886175 423.369437 692.675995 424.525018 695.584551 424.525018 
z
" clip-path="url(#pdc2a78766b)" style="fill: #be3c3a; fill-opacity: 0.92; stroke: #ffffff; stroke-opacity: 0.92; stroke-width: 0.55"/>
    <path d="M 585.186443 409.914095 
C 586.958648 409.914095 588.658507 409.20999 589.911645 407.956852 
C 591.164783 406.703714 591.868888 405.003855 591.868888 403.23165 
C 591.868888 401.459445 591.164783 399.759586 589.911645 398.506448 
C 588.658507 397.25331 586.958648 396.549205 585.186443 396.549205 
C 583.414238 396.549205 581.714379 397.25331 580.461241 398.506448 
C 579.208103 399.759586 578.503998 401.459445 578.503998 403.23165 
C 578.503998 405.003855 579.208103 406.703714 580.461241 407.956852 
C 581.714379 409.20999 583.414238 409.914095 585.186443 409.914095 
z
" clip-path="url(#pdc2a78766b)" style="fill: #be3c3a; fill-opacity: 0.92; stroke: #ffffff; stroke-opacity: 0.92; stroke-width: 0.55"/>
    <path d="M 659.648226 411.93816 
C 662.123585 411.93816 664.497894 410.95469 666.248238 409.204346 
C 667.998581 407.454002 668.982052 405.079694 668.982052 402.604334 
C 668.982052 400.128975 667.998581 397.754666 666.248238 396.004323 
C 664.497894 394.253979 662.123585 393.270508 659.648226 393.270508 
C 657.172866 393.270508 654.798558 394.253979 653.048214 396.004323 
C 651.297871 397.754666 650.3144 400.128975 650.3144 402.604334 
C 650.3144 405.079694 651.297871 407.454002 653.048214 409.204346 
C 654.798558 410.95469 657.172866 411.93816 659.648226 411.93816 
z
" clip-path="url(#pdc2a78766b)" style="fill: #be3c3a; fill-opacity: 0.92; stroke: #ffffff; stroke-opacity: 0.92; stroke-width: 0.55"/>
    <path d="M 656.30297 411.316165 
C 658.741446 411.316165 661.080377 410.347348 662.80464 408.623085 
C 664.528903 406.898822 665.497719 404.559892 665.497719 402.121416 
C 665.497719 399.68294 664.528903 397.344009 662.80464 395.619747 
C 661.080377 393.895484 658.741446 392.926667 656.30297 392.926667 
C 653.864494 392.926667 651.525564 393.895484 649.801301 395.619747 
C 648.077038 397.344009 647.108221 399.68294 647.108221 402.121416 
C 647.108221 404.559892 648.077038 406.898822 649.801301 408.623085 
C 651.525564 410.347348 653.864494 411.316165 656.30297 411.316165 
z
" clip-path="url(#pdc2a78766b)" style="fill: #be3c3a; fill-opacity: 0.92; stroke: #ffffff; stroke-opacity: 0.92; stroke-width: 0.55"/>
    <path d="M 604.283088 408.393081 
C 606.213868 408.393081 608.065829 407.625974 609.431097 406.260706 
C 610.796365 404.895438 611.563472 403.043478 611.563472 401.112697 
C 611.563472 399.181917 610.796365 397.329956 609.431097 395.964688 
C 608.065829 394.59942 606.213868 393.832313 604.283088 393.832313 
C 602.352307 393.832313 600.500347 394.59942 599.135079 395.964688 
C 597.769811 397.329956 597.002704 399.181917 597.002704 401.112697 
C 597.002704 403.043478 597.769811 404.895438 599.135079 406.260706 
C 600.500347 407.625974 602.352307 408.393081 604.283088 408.393081 
z
" clip-path="url(#pdc2a78766b)" style="fill: #be3c3a; fill-opacity: 0.92; stroke: #ffffff; stroke-opacity: 0.92; stroke-width: 0.55"/>
    <path d="M 635.652632 402.11188 
C 637.875283 402.11188 640.0072 401.228811 641.578853 399.657159 
C 643.150505 398.085507 644.033574 395.95359 644.033574 393.730938 
C 644.033574 391.508287 643.150505 389.37637 641.578853 387.804717 
C 640.0072 386.233065 637.875283 385.349996 635.652632 385.349996 
C 633.42998 385.349996 631.298063 386.233065 629.726411 387.804717 
C 628.154759 389.37637 627.27169 391.508287 627.27169 393.730938 
C 627.27169 395.95359 628.154759 398.085507 629.726411 399.657159 
C 631.298063 401.228811 633.42998 402.11188 635.652632 402.11188 
z
" clip-path="url(#pdc2a78766b)" style="fill: #be3c3a; fill-opacity: 0.92; stroke: #ffffff; stroke-opacity: 0.92; stroke-width: 0.55"/>
    <path d="M 656.854954 401.300386 
C 659.299478 401.300386 661.64421 400.329166 663.372749 398.600627 
C 665.101288 396.872088 666.072508 394.527356 666.072508 392.082832 
C 666.072508 389.638309 665.101288 387.293577 663.372749 385.565038 
C 661.64421 383.836498 659.299478 382.865279 656.854954 382.865279 
C 654.41043 382.865279 652.065699 383.836498 650.33716 385.565038 
C 648.60862 387.293577 647.637401 389.638309 647.637401 392.082832 
C 647.637401 394.527356 648.60862 396.872088 650.33716 398.600627 
C 652.065699 400.329166 654.41043 401.300386 656.854954 401.300386 
z
" clip-path="url(#pdc2a78766b)" style="fill: #be3c3a; fill-opacity: 0.92; stroke: #ffffff; stroke-opacity: 0.92; stroke-width: 0.55"/>
    <path d="M 671.994621 400.45973 
C 674.611003 400.45973 677.120577 399.42023 678.970638 397.570169 
C 680.820699 395.720107 681.860199 393.210533 681.860199 390.594151 
C 681.860199 387.97777 680.820699 385.468196 678.970638 383.618134 
C 677.120577 381.768073 674.611003 380.728573 671.994621 380.728573 
C 669.378239 380.728573 666.868665 381.768073 665.018603 383.618134 
C 663.168542 385.468196 662.129042 387.97777 662.129042 390.594151 
C 662.129042 393.210533 663.168542 395.720107 665.018603 397.570169 
C 666.868665 399.42023 669.378239 400.45973 671.994621 400.45973 
z
" clip-path="url(#pdc2a78766b)" style="fill: #be3c3a; fill-opacity: 0.92; stroke: #ffffff; stroke-opacity: 0.92; stroke-width: 0.55"/>
    <path d="M 647.411803 390.886356 
C 649.754897 390.886356 652.00234 389.955435 653.659158 388.298617 
C 655.315976 386.641799 656.246897 384.394357 656.246897 382.051262 
C 656.246897 379.708168 655.315976 377.460725 653.659158 375.803907 
C 652.00234 374.147089 649.754897 373.216168 647.411803 373.216168 
C 645.068708 373.216168 642.821266 374.147089 641.164448 375.803907 
C 639.50763 377.460725 638.576709 379.708168 638.576709 382.051262 
C 638.576709 384.394357 639.50763 386.641799 641.164448 388.298617 
C 642.821266 389.955435 645.068708 390.886356 647.411803 390.886356 
z
" clip-path="url(#pdc2a78766b)" style="fill: #be3c3a; fill-opacity: 0.92; stroke: #ffffff; stroke-opacity: 0.92; stroke-width: 0.55"/>
    <path d="M 637.505151 388.648389 
C 639.746357 388.648389 641.896072 387.757949 643.480844 386.173176 
C 645.065617 384.588403 645.956058 382.438689 645.956058 380.197482 
C 645.956058 377.956275 645.065617 375.806561 643.480844 374.221788 
C 641.896072 372.637015 639.746357 371.746574 637.505151 371.746574 
C 635.263944 371.746574 633.114229 372.637015 631.529457 374.221788 
C 629.944684 375.806561 629.054243 377.956275 629.054243 380.197482 
C 629.054243 382.438689 629.944684 384.588403 631.529457 386.173176 
C 633.114229 387.757949 635.263944 388.648389 637.505151 388.648389 
z
" clip-path="url(#pdc2a78766b)" style="fill: #be3c3a; fill-opacity: 0.92; stroke: #ffffff; stroke-opacity: 0.92; stroke-width: 0.55"/>
    <path d="M 627.792039 386.149591 
C 629.937651 386.149591 631.995674 385.29713 633.512851 383.779953 
C 635.030028 382.262775 635.882489 380.204753 635.882489 378.05914 
C 635.882489 375.913528 635.030028 373.855505 633.512851 372.338328 
C 631.995674 370.82115 629.937651 369.968689 627.792039 369.968689 
C 625.646426 369.968689 623.588403 370.82115 622.071226 372.338328 
C 620.554049 373.855505 619.701588 375.913528 619.701588 378.05914 
C 619.701588 380.204753 620.554049 382.262775 622.071226 383.779953 
C 623.588403 385.29713 625.646426 386.149591 627.792039 386.149591 
z
" clip-path="url(#pdc2a78766b)" style="fill: #be3c3a; fill-opacity: 0.92; stroke: #ffffff; stroke-opacity: 0.92; stroke-width: 0.55"/>
    <path d="M 663.68114 385.703721 
C 666.201708 385.703721 668.619379 384.702289 670.401689 382.919978 
C 672.184 381.137668 673.185432 378.719997 673.185432 376.199429 
C 673.185432 373.678862 672.184 371.261191 670.401689 369.47888 
C 668.619379 367.69657 666.201708 366.695138 663.68114 366.695138 
C 661.160572 366.695138 658.742901 367.69657 656.960591 369.47888 
C 655.17828 371.261191 654.176848 373.678862 654.176848 376.199429 
C 654.176848 378.719997 655.17828 381.137668 656.960591 382.919978 
C 658.742901 384.702289 661.160572 385.703721 663.68114 385.703721 
z
" clip-path="url(#pdc2a78766b)" style="fill: #be3c3a; fill-opacity: 0.92; stroke: #ffffff; stroke-opacity: 0.92; stroke-width: 0.55"/>
    <path d="M 628.711797 383.8561 
C 630.866284 383.8561 632.932819 383.000113 634.456271 381.476661 
C 635.979723 379.953208 636.83571 377.886673 636.83571 375.732186 
C 636.83571 373.577699 635.979723 371.511164 634.456271 369.987712 
C 632.932819 368.464259 630.866284 367.608273 628.711797 367.608273 
C 626.557309 367.608273 624.490775 368.464259 622.967322 369.987712 
C 621.44387 371.511164 620.587883 373.577699 620.587883 375.732186 
C 620.587883 377.886673 621.44387 379.953208 622.967322 381.476661 
C 624.490775 383.000113 626.557309 383.8561 628.711797 383.8561 
z
" clip-path="url(#pdc2a78766b)" style="fill: #be3c3a; fill-opacity: 0.92; stroke: #ffffff; stroke-opacity: 0.92; stroke-width: 0.55"/>
    <path d="M 656.744762 380.928417 
C 659.188077 380.928417 661.53165 379.957677 663.259334 378.229992 
C 664.987019 376.502308 665.957759 374.158735 665.957759 371.71542 
C 665.957759 369.272105 664.987019 366.928532 663.259334 365.200848 
C 661.53165 363.473163 659.188077 362.502423 656.744762 362.502423 
C 654.301447 362.502423 651.957874 363.473163 650.23019 365.200848 
C 648.502505 366.928532 647.531765 369.272105 647.531765 371.71542 
C 647.531765 374.158735 648.502505 376.502308 650.23019 378.229992 
C 651.957874 379.957677 654.301447 380.928417 656.744762 380.928417 
z
" clip-path="url(#pdc2a78766b)" style="fill: #d89a2b; fill-opacity: 0.92; stroke: #ffffff; stroke-opacity: 0.92; stroke-width: 0.55"/>
    <path d="M 713.112108 383.108582 
C 716.258683 383.108582 719.276807 381.858434 721.501772 379.633469 
C 723.726737 377.408504 724.976885 374.390381 724.976885 371.243805 
C 724.976885 368.097229 723.726737 365.079105 721.501772 362.85414 
C 719.276807 360.629175 716.258683 359.379027 713.112108 359.379027 
C 709.965532 359.379027 706.947408 360.629175 704.722443 362.85414 
C 702.497478 365.079105 701.24733 368.097229 701.24733 371.243805 
C 701.24733 374.390381 702.497478 377.408504 704.722443 379.633469 
C 706.947408 381.858434 709.965532 383.108582 713.112108 383.108582 
z
" clip-path="url(#pdc2a78766b)" style="fill: #d89a2b; fill-opacity: 0.92; stroke: #ffffff; stroke-opacity: 0.92; stroke-width: 0.55"/>
    <path d="M 685.79315 380.065099 
C 688.576669 380.065099 691.246557 378.959196 693.214802 376.990951 
C 695.183047 375.022706 696.288951 372.352818 696.288951 369.569299 
C 696.288951 366.78578 695.183047 364.115892 693.214802 362.147647 
C 691.246557 360.179402 688.576669 359.073499 685.79315 359.073499 
C 683.009632 359.073499 680.339744 360.179402 678.371499 362.147647 
C 676.403254 364.115892 675.29735 366.78578 675.29735 369.569299 
C 675.29735 372.352818 676.403254 375.022706 678.371499 376.990951 
C 680.339744 378.959196 683.009632 380.065099 685.79315 380.065099 
z
" clip-path="url(#pdc2a78766b)" style="fill: #d89a2b; fill-opacity: 0.92; stroke: #ffffff; stroke-opacity: 0.92; stroke-width: 0.55"/>
    <path d="M 622.441484 370.947602 
C 624.53619 370.947602 626.545385 370.115366 628.026567 368.634185 
C 629.507748 367.153003 630.339983 365.143809 630.339983 363.049102 
C 630.339983 360.954395 629.507748 358.945201 628.026567 357.464019 
C 626.545385 355.982838 624.53619 355.150602 622.441484 355.150602 
C 620.346777 355.150602 618.337582 355.982838 616.856401 357.464019 
C 615.37522 358.945201 614.542984 360.954395 614.542984 363.049102 
C 614.542984 365.143809 615.37522 367.153003 616.856401 368.634185 
C 618.337582 370.115366 620.346777 370.947602 622.441484 370.947602 
z
" clip-path="url(#pdc2a78766b)" style="fill: #d89a2b; fill-opacity: 0.92; stroke: #ffffff; stroke-opacity: 0.92; stroke-width: 0.55"/>
    <path d="M 615.763848 366.038019 
C 617.796713 366.038019 619.746591 365.230353 621.184044 363.7929 
C 622.621497 362.355447 623.429163 360.405569 623.429163 358.372704 
C 623.429163 356.339838 622.621497 354.38996 621.184044 352.952507 
C 619.746591 351.515054 617.796713 350.707388 615.763848 350.707388 
C 613.730982 350.707388 611.781104 351.515054 610.343651 352.952507 
C 608.906198 354.38996 608.098532 356.339838 608.098532 358.372704 
C 608.098532 360.405569 608.906198 362.355447 610.343651 363.7929 
C 611.781104 365.230353 613.730982 366.038019 615.763848 366.038019 
z
" clip-path="url(#pdc2a78766b)" style="fill: #d89a2b; fill-opacity: 0.92; stroke: #ffffff; stroke-opacity: 0.92; stroke-width: 0.55"/>
    <path d="M 615.889698 361.17558 
C 617.923712 361.17558 619.874691 360.367457 621.312956 358.929192 
C 622.751221 357.490927 623.559344 355.539947 623.559344 353.505934 
C 623.559344 351.47192 622.751221 349.52094 621.312956 348.082675 
C 619.874691 346.64441 617.923712 345.836288 615.889698 345.836288 
C 613.855684 345.836288 611.904704 346.64441 610.466439 348.082675 
C 609.028174 349.52094 608.220052 351.47192 608.220052 353.505934 
C 608.220052 355.539947 609.028174 357.490927 610.466439 358.929192 
C 611.904704 360.367457 613.855684 361.17558 615.889698 361.17558 
z
" clip-path="url(#pdc2a78766b)" style="fill: #d89a2b; fill-opacity: 0.92; stroke: #ffffff; stroke-opacity: 0.92; stroke-width: 0.55"/>
    <path d="M 667.756067 359.009586 
C 670.323153 359.009586 672.785442 357.989672 674.600646 356.174469 
C 676.415849 354.359265 677.435763 351.896975 677.435763 349.32989 
C 677.435763 346.762805 676.415849 344.300515 674.600646 342.485312 
C 672.785442 340.670108 670.323153 339.650195 667.756067 339.650195 
C 665.188982 339.650195 662.726692 340.670108 660.911489 342.485312 
C 659.096286 344.300515 658.076372 346.762805 658.076372 349.32989 
C 658.076372 351.896975 659.096286 354.359265 660.911489 356.174469 
C 662.726692 357.989672 665.188982 359.009586 667.756067 359.009586 
z
" clip-path="url(#pdc2a78766b)" style="fill: #2f6fad; fill-opacity: 0.92; stroke: #ffffff; stroke-opacity: 0.92; stroke-width: 0.55"/>
    <path d="M 613.620018 352.554962 
C 615.633419 352.554962 617.564628 351.755029 618.988318 350.331339 
C 620.412008 348.90765 621.211941 346.976441 621.211941 344.96304 
C 621.211941 342.949638 620.412008 341.018429 618.988318 339.59474 
C 617.564628 338.17105 615.633419 337.371117 613.620018 337.371117 
C 611.606617 337.371117 609.675408 338.17105 608.251718 339.59474 
C 606.828028 341.018429 606.028096 342.949638 606.028096 344.96304 
C 606.028096 346.976441 606.828028 348.90765 608.251718 350.331339 
C 609.675408 351.755029 611.606617 352.554962 613.620018 352.554962 
z
" clip-path="url(#pdc2a78766b)" style="fill: #2f6fad; fill-opacity: 0.92; stroke: #ffffff; stroke-opacity: 0.92; stroke-width: 0.55"/>
    <path d="M 599.198783 348.223634 
C 601.086008 348.223634 602.896192 347.473832 604.230661 346.139362 
C 605.565131 344.804893 606.314933 342.994709 606.314933 341.107484 
C 606.314933 339.220259 605.565131 337.410076 604.230661 336.075606 
C 602.896192 334.741137 601.086008 333.991334 599.198783 333.991334 
C 597.311558 333.991334 595.501375 334.741137 594.166905 336.075606 
C 592.832435 337.410076 592.082633 339.220259 592.082633 341.107484 
C 592.082633 342.994709 592.832435 344.804893 594.166905 346.139362 
C 595.501375 347.473832 597.311558 348.223634 599.198783 348.223634 
z
" clip-path="url(#pdc2a78766b)" style="fill: #2f6fad; fill-opacity: 0.92; stroke: #ffffff; stroke-opacity: 0.92; stroke-width: 0.55"/>
    <path d="M 643.59227 344.870211 
C 645.895544 344.870211 648.104791 343.95511 649.733452 342.326449 
C 651.362113 340.697789 652.277213 338.488541 652.277213 336.185267 
C 652.277213 333.881993 651.362113 331.672745 649.733452 330.044084 
C 648.104791 328.415424 645.895544 327.500323 643.59227 327.500323 
C 641.288996 327.500323 639.079748 328.415424 637.451087 330.044084 
C 635.822426 331.672745 634.907326 333.881993 634.907326 336.185267 
C 634.907326 338.488541 635.822426 340.697789 637.451087 342.326449 
C 639.079748 343.95511 641.288996 344.870211 643.59227 344.870211 
z
" clip-path="url(#pdc2a78766b)" style="fill: #2f6fad; fill-opacity: 0.92; stroke: #ffffff; stroke-opacity: 0.92; stroke-width: 0.55"/>
    <path d="M 541.204305 339.477973 
C 542.659073 339.477973 544.054453 338.899987 545.08313 337.871311 
C 546.111806 336.842634 546.689791 335.447254 546.689791 333.992486 
C 546.689791 332.537718 546.111806 331.142337 545.08313 330.113661 
C 544.054453 329.084984 542.659073 328.506999 541.204305 328.506999 
C 539.749536 328.506999 538.354156 329.084984 537.32548 330.113661 
C 536.296803 331.142337 535.718818 332.537718 535.718818 333.992486 
C 535.718818 335.447254 536.296803 336.842634 537.32548 337.871311 
C 538.354156 338.899987 539.749536 339.477973 541.204305 339.477973 
z
" clip-path="url(#pdc2a78766b)" style="fill: #2f6fad; fill-opacity: 0.92; stroke: #ffffff; stroke-opacity: 0.92; stroke-width: 0.55"/>
    <path d="M 659.600815 324.830908 
C 662.075648 324.830908 664.449452 323.847647 666.199423 322.097675 
C 667.949394 320.347704 668.932656 317.973901 668.932656 315.499068 
C 668.932656 313.024235 667.949394 310.650431 666.199423 308.90046 
C 664.449452 307.150489 662.075648 306.167228 659.600815 306.167228 
C 657.125982 306.167228 654.752179 307.150489 653.002208 308.90046 
C 651.252237 310.650431 650.268975 313.024235 650.268975 315.499068 
C 650.268975 317.973901 651.252237 320.347704 653.002208 322.097675 
C 654.752179 323.847647 657.125982 324.830908 659.600815 324.830908 
z
" clip-path="url(#pdc2a78766b)" style="fill: #2f6fad; fill-opacity: 0.92; stroke: #ffffff; stroke-opacity: 0.92; stroke-width: 0.55"/>
    <path d="M 732.468776 327.840591 
C 735.900908 327.840591 739.19293 326.476991 741.619813 324.050108 
C 744.046697 321.623224 745.410297 318.331202 745.410297 314.899071 
C 745.410297 311.46694 744.046697 308.174917 741.619813 305.748034 
C 739.19293 303.321151 735.900908 301.95755 732.468776 301.95755 
C 729.036645 301.95755 725.744623 303.321151 723.31774 305.748034 
C 720.890856 308.174917 719.527256 311.46694 719.527256 314.899071 
C 719.527256 318.331202 720.890856 321.623224 723.31774 324.050108 
C 725.744623 326.476991 729.036645 327.840591 732.468776 327.840591 
z
" clip-path="url(#pdc2a78766b)" style="fill: #2f6fad; fill-opacity: 0.92; stroke: #ffffff; stroke-opacity: 0.92; stroke-width: 0.55"/>
    <path d="M 662.647498 324.232989 
C 665.1564 324.232989 667.562883 323.236191 669.336945 321.462129 
C 671.111007 319.688067 672.107804 317.281585 672.107804 314.772682 
C 672.107804 312.26378 671.111007 309.857297 669.336945 308.083235 
C 667.562883 306.309173 665.1564 305.312376 662.647498 305.312376 
C 660.138595 305.312376 657.732113 306.309173 655.958051 308.083235 
C 654.183989 309.857297 653.187191 312.26378 653.187191 314.772682 
C 653.187191 317.281585 654.183989 319.688067 655.958051 321.462129 
C 657.732113 323.236191 660.138595 324.232989 662.647498 324.232989 
z
" clip-path="url(#pdc2a78766b)" style="fill: #2f6fad; fill-opacity: 0.92; stroke: #ffffff; stroke-opacity: 0.92; stroke-width: 0.55"/>
   </g>
   <g id="matplotlib.axis_5">
    <g id="xtick_9">
     <g id="line2d_49">
      <path d="M 569.38353 492.486553 
L 569.38353 314.156015 
" clip-path="url(#pdc2a78766b)" style="fill: none; stroke: #dde3e6; stroke-width: 0.55; stroke-linecap: square"/>
     </g>
     <g id="line2d_50">
      <g>
       <use xlink:href="#mb76784064f" x="569.38353" y="492.486553" style="stroke: #000000; stroke-width: 0.8"/>
      </g>
     </g>
     <g id="text_59">
      <!-- $\mathdefault{10^{4}}$ -->
      <g transform="translate(562.78353 505.185381)">
       <text>
        <tspan x="0" y="-0.857813" style="font-size: 7.5px; font-family: 'DejaVu Sans'">1</tspan>
        <tspan x="4.771729" y="-0.857813" style="font-size: 7.5px; font-family: 'DejaVu Sans'">0</tspan>
        <tspan x="9.62002" y="-3.920313" style="font-size: 5.25px; font-family: 'DejaVu Sans'">4</tspan>
       </text>
      </g>
     </g>
    </g>
    <g id="xtick_10">
     <g id="line2d_51">
      <path d="M 697.65593 492.486553 
L 697.65593 314.156015 
" clip-path="url(#pdc2a78766b)" style="fill: none; stroke: #dde3e6; stroke-width: 0.55; stroke-linecap: square"/>
     </g>
     <g id="line2d_52">
      <g>
       <use xlink:href="#mb76784064f" x="697.65593" y="492.486553" style="stroke: #000000; stroke-width: 0.8"/>
      </g>
     </g>
     <g id="text_60">
      <!-- $\mathdefault{10^{5}}$ -->
      <g transform="translate(691.05593 505.185381)">
       <text>
        <tspan x="0" y="-0.857813" style="font-size: 7.5px; font-family: 'DejaVu Sans'">1</tspan>
        <tspan x="4.771729" y="-0.857813" style="font-size: 7.5px; font-family: 'DejaVu Sans'">0</tspan>
        <tspan x="9.62002" y="-3.920313" style="font-size: 5.25px; font-family: 'DejaVu Sans'">5</tspan>
       </text>
      </g>
     </g>
    </g>
    <g id="xtick_11">
     <g id="line2d_53">
      <g>
       <use xlink:href="#md09ce3907f" x="540.926459" y="492.486553" style="stroke: #000000; stroke-width: 0.6"/>
      </g>
     </g>
    </g>
    <g id="xtick_12">
     <g id="line2d_54">
      <g>
       <use xlink:href="#md09ce3907f" x="549.513884" y="492.486553" style="stroke: #000000; stroke-width: 0.6"/>
      </g>
     </g>
    </g>
    <g id="xtick_13">
     <g id="line2d_55">
      <g>
       <use xlink:href="#md09ce3907f" x="556.95265" y="492.486553" style="stroke: #000000; stroke-width: 0.6"/>
      </g>
     </g>
    </g>
    <g id="xtick_14">
     <g id="line2d_56">
      <g>
       <use xlink:href="#md09ce3907f" x="563.514107" y="492.486553" style="stroke: #000000; stroke-width: 0.6"/>
      </g>
     </g>
    </g>
    <g id="xtick_15">
     <g id="line2d_57">
      <g>
       <use xlink:href="#md09ce3907f" x="607.99737" y="492.486553" style="stroke: #000000; stroke-width: 0.6"/>
      </g>
     </g>
    </g>
    <g id="xtick_16">
     <g id="line2d_58">
      <g>
       <use xlink:href="#md09ce3907f" x="630.585018" y="492.486553" style="stroke: #000000; stroke-width: 0.6"/>
      </g>
     </g>
    </g>
    <g id="xtick_17">
     <g id="line2d_59">
      <g>
       <use xlink:href="#md09ce3907f" x="646.61121" y="492.486553" style="stroke: #000000; stroke-width: 0.6"/>
      </g>
     </g>
    </g>
    <g id="xtick_18">
     <g id="line2d_60">
      <g>
       <use xlink:href="#md09ce3907f" x="659.04209" y="492.486553" style="stroke: #000000; stroke-width: 0.6"/>
      </g>
     </g>
    </g>
    <g id="xtick_19">
     <g id="line2d_61">
      <g>
       <use xlink:href="#md09ce3907f" x="669.198858" y="492.486553" style="stroke: #000000; stroke-width: 0.6"/>
      </g>
     </g>
    </g>
    <g id="xtick_20">
     <g id="line2d_62">
      <g>
       <use xlink:href="#md09ce3907f" x="677.786284" y="492.486553" style="stroke: #000000; stroke-width: 0.6"/>
      </g>
     </g>
    </g>
    <g id="xtick_21">
     <g id="line2d_63">
      <g>
       <use xlink:href="#md09ce3907f" x="685.22505" y="492.486553" style="stroke: #000000; stroke-width: 0.6"/>
      </g>
     </g>
    </g>
    <g id="xtick_22">
     <g id="line2d_64">
      <g>
       <use xlink:href="#md09ce3907f" x="691.786507" y="492.486553" style="stroke: #000000; stroke-width: 0.6"/>
      </g>
     </g>
    </g>
    <g id="xtick_23">
     <g id="line2d_65">
      <g>
       <use xlink:href="#md09ce3907f" x="736.26977" y="492.486553" style="stroke: #000000; stroke-width: 0.6"/>
      </g>
     </g>
    </g>
    <g id="text_61">
     <text style="font-size: 7.4px; font-family: 'DejaVu Sans'; text-anchor: middle" x="636.836541" y="516.367991" transform="rotate(-0 636.836541 516.367991)">Audited building records per city</text>
    </g>
   </g>
   <g id="matplotlib.axis_6">
    <g id="ytick_31">
     <g id="line2d_66">
      <path d="M 531.641081 422.561416 
L 742.032 422.561416 
" clip-path="url(#pdc2a78766b)" style="fill: none; stroke: #dde3e6; stroke-width: 0.55; stroke-linecap: square"/>
     </g>
     <g id="line2d_67">
      <defs>
       <path id="m708267dccc" d="M 0 0 
L -3.5 0 
" style="stroke: #000000; stroke-width: 0.8"/>
      </defs>
      <g>
       <use xlink:href="#m708267dccc" x="531.641081" y="422.561416" style="stroke: #000000; stroke-width: 0.8"/>
      </g>
     </g>
     <g id="text_62">
      <text style="font-size: 7.5px; font-family: 'DejaVu Sans'; text-anchor: end" x="524.641081" y="425.41083" transform="rotate(-0 524.641081 425.41083)">0</text>
     </g>
    </g>
    <g id="ytick_32">
     <g id="line2d_68">
      <path d="M 531.641081 401.956029 
L 742.032 401.956029 
" clip-path="url(#pdc2a78766b)" style="fill: none; stroke: #dde3e6; stroke-width: 0.55; stroke-linecap: square"/>
     </g>
     <g id="line2d_69">
      <g>
       <use xlink:href="#m708267dccc" x="531.641081" y="401.956029" style="stroke: #000000; stroke-width: 0.8"/>
      </g>
     </g>
     <g id="text_63">
      <text style="font-size: 7.5px; font-family: 'DejaVu Sans'; text-anchor: end" x="524.641081" y="404.805443" transform="rotate(-0 524.641081 404.805443)">0.1</text>
     </g>
    </g>
    <g id="ytick_33">
     <g id="line2d_70">
      <path d="M 531.641081 372.853243 
L 742.032 372.853243 
" clip-path="url(#pdc2a78766b)" style="fill: none; stroke: #dde3e6; stroke-width: 0.55; stroke-linecap: square"/>
     </g>
     <g id="line2d_71">
      <g>
       <use xlink:href="#m708267dccc" x="531.641081" y="372.853243" style="stroke: #000000; stroke-width: 0.8"/>
      </g>
     </g>
     <g id="text_64">
      <text style="font-size: 7.5px; font-family: 'DejaVu Sans'; text-anchor: end" x="524.641081" y="375.702657" transform="rotate(-0 524.641081 375.702657)">1</text>
     </g>
    </g>
    <g id="ytick_34">
     <g id="line2d_72">
      <path d="M 531.641081 352.511269 
L 742.032 352.511269 
" clip-path="url(#pdc2a78766b)" style="fill: none; stroke: #dde3e6; stroke-width: 0.55; stroke-linecap: square"/>
     </g>
     <g id="line2d_73">
      <g>
       <use xlink:href="#m708267dccc" x="531.641081" y="352.511269" style="stroke: #000000; stroke-width: 0.8"/>
      </g>
     </g>
     <g id="text_65">
      <text style="font-size: 7.5px; font-family: 'DejaVu Sans'; text-anchor: end" x="524.641081" y="355.360683" transform="rotate(-0 524.641081 355.360683)">5</text>
     </g>
    </g>
    <g id="ytick_35">
     <g id="line2d_74">
      <path d="M 531.641081 343.750457 
L 742.032 343.750457 
" clip-path="url(#pdc2a78766b)" style="fill: none; stroke: #dde3e6; stroke-width: 0.55; stroke-linecap: square"/>
     </g>
     <g id="line2d_75">
      <g>
       <use xlink:href="#m708267dccc" x="531.641081" y="343.750457" style="stroke: #000000; stroke-width: 0.8"/>
      </g>
     </g>
     <g id="text_66">
      <text style="font-size: 7.5px; font-family: 'DejaVu Sans'; text-anchor: end" x="524.641081" y="346.599871" transform="rotate(-0 524.641081 346.599871)">10</text>
     </g>
    </g>
    <g id="ytick_36">
     <g id="line2d_76">
      <path d="M 531.641081 323.408483 
L 742.032 323.408483 
" clip-path="url(#pdc2a78766b)" style="fill: none; stroke: #dde3e6; stroke-width: 0.55; stroke-linecap: square"/>
     </g>
     <g id="line2d_77">
      <g>
       <use xlink:href="#m708267dccc" x="531.641081" y="323.408483" style="stroke: #000000; stroke-width: 0.8"/>
      </g>
     </g>
     <g id="text_67">
      <text style="font-size: 7.5px; font-family: 'DejaVu Sans'; text-anchor: end" x="524.641081" y="326.257897" transform="rotate(-0 524.641081 326.257897)">50</text>
     </g>
    </g>
    <g id="ytick_37">
     <g id="line2d_78">
      <path d="M 531.641081 314.647671 
L 742.032 314.647671 
" clip-path="url(#pdc2a78766b)" style="fill: none; stroke: #dde3e6; stroke-width: 0.55; stroke-linecap: square"/>
     </g>
     <g id="line2d_79">
      <g>
       <use xlink:href="#m708267dccc" x="531.641081" y="314.647671" style="stroke: #000000; stroke-width: 0.8"/>
      </g>
     </g>
     <g id="text_68">
      <text style="font-size: 7.5px; font-family: 'DejaVu Sans'; text-anchor: end" x="524.641081" y="317.497085" transform="rotate(-0 524.641081 317.497085)">100</text>
     </g>
    </g>
    <g id="ytick_38">
     <g id="line2d_80">
      <defs>
       <path id="m9428f16b4e" d="M 0 0 
L -2 0 
" style="stroke: #000000; stroke-width: 0.6"/>
      </defs>
      <g>
       <use xlink:href="#m9428f16b4e" x="531.641081" y="472.26959" style="stroke: #000000; stroke-width: 0.6"/>
      </g>
     </g>
    </g>
    <g id="ytick_39">
     <g id="line2d_81">
      <g>
       <use xlink:href="#m9428f16b4e" x="531.641081" y="443.166804" style="stroke: #000000; stroke-width: 0.6"/>
      </g>
     </g>
    </g>
    <g id="ytick_40">
     <g id="line2d_82">
      <g>
       <use xlink:href="#m9428f16b4e" x="531.641081" y="424.784546" style="stroke: #000000; stroke-width: 0.6"/>
      </g>
     </g>
    </g>
    <g id="ytick_41">
     <g id="line2d_83">
      <g>
       <use xlink:href="#m9428f16b4e" x="531.641081" y="420.338287" style="stroke: #000000; stroke-width: 0.6"/>
      </g>
     </g>
    </g>
    <g id="text_69">
     <text style="font-size: 7.4px; font-family: 'DejaVu Sans'; text-anchor: middle" x="504.786487" y="403.321284" transform="rotate(-90 504.786487 403.321284)">Native height availability (%)</text>
    </g>
   </g>
   <g id="patch_10">
    <path d="M 531.641081 492.486553 
L 531.641081 314.156015 
" style="fill: none; stroke: #000000; stroke-width: 0.75; stroke-linejoin: miter; stroke-linecap: square"/>
   </g>
   <g id="patch_11">
    <path d="M 531.641081 492.486553 
L 742.032 492.486553 
" style="fill: none; stroke: #000000; stroke-width: 0.75; stroke-linejoin: miter; stroke-linecap: square"/>
   </g>
   <g id="text_70">
    <g id="patch_12">
     <path d="M 540.056718 334.011919 
L 629.019374 334.011919 
Q 631.203374 334.011919 631.203374 331.827919 
L 631.203374 315.544688 
Q 631.203374 313.360688 629.019374 313.360688 
L 540.056718 313.360688 
Q 537.872718 313.360688 537.872718 315.544688 
L 537.872718 331.827919 
Q 537.872718 334.011919 540.056718 334.011919 
z
" style="fill: #ffffff; stroke: #ccd3d8; stroke-width: 0.7; stroke-linejoin: miter"/>
    </g>
    <text style="font-size: 7.8px; font-family: 'DejaVu Sans'; fill: #1e2429" transform="translate(540.056718 321.471469)">Spearman rho = 0.002</text>
    <text style="font-size: 7.8px; font-family: 'DejaVu Sans'; fill: #1e2429" transform="translate(540.056718 330.205763)">p = 0.992</text>
   </g>
   <g id="text_71">
    <text style="font-size: 6.1px; font-family: 'DejaVu Sans'; text-anchor: start; fill: #6e7781" x="664.832405" y="314.772682" transform="rotate(-0 664.832405 314.772682)">Los Angeles</text>
   </g>
   <g id="text_72">
    <text style="font-size: 6.1px; font-family: 'DejaVu Sans'; text-anchor: start; fill: #6e7781" x="734.653684" y="314.899071" transform="rotate(-0 734.653684 314.899071)">New York</text>
   </g>
   <g id="text_73">
    <text style="font-size: 6.1px; font-family: 'DejaVu Sans'; text-anchor: start; fill: #6e7781" x="661.785723" y="315.499068" transform="rotate(-0 661.785723 315.499068)">Sao Paulo</text>
   </g>
   <g id="text_74">
    <text style="font-size: 6.1px; font-family: 'DejaVu Sans'; text-anchor: start; fill: #6e7781" x="558.718173" y="404.776381" transform="rotate(-0 558.718173 404.776381)">Fez</text>
   </g>
   <g id="text_75">
    <text style="font-weight: 700; font-size: 9.2px; font-family: 'DejaVu Sans'; text-anchor: start" x="531.641081" y="308.156015" transform="rotate(-0 531.641081 308.156015)">C. Mapped volume is not the mechanism</text>
   </g>
  </g>
  <g id="text_76">
   <text style="font-weight: 700; font-size: 13.5px; font-family: 'DejaVu Sans'; text-anchor: start; fill: #1e2429" x="7.2" y="17.516953" transform="rotate(-0 7.2 17.516953)">Fig. S13 | Thirty-city height-readiness headline</text>
  </g>
  <g id="text_77">
   <text style="font-size: 8.7px; font-family: 'DejaVu Sans'; text-anchor: start; fill: #26343f" x="7.2" y="37.216153" transform="rotate(-0 7.2 37.216153)">Mapped building volume does not imply native height availability for building-scale heat-adaptation screening.</text>
  </g>
 </g>
 <defs>
  <clipPath id="pfddd06423f">
   <rect x="65.52" y="54.726553" width="410.262292" height="437.76"/>
  </clipPath>
  <clipPath id="pdc2a78766b">
   <rect x="531.641081" y="314.156015" width="210.390919" height="178.330539"/>
  </clipPath>
 </defs>
</svg>
