<?xml version="1.0" encoding="utf-8" standalone="no"?>
<!DOCTYPE svg PUBLIC "-//W3C//DTD SVG 1.1//EN"
  "http://www.w3.org/Graphics/SVG/1.1/DTD/svg11.dtd">
<svg xmlns:xlink="http://www.w3.org/1999/xlink" width="529.771719pt" height="386.28pt" viewBox="0 0 529.771719 386.28" xmlns="http://www.w3.org/2000/svg" version="1.1">
 <metadata>
  <rdf:RDF xmlns:dc="http://purl.org/dc/elements/1.1/" xmlns:cc="http://creativecommons.org/ns#" xmlns:rdf="http://www.w3.org/1999/02/22-rdf-syntax-ns#">
   <cc:Work>
    <dc:type rdf:resource="http://purl.org/dc/dcmitype/StillImage"/>
    <dc:date>2026-06-04T16:23:34.967639</dc:date>
    <dc:format>image/svg+xml</dc:format>
    <dc:creator>
     <cc:Agent>
      <dc:title>Matplotlib v3.10.9, https://matplotlib.org/</dc:title>
     </cc:Agent>
    </dc:creator>
   </cc:Work>
  </rdf:RDF>
 </metadata>
 <defs>
  <style type="text/css">*{stroke-linejoin: round; stroke-linecap: butt}</style>
 </defs>
 <g id="figure_1">
  <g id="patch_1">
   <path d="M -0 386.28 
L 529.771719 386.28 
L 529.771719 0 
L -0 0 
z
" style="fill: #fafaf8"/>
  </g>
  <g id="axes_1">
   <g id="patch_2">
    <path d="M 33.691719 382.68 
L 526.171719 382.68 
L 526.171719 31.68 
L 33.691719 31.68 
z
" style="fill: #ffffff"/>
   </g>
   <g id="line2d_1">
    <path d="M 90.516334 292.912759 
L 469.347103 71.016207 
" clip-path="url(#p0d34f33ce0)" style="fill: none; stroke: #980c13; stroke-opacity: 0.6; stroke-width: 4.3; stroke-linecap: square"/>
   </g>
   <g id="line2d_2">
    <path d="M 90.516334 302.998966 
L 469.347103 202.136897 
" clip-path="url(#p0d34f33ce0)" style="fill: none; stroke: #f44f39; stroke-opacity: 0.6; stroke-width: 2.390909; stroke-linecap: square"/>
   </g>
   <g id="line2d_3">
    <path d="M 90.516334 212.223103 
L 469.347103 131.533448 
" clip-path="url(#p0d34f33ce0)" style="fill: none; stroke: #f96346; stroke-opacity: 0.6; stroke-width: 2.072727; stroke-linecap: square"/>
   </g>
   <g id="line2d_4">
    <path d="M 90.516334 232.395517 
L 469.347103 161.792069 
" clip-path="url(#p0d34f33ce0)" style="fill: none; stroke: #fb6d4d; stroke-opacity: 0.6; stroke-width: 1.913636; stroke-linecap: square"/>
   </g>
   <g id="line2d_5">
    <path d="M 90.516334 262.654138 
L 469.347103 192.05069 
" clip-path="url(#p0d34f33ce0)" style="fill: none; stroke: #fb6d4d; stroke-opacity: 0.6; stroke-width: 1.913636; stroke-linecap: square"/>
   </g>
   <g id="line2d_6">
    <path d="M 90.516334 202.136897 
L 469.347103 181.964483 
" clip-path="url(#p0d34f33ce0)" style="fill: none; stroke: #fc997a; stroke-opacity: 0.6; stroke-width: 1.118182; stroke-linecap: square"/>
   </g>
   <g id="line2d_7">
    <path d="M 90.516334 313.085172 
L 469.347103 313.085172 
" clip-path="url(#p0d34f33ce0)" style="fill: none; stroke: #b7d4ea; stroke-opacity: 0.6; stroke-width: 0.8; stroke-linecap: square"/>
   </g>
   <g id="line2d_8">
    <path d="M 90.516334 343.343793 
L 469.347103 343.343793 
" clip-path="url(#p0d34f33ce0)" style="fill: none; stroke: #b7d4ea; stroke-opacity: 0.6; stroke-width: 0.8; stroke-linecap: square"/>
   </g>
   <g id="line2d_9">
    <path d="M 90.516334 60.93 
L 469.347103 60.93 
" clip-path="url(#p0d34f33ce0)" style="fill: none; stroke: #b7d4ea; stroke-opacity: 0.6; stroke-width: 0.8; stroke-linecap: square"/>
   </g>
   <g id="line2d_10">
    <path d="M 90.516334 91.188621 
L 469.347103 91.188621 
" clip-path="url(#p0d34f33ce0)" style="fill: none; stroke: #b7d4ea; stroke-opacity: 0.6; stroke-width: 0.8; stroke-linecap: square"/>
   </g>
   <g id="line2d_11">
    <path d="M 90.516334 323.171379 
L 469.347103 323.171379 
" clip-path="url(#p0d34f33ce0)" style="fill: none; stroke: #b7d4ea; stroke-opacity: 0.6; stroke-width: 0.8; stroke-linecap: square"/>
   </g>
   <g id="line2d_12">
    <path d="M 90.516334 333.257586 
L 469.347103 333.257586 
" clip-path="url(#p0d34f33ce0)" style="fill: none; stroke: #b7d4ea; stroke-opacity: 0.6; stroke-width: 0.8; stroke-linecap: square"/>
   </g>
   <g id="line2d_13">
    <path d="M 90.516334 101.274828 
L 469.347103 111.361034 
" clip-path="url(#p0d34f33ce0)" style="fill: none; stroke: #aed1e7; stroke-opacity: 0.6; stroke-width: 0.959091; stroke-linecap: square"/>
   </g>
   <g id="line2d_14">
    <path d="M 90.516334 242.481724 
L 469.347103 252.567931 
" clip-path="url(#p0d34f33ce0)" style="fill: none; stroke: #aed1e7; stroke-opacity: 0.6; stroke-width: 0.959091; stroke-linecap: square"/>
   </g>
   <g id="line2d_15">
    <path d="M 90.516334 111.361034 
L 469.347103 121.447241 
" clip-path="url(#p0d34f33ce0)" style="fill: none; stroke: #aed1e7; stroke-opacity: 0.6; stroke-width: 0.959091; stroke-linecap: square"/>
   </g>
   <g id="line2d_16">
    <path d="M 90.516334 71.016207 
L 469.347103 81.102414 
" clip-path="url(#p0d34f33ce0)" style="fill: none; stroke: #aed1e7; stroke-opacity: 0.6; stroke-width: 0.959091; stroke-linecap: square"/>
   </g>
   <g id="line2d_17">
    <path d="M 90.516334 131.533448 
L 469.347103 151.705862 
" clip-path="url(#p0d34f33ce0)" style="fill: none; stroke: #a5cde3; stroke-opacity: 0.6; stroke-width: 1.118182; stroke-linecap: square"/>
   </g>
   <g id="line2d_18">
    <path d="M 90.516334 272.740345 
L 469.347103 292.912759 
" clip-path="url(#p0d34f33ce0)" style="fill: none; stroke: #a5cde3; stroke-opacity: 0.6; stroke-width: 1.118182; stroke-linecap: square"/>
   </g>
   <g id="line2d_19">
    <path d="M 90.516334 282.826552 
L 469.347103 302.998966 
" clip-path="url(#p0d34f33ce0)" style="fill: none; stroke: #a5cde3; stroke-opacity: 0.6; stroke-width: 1.118182; stroke-linecap: square"/>
   </g>
   <g id="line2d_20">
    <path d="M 90.516334 81.102414 
L 469.347103 101.274828 
" clip-path="url(#p0d34f33ce0)" style="fill: none; stroke: #a5cde3; stroke-opacity: 0.6; stroke-width: 1.118182; stroke-linecap: square"/>
   </g>
   <g id="line2d_21">
    <path d="M 90.516334 121.447241 
L 469.347103 141.619655 
" clip-path="url(#p0d34f33ce0)" style="fill: none; stroke: #a5cde3; stroke-opacity: 0.6; stroke-width: 1.118182; stroke-linecap: square"/>
   </g>
   <g id="line2d_22">
    <path d="M 90.516334 141.619655 
L 469.347103 171.878276 
" clip-path="url(#p0d34f33ce0)" style="fill: none; stroke: #9cc9e1; stroke-opacity: 0.6; stroke-width: 1.277273; stroke-linecap: square"/>
   </g>
   <g id="line2d_23">
    <path d="M 90.516334 252.567931 
L 469.347103 282.826552 
" clip-path="url(#p0d34f33ce0)" style="fill: none; stroke: #9cc9e1; stroke-opacity: 0.6; stroke-width: 1.277273; stroke-linecap: square"/>
   </g>
   <g id="line2d_24">
    <path d="M 90.516334 222.30931 
L 469.347103 262.654138 
" clip-path="url(#p0d34f33ce0)" style="fill: none; stroke: #91c3de; stroke-opacity: 0.6; stroke-width: 1.436364; stroke-linecap: square"/>
   </g>
   <g id="line2d_25">
    <path d="M 90.516334 181.964483 
L 469.347103 232.395517 
" clip-path="url(#p0d34f33ce0)" style="fill: none; stroke: #85bcdc; stroke-opacity: 0.6; stroke-width: 1.595455; stroke-linecap: square"/>
   </g>
   <g id="line2d_26">
    <path d="M 90.516334 161.792069 
L 469.347103 222.30931 
" clip-path="url(#p0d34f33ce0)" style="fill: none; stroke: #7ab6d9; stroke-opacity: 0.6; stroke-width: 1.754545; stroke-linecap: square"/>
   </g>
   <g id="line2d_27">
    <path d="M 90.516334 151.705862 
L 469.347103 212.223103 
" clip-path="url(#p0d34f33ce0)" style="fill: none; stroke: #7ab6d9; stroke-opacity: 0.6; stroke-width: 1.754545; stroke-linecap: square"/>
   </g>
   <g id="line2d_28">
    <path d="M 90.516334 171.878276 
L 469.347103 242.481724 
" clip-path="url(#p0d34f33ce0)" style="fill: none; stroke: #6fb0d7; stroke-opacity: 0.6; stroke-width: 1.913636; stroke-linecap: square"/>
   </g>
   <g id="line2d_29">
    <path d="M 90.516334 192.05069 
L 469.347103 272.740345 
" clip-path="url(#p0d34f33ce0)" style="fill: none; stroke: #65aad4; stroke-opacity: 0.6; stroke-width: 2.072727; stroke-linecap: square"/>
   </g>
   <g id="matplotlib.axis_1"/>
   <g id="matplotlib.axis_2">
    <g id="ytick_1">
     <g id="line2d_30">
      <defs>
       <path id="madc8f5177e" d="M 0 0 
L -3.5 0 
" style="stroke: #000000; stroke-width: 0.8"/>
      </defs>
      <g>
       <use xlink:href="#madc8f5177e" x="33.691719" y="353.43" style="stroke: #000000; stroke-width: 0.8"/>
      </g>
     </g>
     <g id="text_1">
      <!-- 0 -->
      <g transform="translate(22.799063 355.935234) scale(0.07 -0.07)">
       <defs>
        <path id="ArialMT-30" d="M 266 2259 
Q 266 3072 433 3567 
Q 600 4063 929 4331 
Q 1259 4600 1759 4600 
Q 2128 4600 2406 4451 
Q 2684 4303 2865 4023 
Q 3047 3744 3150 3342 
Q 3253 2941 3253 2259 
Q 3253 1453 3087 958 
Q 2922 463 2592 192 
Q 2263 -78 1759 -78 
Q 1097 -78 719 397 
Q 266 969 266 2259 
z
M 844 2259 
Q 844 1131 1108 757 
Q 1372 384 1759 384 
Q 2147 384 2411 759 
Q 2675 1134 2675 2259 
Q 2675 3391 2411 3762 
Q 2147 4134 1753 4134 
Q 1366 4134 1134 3806 
Q 844 3388 844 2259 
z
" transform="scale(0.015625)"/>
       </defs>
       <use xlink:href="#ArialMT-30"/>
      </g>
     </g>
    </g>
    <g id="ytick_2">
     <g id="line2d_31">
      <g>
       <use xlink:href="#madc8f5177e" x="33.691719" y="294.93" style="stroke: #000000; stroke-width: 0.8"/>
      </g>
     </g>
     <g id="text_2">
      <!-- 20 -->
      <g transform="translate(18.906406 297.435234) scale(0.07 -0.07)">
       <defs>
        <path id="ArialMT-32" d="M 3222 541 
L 3222 0 
L 194 0 
Q 188 203 259 391 
Q 375 700 629 1000 
Q 884 1300 1366 1694 
Q 2113 2306 2375 2664 
Q 2638 3022 2638 3341 
Q 2638 3675 2398 3904 
Q 2159 4134 1775 4134 
Q 1369 4134 1125 3890 
Q 881 3647 878 3216 
L 300 3275 
Q 359 3922 746 4261 
Q 1134 4600 1788 4600 
Q 2447 4600 2831 4234 
Q 3216 3869 3216 3328 
Q 3216 3053 3103 2787 
Q 2991 2522 2730 2228 
Q 2469 1934 1863 1422 
Q 1356 997 1212 845 
Q 1069 694 975 541 
L 3222 541 
z
" transform="scale(0.015625)"/>
       </defs>
       <use xlink:href="#ArialMT-32"/>
       <use xlink:href="#ArialMT-30" transform="translate(55.615234 0)"/>
      </g>
     </g>
    </g>
    <g id="ytick_3">
     <g id="line2d_32">
      <g>
       <use xlink:href="#madc8f5177e" x="33.691719" y="236.43" style="stroke: #000000; stroke-width: 0.8"/>
      </g>
     </g>
     <g id="text_3">
      <!-- 40 -->
      <g transform="translate(18.906406 238.935234) scale(0.07 -0.07)">
       <defs>
        <path id="ArialMT-34" d="M 2069 0 
L 2069 1097 
L 81 1097 
L 81 1613 
L 2172 4581 
L 2631 4581 
L 2631 1613 
L 3250 1613 
L 3250 1097 
L 2631 1097 
L 2631 0 
L 2069 0 
z
M 2069 1613 
L 2069 3678 
L 634 1613 
L 2069 1613 
z
" transform="scale(0.015625)"/>
       </defs>
       <use xlink:href="#ArialMT-34"/>
       <use xlink:href="#ArialMT-30" transform="translate(55.615234 0)"/>
      </g>
     </g>
    </g>
    <g id="ytick_4">
     <g id="line2d_33">
      <g>
       <use xlink:href="#madc8f5177e" x="33.691719" y="177.93" style="stroke: #000000; stroke-width: 0.8"/>
      </g>
     </g>
     <g id="text_4">
      <!-- 60 -->
      <g transform="translate(18.906406 180.435234) scale(0.07 -0.07)">
       <defs>
        <path id="ArialMT-36" d="M 3184 3459 
L 2625 3416 
Q 2550 3747 2413 3897 
Q 2184 4138 1850 4138 
Q 1581 4138 1378 3988 
Q 1113 3794 959 3422 
Q 806 3050 800 2363 
Q 1003 2672 1297 2822 
Q 1591 2972 1913 2972 
Q 2475 2972 2870 2558 
Q 3266 2144 3266 1488 
Q 3266 1056 3080 686 
Q 2894 316 2569 119 
Q 2244 -78 1831 -78 
Q 1128 -78 684 439 
Q 241 956 241 2144 
Q 241 3472 731 4075 
Q 1159 4600 1884 4600 
Q 2425 4600 2770 4297 
Q 3116 3994 3184 3459 
z
M 888 1484 
Q 888 1194 1011 928 
Q 1134 663 1356 523 
Q 1578 384 1822 384 
Q 2178 384 2434 671 
Q 2691 959 2691 1453 
Q 2691 1928 2437 2201 
Q 2184 2475 1800 2475 
Q 1419 2475 1153 2201 
Q 888 1928 888 1484 
z
" transform="scale(0.015625)"/>
       </defs>
       <use xlink:href="#ArialMT-36"/>
       <use xlink:href="#ArialMT-30" transform="translate(55.615234 0)"/>
      </g>
     </g>
    </g>
    <g id="ytick_5">
     <g id="line2d_34">
      <g>
       <use xlink:href="#madc8f5177e" x="33.691719" y="119.43" style="stroke: #000000; stroke-width: 0.8"/>
      </g>
     </g>
     <g id="text_5">
      <!-- 80 -->
      <g transform="translate(18.906406 121.935234) scale(0.07 -0.07)">
       <defs>
        <path id="ArialMT-38" d="M 1131 2484 
Q 781 2613 612 2850 
Q 444 3088 444 3419 
Q 444 3919 803 4259 
Q 1163 4600 1759 4600 
Q 2359 4600 2725 4251 
Q 3091 3903 3091 3403 
Q 3091 3084 2923 2848 
Q 2756 2613 2416 2484 
Q 2838 2347 3058 2040 
Q 3278 1734 3278 1309 
Q 3278 722 2862 322 
Q 2447 -78 1769 -78 
Q 1091 -78 675 323 
Q 259 725 259 1325 
Q 259 1772 486 2073 
Q 713 2375 1131 2484 
z
M 1019 3438 
Q 1019 3113 1228 2906 
Q 1438 2700 1772 2700 
Q 2097 2700 2305 2904 
Q 2513 3109 2513 3406 
Q 2513 3716 2298 3927 
Q 2084 4138 1766 4138 
Q 1444 4138 1231 3931 
Q 1019 3725 1019 3438 
z
M 838 1322 
Q 838 1081 952 856 
Q 1066 631 1291 507 
Q 1516 384 1775 384 
Q 2178 384 2440 643 
Q 2703 903 2703 1303 
Q 2703 1709 2433 1975 
Q 2163 2241 1756 2241 
Q 1359 2241 1098 1978 
Q 838 1716 838 1322 
z
" transform="scale(0.015625)"/>
       </defs>
       <use xlink:href="#ArialMT-38"/>
       <use xlink:href="#ArialMT-30" transform="translate(55.615234 0)"/>
      </g>
     </g>
    </g>
    <g id="ytick_6">
     <g id="line2d_35">
      <g>
       <use xlink:href="#madc8f5177e" x="33.691719" y="60.93" style="stroke: #000000; stroke-width: 0.8"/>
      </g>
     </g>
     <g id="text_6">
      <!-- 100 -->
      <g transform="translate(15.01375 63.435234) scale(0.07 -0.07)">
       <defs>
        <path id="ArialMT-31" d="M 2384 0 
L 1822 0 
L 1822 3584 
Q 1619 3391 1289 3197 
Q 959 3003 697 2906 
L 697 3450 
Q 1169 3672 1522 3987 
Q 1875 4303 2022 4600 
L 2384 4600 
L 2384 0 
z
" transform="scale(0.015625)"/>
       </defs>
       <use xlink:href="#ArialMT-31"/>
       <use xlink:href="#ArialMT-30" transform="translate(55.615234 0)"/>
       <use xlink:href="#ArialMT-30" transform="translate(111.230469 0)"/>
      </g>
     </g>
    </g>
    <g id="text_7">
     <!-- CNMI percentile -->
     <g transform="translate(9.42375 235.854375) rotate(-90) scale(0.08 -0.08)">
      <defs>
       <path id="ArialMT-43" d="M 3763 1606 
L 4369 1453 
Q 4178 706 3683 314 
Q 3188 -78 2472 -78 
Q 1731 -78 1267 223 
Q 803 525 561 1097 
Q 319 1669 319 2325 
Q 319 3041 592 3573 
Q 866 4106 1370 4382 
Q 1875 4659 2481 4659 
Q 3169 4659 3637 4309 
Q 4106 3959 4291 3325 
L 3694 3184 
Q 3534 3684 3231 3912 
Q 2928 4141 2469 4141 
Q 1941 4141 1586 3887 
Q 1231 3634 1087 3207 
Q 944 2781 944 2328 
Q 944 1744 1114 1308 
Q 1284 872 1643 656 
Q 2003 441 2422 441 
Q 2931 441 3284 734 
Q 3638 1028 3763 1606 
z
" transform="scale(0.015625)"/>
       <path id="ArialMT-4e" d="M 488 0 
L 488 4581 
L 1109 4581 
L 3516 984 
L 3516 4581 
L 4097 4581 
L 4097 0 
L 3475 0 
L 1069 3600 
L 1069 0 
L 488 0 
z
" transform="scale(0.015625)"/>
       <path id="ArialMT-4d" d="M 475 0 
L 475 4581 
L 1388 4581 
L 2472 1338 
Q 2622 884 2691 659 
Q 2769 909 2934 1394 
L 4031 4581 
L 4847 4581 
L 4847 0 
L 4263 0 
L 4263 3834 
L 2931 0 
L 2384 0 
L 1059 3900 
L 1059 0 
L 475 0 
z
" transform="scale(0.015625)"/>
       <path id="ArialMT-49" d="M 597 0 
L 597 4581 
L 1203 4581 
L 1203 0 
L 597 0 
z
" transform="scale(0.015625)"/>
       <path id="ArialMT-20" transform="scale(0.015625)"/>
       <path id="ArialMT-70" d="M 422 -1272 
L 422 3319 
L 934 3319 
L 934 2888 
Q 1116 3141 1344 3267 
Q 1572 3394 1897 3394 
Q 2322 3394 2647 3175 
Q 2972 2956 3137 2557 
Q 3303 2159 3303 1684 
Q 3303 1175 3120 767 
Q 2938 359 2589 142 
Q 2241 -75 1856 -75 
Q 1575 -75 1351 44 
Q 1128 163 984 344 
L 984 -1272 
L 422 -1272 
z
M 931 1641 
Q 931 1000 1190 694 
Q 1450 388 1819 388 
Q 2194 388 2461 705 
Q 2728 1022 2728 1688 
Q 2728 2322 2467 2637 
Q 2206 2953 1844 2953 
Q 1484 2953 1207 2617 
Q 931 2281 931 1641 
z
" transform="scale(0.015625)"/>
       <path id="ArialMT-65" d="M 2694 1069 
L 3275 997 
Q 3138 488 2766 206 
Q 2394 -75 1816 -75 
Q 1088 -75 661 373 
Q 234 822 234 1631 
Q 234 2469 665 2931 
Q 1097 3394 1784 3394 
Q 2450 3394 2872 2941 
Q 3294 2488 3294 1666 
Q 3294 1616 3291 1516 
L 816 1516 
Q 847 969 1125 678 
Q 1403 388 1819 388 
Q 2128 388 2347 550 
Q 2566 713 2694 1069 
z
M 847 1978 
L 2700 1978 
Q 2663 2397 2488 2606 
Q 2219 2931 1791 2931 
Q 1403 2931 1139 2672 
Q 875 2413 847 1978 
z
" transform="scale(0.015625)"/>
       <path id="ArialMT-72" d="M 416 0 
L 416 3319 
L 922 3319 
L 922 2816 
Q 1116 3169 1280 3281 
Q 1444 3394 1641 3394 
Q 1925 3394 2219 3213 
L 2025 2691 
Q 1819 2813 1613 2813 
Q 1428 2813 1281 2702 
Q 1134 2591 1072 2394 
Q 978 2094 978 1738 
L 978 0 
L 416 0 
z
" transform="scale(0.015625)"/>
       <path id="ArialMT-63" d="M 2588 1216 
L 3141 1144 
Q 3050 572 2676 248 
Q 2303 -75 1759 -75 
Q 1078 -75 664 370 
Q 250 816 250 1647 
Q 250 2184 428 2587 
Q 606 2991 970 3192 
Q 1334 3394 1763 3394 
Q 2303 3394 2647 3120 
Q 2991 2847 3088 2344 
L 2541 2259 
Q 2463 2594 2264 2762 
Q 2066 2931 1784 2931 
Q 1359 2931 1093 2626 
Q 828 2322 828 1663 
Q 828 994 1084 691 
Q 1341 388 1753 388 
Q 2084 388 2306 591 
Q 2528 794 2588 1216 
z
" transform="scale(0.015625)"/>
       <path id="ArialMT-6e" d="M 422 0 
L 422 3319 
L 928 3319 
L 928 2847 
Q 1294 3394 1984 3394 
Q 2284 3394 2536 3286 
Q 2788 3178 2913 3003 
Q 3038 2828 3088 2588 
Q 3119 2431 3119 2041 
L 3119 0 
L 2556 0 
L 2556 2019 
Q 2556 2363 2490 2533 
Q 2425 2703 2258 2804 
Q 2091 2906 1866 2906 
Q 1506 2906 1245 2678 
Q 984 2450 984 1813 
L 984 0 
L 422 0 
z
" transform="scale(0.015625)"/>
       <path id="ArialMT-74" d="M 1650 503 
L 1731 6 
Q 1494 -44 1306 -44 
Q 1000 -44 831 53 
Q 663 150 594 308 
Q 525 466 525 972 
L 525 2881 
L 113 2881 
L 113 3319 
L 525 3319 
L 525 4141 
L 1084 4478 
L 1084 3319 
L 1650 3319 
L 1650 2881 
L 1084 2881 
L 1084 941 
Q 1084 700 1114 631 
Q 1144 563 1211 522 
Q 1278 481 1403 481 
Q 1497 481 1650 503 
z
" transform="scale(0.015625)"/>
       <path id="ArialMT-69" d="M 425 3934 
L 425 4581 
L 988 4581 
L 988 3934 
L 425 3934 
z
M 425 0 
L 425 3319 
L 988 3319 
L 988 0 
L 425 0 
z
" transform="scale(0.015625)"/>
       <path id="ArialMT-6c" d="M 409 0 
L 409 4581 
L 972 4581 
L 972 0 
L 409 0 
z
" transform="scale(0.015625)"/>
      </defs>
      <use xlink:href="#ArialMT-43"/>
      <use xlink:href="#ArialMT-4e" transform="translate(72.216797 0)"/>
      <use xlink:href="#ArialMT-4d" transform="translate(144.433594 0)"/>
      <use xlink:href="#ArialMT-49" transform="translate(227.734375 0)"/>
      <use xlink:href="#ArialMT-20" transform="translate(255.517578 0)"/>
      <use xlink:href="#ArialMT-70" transform="translate(283.300781 0)"/>
      <use xlink:href="#ArialMT-65" transform="translate(338.916016 0)"/>
      <use xlink:href="#ArialMT-72" transform="translate(394.53125 0)"/>
      <use xlink:href="#ArialMT-63" transform="translate(427.832031 0)"/>
      <use xlink:href="#ArialMT-65" transform="translate(477.832031 0)"/>
      <use xlink:href="#ArialMT-6e" transform="translate(533.447266 0)"/>
      <use xlink:href="#ArialMT-74" transform="translate(589.0625 0)"/>
      <use xlink:href="#ArialMT-69" transform="translate(616.845703 0)"/>
      <use xlink:href="#ArialMT-6c" transform="translate(639.0625 0)"/>
      <use xlink:href="#ArialMT-65" transform="translate(661.279297 0)"/>
     </g>
    </g>
   </g>
   <g id="patch_3">
    <path d="M 33.691719 382.68 
L 33.691719 31.68 
" style="fill: none; stroke: #8c8c8c; stroke-width: 0.8; stroke-linejoin: miter; stroke-linecap: square"/>
   </g>
   <g id="patch_4">
    <path d="M 526.171719 382.68 
L 526.171719 31.68 
" style="fill: none; stroke: #8c8c8c; stroke-width: 0.8; stroke-linejoin: miter; stroke-linecap: square"/>
   </g>
   <g id="PathCollection_1">
    <defs>
     <path id="m32438dd979" d="M 0 2.738613 
C 0.726289 2.738613 1.422928 2.450055 1.936492 1.936492 
C 2.450055 1.422928 2.738613 0.726289 2.738613 0 
C 2.738613 -0.726289 2.450055 -1.422928 1.936492 -1.936492 
C 1.422928 -2.450055 0.726289 -2.738613 0 -2.738613 
C -0.726289 -2.738613 -1.422928 -2.450055 -1.936492 -1.936492 
C -2.450055 -1.422928 -2.738613 -0.726289 -2.738613 0 
C -2.738613 0.726289 -2.450055 1.422928 -1.936492 1.936492 
C -1.422928 2.450055 -0.726289 2.738613 0 2.738613 
z
" style="stroke: #ffffff; stroke-width: 0.5"/>
    </defs>
    <g clip-path="url(#p0d34f33ce0)">
     <use xlink:href="#m32438dd979" x="90.516334" y="292.912759" style="fill: #2c5f7c; stroke: #ffffff; stroke-width: 0.5"/>
     <use xlink:href="#m32438dd979" x="90.516334" y="302.998966" style="fill: #2c5f7c; stroke: #ffffff; stroke-width: 0.5"/>
     <use xlink:href="#m32438dd979" x="90.516334" y="212.223103" style="fill: #2c5f7c; stroke: #ffffff; stroke-width: 0.5"/>
     <use xlink:href="#m32438dd979" x="90.516334" y="232.395517" style="fill: #2c5f7c; stroke: #ffffff; stroke-width: 0.5"/>
     <use xlink:href="#m32438dd979" x="90.516334" y="262.654138" style="fill: #2c5f7c; stroke: #ffffff; stroke-width: 0.5"/>
     <use xlink:href="#m32438dd979" x="90.516334" y="202.136897" style="fill: #2c5f7c; stroke: #ffffff; stroke-width: 0.5"/>
     <use xlink:href="#m32438dd979" x="90.516334" y="313.085172" style="fill: #2c5f7c; stroke: #ffffff; stroke-width: 0.5"/>
     <use xlink:href="#m32438dd979" x="90.516334" y="343.343793" style="fill: #2c5f7c; stroke: #ffffff; stroke-width: 0.5"/>
     <use xlink:href="#m32438dd979" x="90.516334" y="60.93" style="fill: #2c5f7c; stroke: #ffffff; stroke-width: 0.5"/>
     <use xlink:href="#m32438dd979" x="90.516334" y="91.188621" style="fill: #2c5f7c; stroke: #ffffff; stroke-width: 0.5"/>
     <use xlink:href="#m32438dd979" x="90.516334" y="323.171379" style="fill: #2c5f7c; stroke: #ffffff; stroke-width: 0.5"/>
     <use xlink:href="#m32438dd979" x="90.516334" y="333.257586" style="fill: #2c5f7c; stroke: #ffffff; stroke-width: 0.5"/>
     <use xlink:href="#m32438dd979" x="90.516334" y="101.274828" style="fill: #2c5f7c; stroke: #ffffff; stroke-width: 0.5"/>
     <use xlink:href="#m32438dd979" x="90.516334" y="242.481724" style="fill: #2c5f7c; stroke: #ffffff; stroke-width: 0.5"/>
     <use xlink:href="#m32438dd979" x="90.516334" y="111.361034" style="fill: #2c5f7c; stroke: #ffffff; stroke-width: 0.5"/>
     <use xlink:href="#m32438dd979" x="90.516334" y="71.016207" style="fill: #2c5f7c; stroke: #ffffff; stroke-width: 0.5"/>
     <use xlink:href="#m32438dd979" x="90.516334" y="131.533448" style="fill: #2c5f7c; stroke: #ffffff; stroke-width: 0.5"/>
     <use xlink:href="#m32438dd979" x="90.516334" y="272.740345" style="fill: #2c5f7c; stroke: #ffffff; stroke-width: 0.5"/>
     <use xlink:href="#m32438dd979" x="90.516334" y="282.826552" style="fill: #2c5f7c; stroke: #ffffff; stroke-width: 0.5"/>
     <use xlink:href="#m32438dd979" x="90.516334" y="81.102414" style="fill: #2c5f7c; stroke: #ffffff; stroke-width: 0.5"/>
     <use xlink:href="#m32438dd979" x="90.516334" y="121.447241" style="fill: #2c5f7c; stroke: #ffffff; stroke-width: 0.5"/>
     <use xlink:href="#m32438dd979" x="90.516334" y="141.619655" style="fill: #2c5f7c; stroke: #ffffff; stroke-width: 0.5"/>
     <use xlink:href="#m32438dd979" x="90.516334" y="252.567931" style="fill: #2c5f7c; stroke: #ffffff; stroke-width: 0.5"/>
     <use xlink:href="#m32438dd979" x="90.516334" y="222.30931" style="fill: #2c5f7c; stroke: #ffffff; stroke-width: 0.5"/>
     <use xlink:href="#m32438dd979" x="90.516334" y="181.964483" style="fill: #2c5f7c; stroke: #ffffff; stroke-width: 0.5"/>
     <use xlink:href="#m32438dd979" x="90.516334" y="161.792069" style="fill: #2c5f7c; stroke: #ffffff; stroke-width: 0.5"/>
     <use xlink:href="#m32438dd979" x="90.516334" y="151.705862" style="fill: #2c5f7c; stroke: #ffffff; stroke-width: 0.5"/>
     <use xlink:href="#m32438dd979" x="90.516334" y="171.878276" style="fill: #2c5f7c; stroke: #ffffff; stroke-width: 0.5"/>
     <use xlink:href="#m32438dd979" x="90.516334" y="192.05069" style="fill: #2c5f7c; stroke: #ffffff; stroke-width: 0.5"/>
    </g>
   </g>
   <g id="PathCollection_2">
    <defs>
     <path id="mc226452831" d="M 0 2.738613 
C 0.726289 2.738613 1.422928 2.450055 1.936492 1.936492 
C 2.450055 1.422928 2.738613 0.726289 2.738613 0 
C 2.738613 -0.726289 2.450055 -1.422928 1.936492 -1.936492 
C 1.422928 -2.450055 0.726289 -2.738613 0 -2.738613 
C -0.726289 -2.738613 -1.422928 -2.450055 -1.936492 -1.936492 
C -2.450055 -1.422928 -2.738613 -0.726289 -2.738613 0 
C -2.738613 0.726289 -2.450055 1.422928 -1.936492 1.936492 
C -1.422928 2.450055 -0.726289 2.738613 0 2.738613 
z
" style="stroke: #ffffff; stroke-width: 0.5"/>
    </defs>
    <g clip-path="url(#p0d34f33ce0)">
     <use xlink:href="#mc226452831" x="469.347103" y="71.016207" style="fill: #b33a3a; stroke: #ffffff; stroke-width: 0.5"/>
     <use xlink:href="#mc226452831" x="469.347103" y="202.136897" style="fill: #b33a3a; stroke: #ffffff; stroke-width: 0.5"/>
     <use xlink:href="#mc226452831" x="469.347103" y="131.533448" style="fill: #b33a3a; stroke: #ffffff; stroke-width: 0.5"/>
     <use xlink:href="#mc226452831" x="469.347103" y="161.792069" style="fill: #b33a3a; stroke: #ffffff; stroke-width: 0.5"/>
     <use xlink:href="#mc226452831" x="469.347103" y="192.05069" style="fill: #b33a3a; stroke: #ffffff; stroke-width: 0.5"/>
     <use xlink:href="#mc226452831" x="469.347103" y="181.964483" style="fill: #b33a3a; stroke: #ffffff; stroke-width: 0.5"/>
     <use xlink:href="#mc226452831" x="469.347103" y="313.085172" style="fill: #b33a3a; stroke: #ffffff; stroke-width: 0.5"/>
     <use xlink:href="#mc226452831" x="469.347103" y="343.343793" style="fill: #b33a3a; stroke: #ffffff; stroke-width: 0.5"/>
     <use xlink:href="#mc226452831" x="469.347103" y="60.93" style="fill: #b33a3a; stroke: #ffffff; stroke-width: 0.5"/>
     <use xlink:href="#mc226452831" x="469.347103" y="91.188621" style="fill: #b33a3a; stroke: #ffffff; stroke-width: 0.5"/>
     <use xlink:href="#mc226452831" x="469.347103" y="323.171379" style="fill: #b33a3a; stroke: #ffffff; stroke-width: 0.5"/>
     <use xlink:href="#mc226452831" x="469.347103" y="333.257586" style="fill: #b33a3a; stroke: #ffffff; stroke-width: 0.5"/>
     <use xlink:href="#mc226452831" x="469.347103" y="111.361034" style="fill: #b33a3a; stroke: #ffffff; stroke-width: 0.5"/>
     <use xlink:href="#mc226452831" x="469.347103" y="252.567931" style="fill: #b33a3a; stroke: #ffffff; stroke-width: 0.5"/>
     <use xlink:href="#mc226452831" x="469.347103" y="121.447241" style="fill: #b33a3a; stroke: #ffffff; stroke-width: 0.5"/>
     <use xlink:href="#mc226452831" x="469.347103" y="81.102414" style="fill: #b33a3a; stroke: #ffffff; stroke-width: 0.5"/>
     <use xlink:href="#mc226452831" x="469.347103" y="151.705862" style="fill: #b33a3a; stroke: #ffffff; stroke-width: 0.5"/>
     <use xlink:href="#mc226452831" x="469.347103" y="292.912759" style="fill: #b33a3a; stroke: #ffffff; stroke-width: 0.5"/>
     <use xlink:href="#mc226452831" x="469.347103" y="302.998966" style="fill: #b33a3a; stroke: #ffffff; stroke-width: 0.5"/>
     <use xlink:href="#mc226452831" x="469.347103" y="101.274828" style="fill: #b33a3a; stroke: #ffffff; stroke-width: 0.5"/>
     <use xlink:href="#mc226452831" x="469.347103" y="141.619655" style="fill: #b33a3a; stroke: #ffffff; stroke-width: 0.5"/>
     <use xlink:href="#mc226452831" x="469.347103" y="171.878276" style="fill: #b33a3a; stroke: #ffffff; stroke-width: 0.5"/>
     <use xlink:href="#mc226452831" x="469.347103" y="282.826552" style="fill: #b33a3a; stroke: #ffffff; stroke-width: 0.5"/>
     <use xlink:href="#mc226452831" x="469.347103" y="262.654138" style="fill: #b33a3a; stroke: #ffffff; stroke-width: 0.5"/>
     <use xlink:href="#mc226452831" x="469.347103" y="232.395517" style="fill: #b33a3a; stroke: #ffffff; stroke-width: 0.5"/>
     <use xlink:href="#mc226452831" x="469.347103" y="222.30931" style="fill: #b33a3a; stroke: #ffffff; stroke-width: 0.5"/>
     <use xlink:href="#mc226452831" x="469.347103" y="212.223103" style="fill: #b33a3a; stroke: #ffffff; stroke-width: 0.5"/>
     <use xlink:href="#mc226452831" x="469.347103" y="242.481724" style="fill: #b33a3a; stroke: #ffffff; stroke-width: 0.5"/>
     <use xlink:href="#mc226452831" x="469.347103" y="272.740345" style="fill: #b33a3a; stroke: #ffffff; stroke-width: 0.5"/>
    </g>
   </g>
   <g id="text_8">
    <!-- Jakarta -->
    <g style="fill: #b33a3a" transform="translate(476.923719 72.44191) scale(0.055 -0.055)">
     <defs>
      <path id="Arial-BoldMT-4a" d="M 2119 4581 
L 3041 4581 
L 3041 1681 
Q 3041 1113 2941 806 
Q 2806 406 2453 164 
Q 2100 -78 1522 -78 
Q 844 -78 478 301 
Q 113 681 109 1416 
L 981 1516 
Q 997 1122 1097 959 
Q 1247 713 1553 713 
Q 1863 713 1991 889 
Q 2119 1066 2119 1622 
L 2119 4581 
z
" transform="scale(0.015625)"/>
      <path id="Arial-BoldMT-61" d="M 1116 2306 
L 319 2450 
Q 453 2931 781 3162 
Q 1109 3394 1756 3394 
Q 2344 3394 2631 3255 
Q 2919 3116 3036 2902 
Q 3153 2688 3153 2116 
L 3144 1091 
Q 3144 653 3186 445 
Q 3228 238 3344 0 
L 2475 0 
Q 2441 88 2391 259 
Q 2369 338 2359 363 
Q 2134 144 1878 34 
Q 1622 -75 1331 -75 
Q 819 -75 523 203 
Q 228 481 228 906 
Q 228 1188 362 1408 
Q 497 1628 739 1745 
Q 981 1863 1438 1950 
Q 2053 2066 2291 2166 
L 2291 2253 
Q 2291 2506 2166 2614 
Q 2041 2722 1694 2722 
Q 1459 2722 1328 2630 
Q 1197 2538 1116 2306 
z
M 2291 1594 
Q 2122 1538 1756 1459 
Q 1391 1381 1278 1306 
Q 1106 1184 1106 997 
Q 1106 813 1243 678 
Q 1381 544 1594 544 
Q 1831 544 2047 700 
Q 2206 819 2256 991 
Q 2291 1103 2291 1419 
L 2291 1594 
z
" transform="scale(0.015625)"/>
      <path id="Arial-BoldMT-6b" d="M 428 0 
L 428 4581 
L 1306 4581 
L 1306 2150 
L 2334 3319 
L 3416 3319 
L 2281 2106 
L 3497 0 
L 2550 0 
L 1716 1491 
L 1306 1063 
L 1306 0 
L 428 0 
z
" transform="scale(0.015625)"/>
      <path id="Arial-BoldMT-72" d="M 1300 0 
L 422 0 
L 422 3319 
L 1238 3319 
L 1238 2847 
Q 1447 3181 1614 3287 
Q 1781 3394 1994 3394 
Q 2294 3394 2572 3228 
L 2300 2463 
Q 2078 2606 1888 2606 
Q 1703 2606 1575 2504 
Q 1447 2403 1373 2137 
Q 1300 1872 1300 1025 
L 1300 0 
z
" transform="scale(0.015625)"/>
      <path id="Arial-BoldMT-74" d="M 1981 3319 
L 1981 2619 
L 1381 2619 
L 1381 1281 
Q 1381 875 1398 808 
Q 1416 741 1477 697 
Q 1538 653 1625 653 
Q 1747 653 1978 738 
L 2053 56 
Q 1747 -75 1359 -75 
Q 1122 -75 931 4 
Q 741 84 652 211 
Q 563 338 528 553 
Q 500 706 500 1172 
L 500 2619 
L 97 2619 
L 97 3319 
L 500 3319 
L 500 3978 
L 1381 4491 
L 1381 3319 
L 1981 3319 
z
" transform="scale(0.015625)"/>
     </defs>
     <use xlink:href="#Arial-BoldMT-4a"/>
     <use xlink:href="#Arial-BoldMT-61" transform="translate(55.615234 0)"/>
     <use xlink:href="#Arial-BoldMT-6b" transform="translate(111.230469 0)"/>
     <use xlink:href="#Arial-BoldMT-61" transform="translate(166.845703 0)"/>
     <use xlink:href="#Arial-BoldMT-72" transform="translate(222.460938 0)"/>
     <use xlink:href="#Arial-BoldMT-74" transform="translate(261.376953 0)"/>
     <use xlink:href="#Arial-BoldMT-61" transform="translate(294.677734 0)"/>
    </g>
   </g>
   <g id="text_9">
    <!-- Kinshasa -->
    <g style="fill: #b33a3a" transform="translate(476.923719 203.5626) scale(0.055 -0.055)">
     <defs>
      <path id="Arial-BoldMT-4b" d="M 478 0 
L 478 4581 
L 1403 4581 
L 1403 2547 
L 3272 4581 
L 4516 4581 
L 2791 2797 
L 4609 0 
L 3413 0 
L 2153 2150 
L 1403 1384 
L 1403 0 
L 478 0 
z
" transform="scale(0.015625)"/>
      <path id="Arial-BoldMT-69" d="M 459 3769 
L 459 4581 
L 1338 4581 
L 1338 3769 
L 459 3769 
z
M 459 0 
L 459 3319 
L 1338 3319 
L 1338 0 
L 459 0 
z
" transform="scale(0.015625)"/>
      <path id="Arial-BoldMT-6e" d="M 3478 0 
L 2600 0 
L 2600 1694 
Q 2600 2231 2544 2389 
Q 2488 2547 2361 2634 
Q 2234 2722 2056 2722 
Q 1828 2722 1647 2597 
Q 1466 2472 1398 2265 
Q 1331 2059 1331 1503 
L 1331 0 
L 453 0 
L 453 3319 
L 1269 3319 
L 1269 2831 
Q 1703 3394 2363 3394 
Q 2653 3394 2893 3289 
Q 3134 3184 3257 3021 
Q 3381 2859 3429 2653 
Q 3478 2447 3478 2063 
L 3478 0 
z
" transform="scale(0.015625)"/>
      <path id="Arial-BoldMT-73" d="M 150 947 
L 1031 1081 
Q 1088 825 1259 692 
Q 1431 559 1741 559 
Q 2081 559 2253 684 
Q 2369 772 2369 919 
Q 2369 1019 2306 1084 
Q 2241 1147 2013 1200 
Q 950 1434 666 1628 
Q 272 1897 272 2375 
Q 272 2806 612 3100 
Q 953 3394 1669 3394 
Q 2350 3394 2681 3172 
Q 3013 2950 3138 2516 
L 2309 2363 
Q 2256 2556 2107 2659 
Q 1959 2763 1684 2763 
Q 1338 2763 1188 2666 
Q 1088 2597 1088 2488 
Q 1088 2394 1175 2328 
Q 1294 2241 1995 2081 
Q 2697 1922 2975 1691 
Q 3250 1456 3250 1038 
Q 3250 581 2869 253 
Q 2488 -75 1741 -75 
Q 1063 -75 667 200 
Q 272 475 150 947 
z
" transform="scale(0.015625)"/>
      <path id="Arial-BoldMT-68" d="M 1334 4581 
L 1334 2897 
Q 1759 3394 2350 3394 
Q 2653 3394 2897 3281 
Q 3141 3169 3264 2994 
Q 3388 2819 3433 2606 
Q 3478 2394 3478 1947 
L 3478 0 
L 2600 0 
L 2600 1753 
Q 2600 2275 2550 2415 
Q 2500 2556 2373 2639 
Q 2247 2722 2056 2722 
Q 1838 2722 1666 2615 
Q 1494 2509 1414 2295 
Q 1334 2081 1334 1663 
L 1334 0 
L 456 0 
L 456 4581 
L 1334 4581 
z
" transform="scale(0.015625)"/>
     </defs>
     <use xlink:href="#Arial-BoldMT-4b"/>
     <use xlink:href="#Arial-BoldMT-69" transform="translate(72.216797 0)"/>
     <use xlink:href="#Arial-BoldMT-6e" transform="translate(100 0)"/>
     <use xlink:href="#Arial-BoldMT-73" transform="translate(161.083984 0)"/>
     <use xlink:href="#Arial-BoldMT-68" transform="translate(216.699219 0)"/>
     <use xlink:href="#Arial-BoldMT-61" transform="translate(277.783203 0)"/>
     <use xlink:href="#Arial-BoldMT-73" transform="translate(333.398438 0)"/>
     <use xlink:href="#Arial-BoldMT-61" transform="translate(389.013672 0)"/>
    </g>
   </g>
   <g id="text_10">
    <!-- Lagos -->
    <g style="fill: #b33a3a" transform="translate(476.923719 132.907159) scale(0.055 -0.055)">
     <defs>
      <path id="Arial-BoldMT-4c" d="M 491 0 
L 491 4544 
L 1416 4544 
L 1416 772 
L 3716 772 
L 3716 0 
L 491 0 
z
" transform="scale(0.015625)"/>
      <path id="Arial-BoldMT-67" d="M 378 -219 
L 1381 -341 
Q 1406 -516 1497 -581 
Q 1622 -675 1891 -675 
Q 2234 -675 2406 -572 
Q 2522 -503 2581 -350 
Q 2622 -241 2622 53 
L 2622 538 
Q 2228 0 1628 0 
Q 959 0 569 566 
Q 263 1013 263 1678 
Q 263 2513 664 2953 
Q 1066 3394 1663 3394 
Q 2278 3394 2678 2853 
L 2678 3319 
L 3500 3319 
L 3500 341 
Q 3500 -247 3403 -537 
Q 3306 -828 3131 -993 
Q 2956 -1159 2664 -1253 
Q 2372 -1347 1925 -1347 
Q 1081 -1347 728 -1058 
Q 375 -769 375 -325 
Q 375 -281 378 -219 
z
M 1163 1728 
Q 1163 1200 1367 954 
Q 1572 709 1872 709 
Q 2194 709 2416 961 
Q 2638 1213 2638 1706 
Q 2638 2222 2425 2472 
Q 2213 2722 1888 2722 
Q 1572 2722 1367 2476 
Q 1163 2231 1163 1728 
z
" transform="scale(0.015625)"/>
      <path id="Arial-BoldMT-6f" d="M 256 1706 
Q 256 2144 472 2553 
Q 688 2963 1083 3178 
Q 1478 3394 1966 3394 
Q 2719 3394 3200 2905 
Q 3681 2416 3681 1669 
Q 3681 916 3195 420 
Q 2709 -75 1972 -75 
Q 1516 -75 1102 131 
Q 688 338 472 736 
Q 256 1134 256 1706 
z
M 1156 1659 
Q 1156 1166 1390 903 
Q 1625 641 1969 641 
Q 2313 641 2545 903 
Q 2778 1166 2778 1666 
Q 2778 2153 2545 2415 
Q 2313 2678 1969 2678 
Q 1625 2678 1390 2415 
Q 1156 2153 1156 1659 
z
" transform="scale(0.015625)"/>
     </defs>
     <use xlink:href="#Arial-BoldMT-4c"/>
     <use xlink:href="#Arial-BoldMT-61" transform="translate(61.083984 0)"/>
     <use xlink:href="#Arial-BoldMT-67" transform="translate(116.699219 0)"/>
     <use xlink:href="#Arial-BoldMT-6f" transform="translate(177.783203 0)"/>
     <use xlink:href="#Arial-BoldMT-73" transform="translate(238.867188 0)"/>
    </g>
   </g>
   <g id="text_11">
    <!-- Shanghai -->
    <g style="fill: #b33a3a" transform="translate(476.923719 163.215194) scale(0.055 -0.055)">
     <defs>
      <path id="Arial-BoldMT-53" d="M 231 1491 
L 1131 1578 
Q 1213 1125 1461 912 
Q 1709 700 2131 700 
Q 2578 700 2804 889 
Q 3031 1078 3031 1331 
Q 3031 1494 2936 1608 
Q 2841 1722 2603 1806 
Q 2441 1863 1863 2006 
Q 1119 2191 819 2459 
Q 397 2838 397 3381 
Q 397 3731 595 4036 
Q 794 4341 1167 4500 
Q 1541 4659 2069 4659 
Q 2931 4659 3367 4281 
Q 3803 3903 3825 3272 
L 2900 3231 
Q 2841 3584 2645 3739 
Q 2450 3894 2059 3894 
Q 1656 3894 1428 3728 
Q 1281 3622 1281 3444 
Q 1281 3281 1419 3166 
Q 1594 3019 2269 2859 
Q 2944 2700 3267 2529 
Q 3591 2359 3773 2064 
Q 3956 1769 3956 1334 
Q 3956 941 3737 597 
Q 3519 253 3119 86 
Q 2719 -81 2122 -81 
Q 1253 -81 787 320 
Q 322 722 231 1491 
z
" transform="scale(0.015625)"/>
     </defs>
     <use xlink:href="#Arial-BoldMT-53"/>
     <use xlink:href="#Arial-BoldMT-68" transform="translate(66.699219 0)"/>
     <use xlink:href="#Arial-BoldMT-61" transform="translate(127.783203 0)"/>
     <use xlink:href="#Arial-BoldMT-6e" transform="translate(183.398438 0)"/>
     <use xlink:href="#Arial-BoldMT-67" transform="translate(244.482422 0)"/>
     <use xlink:href="#Arial-BoldMT-68" transform="translate(305.566406 0)"/>
     <use xlink:href="#Arial-BoldMT-61" transform="translate(366.650391 0)"/>
     <use xlink:href="#Arial-BoldMT-69" transform="translate(422.265625 0)"/>
    </g>
   </g>
   <g id="text_12">
    <!-- Tokyo -->
    <g style="fill: #b33a3a" transform="translate(476.923719 193.440299) scale(0.055 -0.055)">
     <defs>
      <path id="Arial-BoldMT-54" d="M 1497 0 
L 1497 3806 
L 138 3806 
L 138 4581 
L 3778 4581 
L 3778 3806 
L 2422 3806 
L 2422 0 
L 1497 0 
z
" transform="scale(0.015625)"/>
      <path id="Arial-BoldMT-79" d="M 44 3319 
L 978 3319 
L 1772 963 
L 2547 3319 
L 3456 3319 
L 2284 125 
L 2075 -453 
Q 1959 -744 1854 -897 
Q 1750 -1050 1614 -1145 
Q 1478 -1241 1279 -1294 
Q 1081 -1347 831 -1347 
Q 578 -1347 334 -1294 
L 256 -606 
Q 463 -647 628 -647 
Q 934 -647 1081 -467 
Q 1228 -288 1306 -9 
L 44 3319 
z
" transform="scale(0.015625)"/>
     </defs>
     <use xlink:href="#Arial-BoldMT-54"/>
     <use xlink:href="#Arial-BoldMT-6f" transform="translate(53.708984 0)"/>
     <use xlink:href="#Arial-BoldMT-6b" transform="translate(114.792969 0)"/>
     <use xlink:href="#Arial-BoldMT-79" transform="translate(170.408203 0)"/>
     <use xlink:href="#Arial-BoldMT-6f" transform="translate(226.023438 0)"/>
    </g>
   </g>
   <g id="text_13">
    <!-- Bangkok -->
    <g style="fill: #b33a3a" transform="translate(476.923719 183.354092) scale(0.055 -0.055)">
     <defs>
      <path id="Arial-BoldMT-42" d="M 469 4581 
L 2300 4581 
Q 2844 4581 3111 4536 
Q 3378 4491 3589 4347 
Q 3800 4203 3940 3964 
Q 4081 3725 4081 3428 
Q 4081 3106 3907 2837 
Q 3734 2569 3438 2434 
Q 3856 2313 4081 2019 
Q 4306 1725 4306 1328 
Q 4306 1016 4161 720 
Q 4016 425 3764 248 
Q 3513 72 3144 31 
Q 2913 6 2028 0 
L 469 0 
L 469 4581 
z
M 1394 3819 
L 1394 2759 
L 2000 2759 
Q 2541 2759 2672 2775 
Q 2909 2803 3045 2939 
Q 3181 3075 3181 3297 
Q 3181 3509 3064 3642 
Q 2947 3775 2716 3803 
Q 2578 3819 1925 3819 
L 1394 3819 
z
M 1394 1997 
L 1394 772 
L 2250 772 
Q 2750 772 2884 800 
Q 3091 838 3220 983 
Q 3350 1128 3350 1372 
Q 3350 1578 3250 1722 
Q 3150 1866 2961 1931 
Q 2772 1997 2141 1997 
L 1394 1997 
z
" transform="scale(0.015625)"/>
     </defs>
     <use xlink:href="#Arial-BoldMT-42"/>
     <use xlink:href="#Arial-BoldMT-61" transform="translate(72.216797 0)"/>
     <use xlink:href="#Arial-BoldMT-6e" transform="translate(127.832031 0)"/>
     <use xlink:href="#Arial-BoldMT-67" transform="translate(188.916016 0)"/>
     <use xlink:href="#Arial-BoldMT-6b" transform="translate(250 0)"/>
     <use xlink:href="#Arial-BoldMT-6f" transform="translate(305.615234 0)"/>
     <use xlink:href="#Arial-BoldMT-6b" transform="translate(366.699219 0)"/>
    </g>
   </g>
   <g id="text_14">
    <!-- Sao Paulo -->
    <g style="fill: #2c5f7c" transform="translate(56.351516 153.131565) scale(0.055 -0.055)">
     <defs>
      <path id="Arial-BoldMT-20" transform="scale(0.015625)"/>
      <path id="Arial-BoldMT-50" d="M 466 0 
L 466 4581 
L 1950 4581 
Q 2794 4581 3050 4513 
Q 3444 4409 3709 4064 
Q 3975 3719 3975 3172 
Q 3975 2750 3822 2462 
Q 3669 2175 3433 2011 
Q 3197 1847 2953 1794 
Q 2622 1728 1994 1728 
L 1391 1728 
L 1391 0 
L 466 0 
z
M 1391 3806 
L 1391 2506 
L 1897 2506 
Q 2444 2506 2628 2578 
Q 2813 2650 2917 2803 
Q 3022 2956 3022 3159 
Q 3022 3409 2875 3571 
Q 2728 3734 2503 3775 
Q 2338 3806 1838 3806 
L 1391 3806 
z
" transform="scale(0.015625)"/>
      <path id="Arial-BoldMT-75" d="M 2644 0 
L 2644 497 
Q 2463 231 2167 78 
Q 1872 -75 1544 -75 
Q 1209 -75 943 72 
Q 678 219 559 484 
Q 441 750 441 1219 
L 441 3319 
L 1319 3319 
L 1319 1794 
Q 1319 1094 1367 936 
Q 1416 778 1544 686 
Q 1672 594 1869 594 
Q 2094 594 2272 717 
Q 2450 841 2515 1023 
Q 2581 1206 2581 1919 
L 2581 3319 
L 3459 3319 
L 3459 0 
L 2644 0 
z
" transform="scale(0.015625)"/>
      <path id="Arial-BoldMT-6c" d="M 459 0 
L 459 4581 
L 1338 4581 
L 1338 0 
L 459 0 
z
" transform="scale(0.015625)"/>
     </defs>
     <use xlink:href="#Arial-BoldMT-53"/>
     <use xlink:href="#Arial-BoldMT-61" transform="translate(66.699219 0)"/>
     <use xlink:href="#Arial-BoldMT-6f" transform="translate(122.314453 0)"/>
     <use xlink:href="#Arial-BoldMT-20" transform="translate(183.398438 0)"/>
     <use xlink:href="#Arial-BoldMT-50" transform="translate(211.181641 0)"/>
     <use xlink:href="#Arial-BoldMT-61" transform="translate(277.880859 0)"/>
     <use xlink:href="#Arial-BoldMT-75" transform="translate(333.496094 0)"/>
     <use xlink:href="#Arial-BoldMT-6c" transform="translate(394.580078 0)"/>
     <use xlink:href="#Arial-BoldMT-6f" transform="translate(422.363281 0)"/>
    </g>
   </g>
   <g id="text_15">
    <!-- Istanbul -->
    <g style="fill: #2c5f7c" transform="translate(61.857531 173.303979) scale(0.055 -0.055)">
     <defs>
      <path id="Arial-BoldMT-49" d="M 438 0 
L 438 4581 
L 1363 4581 
L 1363 0 
L 438 0 
z
" transform="scale(0.015625)"/>
      <path id="Arial-BoldMT-62" d="M 422 0 
L 422 4581 
L 1300 4581 
L 1300 2931 
Q 1706 3394 2263 3394 
Q 2869 3394 3266 2955 
Q 3663 2516 3663 1694 
Q 3663 844 3258 384 
Q 2853 -75 2275 -75 
Q 1991 -75 1714 67 
Q 1438 209 1238 488 
L 1238 0 
L 422 0 
z
M 1294 1731 
Q 1294 1216 1456 969 
Q 1684 619 2063 619 
Q 2353 619 2558 867 
Q 2763 1116 2763 1650 
Q 2763 2219 2556 2470 
Q 2350 2722 2028 2722 
Q 1713 2722 1503 2476 
Q 1294 2231 1294 1731 
z
" transform="scale(0.015625)"/>
     </defs>
     <use xlink:href="#Arial-BoldMT-49"/>
     <use xlink:href="#Arial-BoldMT-73" transform="translate(27.783203 0)"/>
     <use xlink:href="#Arial-BoldMT-74" transform="translate(83.398438 0)"/>
     <use xlink:href="#Arial-BoldMT-61" transform="translate(116.699219 0)"/>
     <use xlink:href="#Arial-BoldMT-6e" transform="translate(172.314453 0)"/>
     <use xlink:href="#Arial-BoldMT-62" transform="translate(233.398438 0)"/>
     <use xlink:href="#Arial-BoldMT-75" transform="translate(294.482422 0)"/>
     <use xlink:href="#Arial-BoldMT-6c" transform="translate(355.566406 0)"/>
    </g>
   </g>
   <g id="text_16">
    <!-- Delhi -->
    <g style="fill: #2c5f7c" transform="translate(69.493938 193.476393) scale(0.055 -0.055)">
     <defs>
      <path id="Arial-BoldMT-44" d="M 463 4581 
L 2153 4581 
Q 2725 4581 3025 4494 
Q 3428 4375 3715 4072 
Q 4003 3769 4153 3330 
Q 4303 2891 4303 2247 
Q 4303 1681 4163 1272 
Q 3991 772 3672 463 
Q 3431 228 3022 97 
Q 2716 0 2203 0 
L 463 0 
L 463 4581 
z
M 1388 3806 
L 1388 772 
L 2078 772 
Q 2466 772 2638 816 
Q 2863 872 3011 1006 
Q 3159 1141 3253 1448 
Q 3347 1756 3347 2288 
Q 3347 2819 3253 3103 
Q 3159 3388 2990 3547 
Q 2822 3706 2563 3763 
Q 2369 3806 1803 3806 
L 1388 3806 
z
" transform="scale(0.015625)"/>
      <path id="Arial-BoldMT-65" d="M 2381 1056 
L 3256 909 
Q 3088 428 2723 176 
Q 2359 -75 1813 -75 
Q 947 -75 531 491 
Q 203 944 203 1634 
Q 203 2459 634 2926 
Q 1066 3394 1725 3394 
Q 2466 3394 2894 2905 
Q 3322 2416 3303 1406 
L 1103 1406 
Q 1113 1016 1316 798 
Q 1519 581 1822 581 
Q 2028 581 2168 693 
Q 2309 806 2381 1056 
z
M 2431 1944 
Q 2422 2325 2234 2523 
Q 2047 2722 1778 2722 
Q 1491 2722 1303 2513 
Q 1116 2303 1119 1944 
L 2431 1944 
z
" transform="scale(0.015625)"/>
     </defs>
     <use xlink:href="#Arial-BoldMT-44"/>
     <use xlink:href="#Arial-BoldMT-65" transform="translate(72.216797 0)"/>
     <use xlink:href="#Arial-BoldMT-6c" transform="translate(127.832031 0)"/>
     <use xlink:href="#Arial-BoldMT-68" transform="translate(155.615234 0)"/>
     <use xlink:href="#Arial-BoldMT-69" transform="translate(216.699219 0)"/>
    </g>
   </g>
   <g id="text_17">
    <!-- Without -->
    <g style="fill: #2c5f7c" transform="translate(56.729796 350.9325) scale(0.08 -0.08)">
     <defs>
      <path id="Arial-BoldMT-57" d="M 1116 0 
L 22 4581 
L 969 4581 
L 1659 1434 
L 2497 4581 
L 3597 4581 
L 4400 1381 
L 5103 4581 
L 6034 4581 
L 4922 0 
L 3941 0 
L 3028 3425 
L 2119 0 
L 1116 0 
z
" transform="scale(0.015625)"/>
     </defs>
     <use xlink:href="#Arial-BoldMT-57"/>
     <use xlink:href="#Arial-BoldMT-69" transform="translate(93.509766 0)"/>
     <use xlink:href="#Arial-BoldMT-74" transform="translate(121.292969 0)"/>
     <use xlink:href="#Arial-BoldMT-68" transform="translate(154.59375 0)"/>
     <use xlink:href="#Arial-BoldMT-6f" transform="translate(215.677734 0)"/>
     <use xlink:href="#Arial-BoldMT-75" transform="translate(276.761719 0)"/>
     <use xlink:href="#Arial-BoldMT-74" transform="translate(337.845703 0)"/>
    </g>
    <!-- height -->
    <g style="fill: #2c5f7c" transform="translate(59.577921 359.38275) scale(0.08 -0.08)">
     <use xlink:href="#Arial-BoldMT-68"/>
     <use xlink:href="#Arial-BoldMT-65" transform="translate(61.083984 0)"/>
     <use xlink:href="#Arial-BoldMT-69" transform="translate(116.699219 0)"/>
     <use xlink:href="#Arial-BoldMT-67" transform="translate(144.482422 0)"/>
     <use xlink:href="#Arial-BoldMT-68" transform="translate(205.566406 0)"/>
     <use xlink:href="#Arial-BoldMT-74" transform="translate(266.650391 0)"/>
    </g>
    <!-- (6 features) -->
    <g style="fill: #2c5f7c" transform="translate(50.014171 368.055) scale(0.08 -0.08)">
     <defs>
      <path id="Arial-BoldMT-28" d="M 1916 -1347 
L 1313 -1347 
Q 834 -625 584 153 
Q 334 931 334 1659 
Q 334 2563 644 3369 
Q 913 4069 1325 4659 
L 1925 4659 
Q 1497 3713 1336 3048 
Q 1175 2384 1175 1641 
Q 1175 1128 1270 590 
Q 1366 53 1531 -431 
Q 1641 -750 1916 -1347 
z
" transform="scale(0.015625)"/>
      <path id="Arial-BoldMT-36" d="M 3247 3459 
L 2397 3366 
Q 2366 3628 2234 3753 
Q 2103 3878 1894 3878 
Q 1616 3878 1423 3628 
Q 1231 3378 1181 2588 
Q 1509 2975 1997 2975 
Q 2547 2975 2939 2556 
Q 3331 2138 3331 1475 
Q 3331 772 2918 347 
Q 2506 -78 1859 -78 
Q 1166 -78 719 461 
Q 272 1000 272 2228 
Q 272 3488 737 4044 
Q 1203 4600 1947 4600 
Q 2469 4600 2811 4308 
Q 3153 4016 3247 3459 
z
M 1256 1544 
Q 1256 1116 1453 883 
Q 1650 650 1903 650 
Q 2147 650 2309 840 
Q 2472 1031 2472 1466 
Q 2472 1913 2297 2120 
Q 2122 2328 1859 2328 
Q 1606 2328 1431 2129 
Q 1256 1931 1256 1544 
z
" transform="scale(0.015625)"/>
      <path id="Arial-BoldMT-66" d="M 75 3319 
L 563 3319 
L 563 3569 
Q 563 3988 652 4194 
Q 741 4400 980 4529 
Q 1219 4659 1584 4659 
Q 1959 4659 2319 4547 
L 2200 3934 
Q 1991 3984 1797 3984 
Q 1606 3984 1523 3895 
Q 1441 3806 1441 3553 
L 1441 3319 
L 2097 3319 
L 2097 2628 
L 1441 2628 
L 1441 0 
L 563 0 
L 563 2628 
L 75 2628 
L 75 3319 
z
" transform="scale(0.015625)"/>
      <path id="Arial-BoldMT-29" d="M 216 -1347 
Q 475 -791 581 -494 
Q 688 -197 778 190 
Q 869 578 912 926 
Q 956 1275 956 1641 
Q 956 2384 797 3048 
Q 638 3713 209 4659 
L 806 4659 
Q 1278 3988 1539 3234 
Q 1800 2481 1800 1706 
Q 1800 1053 1594 306 
Q 1359 -531 822 -1347 
L 216 -1347 
z
" transform="scale(0.015625)"/>
     </defs>
     <use xlink:href="#Arial-BoldMT-28"/>
     <use xlink:href="#Arial-BoldMT-36" transform="translate(33.300781 0)"/>
     <use xlink:href="#Arial-BoldMT-20" transform="translate(88.916016 0)"/>
     <use xlink:href="#Arial-BoldMT-66" transform="translate(116.699219 0)"/>
     <use xlink:href="#Arial-BoldMT-65" transform="translate(150 0)"/>
     <use xlink:href="#Arial-BoldMT-61" transform="translate(205.615234 0)"/>
     <use xlink:href="#Arial-BoldMT-74" transform="translate(261.230469 0)"/>
     <use xlink:href="#Arial-BoldMT-75" transform="translate(294.53125 0)"/>
     <use xlink:href="#Arial-BoldMT-72" transform="translate(355.615234 0)"/>
     <use xlink:href="#Arial-BoldMT-65" transform="translate(394.53125 0)"/>
     <use xlink:href="#Arial-BoldMT-73" transform="translate(450.146484 0)"/>
     <use xlink:href="#Arial-BoldMT-29" transform="translate(505.761719 0)"/>
    </g>
   </g>
   <g id="text_18">
    <!-- With height -->
    <g style="fill: #b33a3a" transform="translate(466.553642 359.38275) scale(0.08 -0.08)">
     <use xlink:href="#Arial-BoldMT-57"/>
     <use xlink:href="#Arial-BoldMT-69" transform="translate(93.509766 0)"/>
     <use xlink:href="#Arial-BoldMT-74" transform="translate(121.292969 0)"/>
     <use xlink:href="#Arial-BoldMT-68" transform="translate(154.59375 0)"/>
     <use xlink:href="#Arial-BoldMT-20" transform="translate(215.677734 0)"/>
     <use xlink:href="#Arial-BoldMT-68" transform="translate(243.460938 0)"/>
     <use xlink:href="#Arial-BoldMT-65" transform="translate(304.544922 0)"/>
     <use xlink:href="#Arial-BoldMT-69" transform="translate(360.160156 0)"/>
     <use xlink:href="#Arial-BoldMT-67" transform="translate(387.943359 0)"/>
     <use xlink:href="#Arial-BoldMT-68" transform="translate(449.027344 0)"/>
     <use xlink:href="#Arial-BoldMT-74" transform="translate(510.111328 0)"/>
    </g>
    <!-- (8 features) -->
    <g style="fill: #b33a3a" transform="translate(466.728017 368.055) scale(0.08 -0.08)">
     <defs>
      <path id="Arial-BoldMT-38" d="M 1025 2472 
Q 684 2616 529 2867 
Q 375 3119 375 3419 
Q 375 3931 733 4265 
Q 1091 4600 1750 4600 
Q 2403 4600 2764 4265 
Q 3125 3931 3125 3419 
Q 3125 3100 2959 2851 
Q 2794 2603 2494 2472 
Q 2875 2319 3073 2025 
Q 3272 1731 3272 1347 
Q 3272 713 2867 316 
Q 2463 -81 1791 -81 
Q 1166 -81 750 247 
Q 259 634 259 1309 
Q 259 1681 443 1992 
Q 628 2303 1025 2472 
z
M 1206 3356 
Q 1206 3094 1354 2947 
Q 1503 2800 1750 2800 
Q 2000 2800 2150 2948 
Q 2300 3097 2300 3359 
Q 2300 3606 2151 3754 
Q 2003 3903 1759 3903 
Q 1506 3903 1356 3753 
Q 1206 3603 1206 3356 
z
M 1125 1394 
Q 1125 1031 1311 828 
Q 1497 625 1775 625 
Q 2047 625 2225 820 
Q 2403 1016 2403 1384 
Q 2403 1706 2222 1901 
Q 2041 2097 1763 2097 
Q 1441 2097 1283 1875 
Q 1125 1653 1125 1394 
z
" transform="scale(0.015625)"/>
     </defs>
     <use xlink:href="#Arial-BoldMT-28"/>
     <use xlink:href="#Arial-BoldMT-38" transform="translate(33.300781 0)"/>
     <use xlink:href="#Arial-BoldMT-20" transform="translate(88.916016 0)"/>
     <use xlink:href="#Arial-BoldMT-66" transform="translate(116.699219 0)"/>
     <use xlink:href="#Arial-BoldMT-65" transform="translate(150 0)"/>
     <use xlink:href="#Arial-BoldMT-61" transform="translate(205.615234 0)"/>
     <use xlink:href="#Arial-BoldMT-74" transform="translate(261.230469 0)"/>
     <use xlink:href="#Arial-BoldMT-75" transform="translate(294.53125 0)"/>
     <use xlink:href="#Arial-BoldMT-72" transform="translate(355.615234 0)"/>
     <use xlink:href="#Arial-BoldMT-65" transform="translate(394.53125 0)"/>
     <use xlink:href="#Arial-BoldMT-73" transform="translate(450.146484 0)"/>
     <use xlink:href="#Arial-BoldMT-29" transform="translate(505.761719 0)"/>
    </g>
   </g>
   <g id="text_19">
    <!-- Mean |delta| = 13.3 percentile points -->
    <g style="fill: #8c8c8c" transform="translate(223.538516 369.241781) scale(0.07 -0.07)">
     <defs>
      <path id="Arial-ItalicMT-4d" d="M 281 0 
L 1238 4581 
L 1991 4581 
L 2453 1613 
Q 2544 1028 2572 491 
Q 2763 953 3209 1744 
L 4816 4581 
L 5581 4581 
L 4625 0 
L 4022 0 
L 4500 2228 
Q 4666 3000 4975 3959 
Q 4778 3513 4488 2997 
L 2781 0 
L 2191 0 
L 1731 2938 
Q 1669 3341 1641 3878 
Q 1563 3275 1488 2922 
L 878 0 
L 281 0 
z
" transform="scale(0.015625)"/>
      <path id="Arial-ItalicMT-65" d="M 2650 1128 
L 3200 1072 
Q 3081 663 2654 294 
Q 2228 -75 1638 -75 
Q 1269 -75 961 95 
Q 653 266 492 591 
Q 331 916 331 1331 
Q 331 1875 582 2386 
Q 834 2897 1234 3145 
Q 1634 3394 2100 3394 
Q 2694 3394 3048 3025 
Q 3403 2656 3403 2019 
Q 3403 1775 3359 1519 
L 916 1519 
Q 903 1422 903 1344 
Q 903 878 1117 633 
Q 1331 388 1641 388 
Q 1931 388 2212 578 
Q 2494 769 2650 1128 
z
M 1006 1950 
L 2869 1950 
Q 2872 2038 2872 2075 
Q 2872 2500 2659 2726 
Q 2447 2953 2113 2953 
Q 1750 2953 1451 2703 
Q 1153 2453 1006 1950 
z
" transform="scale(0.015625)"/>
      <path id="Arial-ItalicMT-61" d="M 2450 413 
Q 2156 159 1884 42 
Q 1613 -75 1303 -75 
Q 844 -75 562 195 
Q 281 466 281 888 
Q 281 1166 407 1380 
Q 534 1594 743 1723 
Q 953 1853 1256 1909 
Q 1447 1947 1980 1969 
Q 2513 1991 2744 2081 
Q 2809 2313 2809 2466 
Q 2809 2663 2666 2775 
Q 2469 2931 2091 2931 
Q 1734 2931 1507 2773 
Q 1281 2616 1178 2325 
L 606 2375 
Q 781 2869 1161 3131 
Q 1541 3394 2119 3394 
Q 2734 3394 3094 3100 
Q 3369 2881 3369 2531 
Q 3369 2266 3291 1916 
L 3106 1091 
Q 3019 697 3019 450 
Q 3019 294 3088 0 
L 2516 0 
Q 2469 163 2450 413 
z
M 2659 1681 
Q 2541 1634 2405 1609 
Q 2269 1584 1950 1556 
Q 1456 1513 1253 1445 
Q 1050 1378 947 1231 
Q 844 1084 844 906 
Q 844 669 1008 516 
Q 1172 363 1475 363 
Q 1756 363 2015 511 
Q 2275 659 2425 925 
Q 2575 1191 2659 1681 
z
" transform="scale(0.015625)"/>
      <path id="Arial-ItalicMT-6e" d="M 213 0 
L 906 3319 
L 1419 3319 
L 1297 2741 
Q 1631 3081 1922 3237 
Q 2213 3394 2516 3394 
Q 2919 3394 3148 3175 
Q 3378 2956 3378 2591 
Q 3378 2406 3297 2009 
L 2875 0 
L 2309 0 
L 2750 2103 
Q 2816 2409 2816 2556 
Q 2816 2722 2702 2825 
Q 2588 2928 2372 2928 
Q 1938 2928 1598 2615 
Q 1259 2303 1100 1544 
L 778 0 
L 213 0 
z
" transform="scale(0.015625)"/>
      <path id="Arial-ItalicMT-20" transform="scale(0.015625)"/>
      <path id="Arial-ItalicMT-7c" d="M 588 -1347 
L 588 4659 
L 1078 4659 
L 1078 -1347 
L 588 -1347 
z
" transform="scale(0.015625)"/>
      <path id="Arial-ItalicMT-64" d="M 2450 481 
Q 1966 -75 1438 -75 
Q 966 -75 652 273 
Q 338 622 338 1284 
Q 338 1891 586 2392 
Q 834 2894 1207 3144 
Q 1581 3394 1956 3394 
Q 2575 3394 2891 2797 
L 3266 4581 
L 3828 4581 
L 2872 0 
L 2350 0 
L 2450 481 
z
M 900 1391 
Q 900 1044 969 844 
Q 1038 644 1203 511 
Q 1369 378 1600 378 
Q 1984 378 2297 778 
Q 2716 1309 2716 2091 
Q 2716 2484 2509 2706 
Q 2303 2928 1991 2928 
Q 1788 2928 1620 2837 
Q 1453 2747 1289 2530 
Q 1125 2313 1012 1978 
Q 900 1644 900 1391 
z
" transform="scale(0.015625)"/>
      <path id="Arial-ItalicMT-6c" d="M 169 0 
L 1125 4581 
L 1691 4581 
L 734 0 
L 169 0 
z
" transform="scale(0.015625)"/>
      <path id="Arial-ItalicMT-74" d="M 1534 459 
L 1441 -3 
Q 1238 -56 1047 -56 
Q 709 -56 509 109 
Q 359 234 359 450 
Q 359 559 441 953 
L 844 2881 
L 397 2881 
L 488 3319 
L 934 3319 
L 1106 4134 
L 1753 4525 
L 1500 3319 
L 2056 3319 
L 1963 2881 
L 1409 2881 
L 1025 1047 
Q 953 697 953 628 
Q 953 528 1011 475 
Q 1069 422 1200 422 
Q 1388 422 1534 459 
z
" transform="scale(0.015625)"/>
      <path id="Arial-ItalicMT-3d" d="M 3600 2694 
L 575 2694 
L 575 3219 
L 3600 3219 
L 3600 2694 
z
M 3600 1303 
L 575 1303 
L 575 1828 
L 3600 1828 
L 3600 1303 
z
" transform="scale(0.015625)"/>
      <path id="Arial-ItalicMT-31" d="M 1541 0 
L 2266 3459 
Q 1797 3091 947 2869 
L 1053 3381 
Q 1475 3550 1886 3822 
Q 2297 4094 2503 4297 
Q 2628 4422 2741 4600 
L 3069 4600 
L 2109 0 
L 1541 0 
z
" transform="scale(0.015625)"/>
      <path id="Arial-ItalicMT-33" d="M 350 1200 
L 900 1269 
Q 963 788 1177 580 
Q 1391 372 1738 372 
Q 2156 372 2461 672 
Q 2766 972 2766 1359 
Q 2766 1697 2537 1917 
Q 2309 2138 1925 2138 
Q 1881 2138 1744 2125 
L 1841 2597 
Q 1922 2584 1997 2584 
Q 2481 2584 2742 2820 
Q 3003 3056 3003 3400 
Q 3003 3716 2789 3931 
Q 2575 4147 2266 4147 
Q 1963 4147 1720 3926 
Q 1478 3706 1409 3303 
L 853 3416 
Q 991 3981 1381 4290 
Q 1772 4600 2306 4600 
Q 2869 4600 3217 4259 
Q 3566 3919 3566 3422 
Q 3566 3059 3377 2789 
Q 3188 2519 2809 2341 
Q 3078 2181 3211 1956 
Q 3344 1731 3344 1441 
Q 3344 825 2883 373 
Q 2422 -78 1781 -78 
Q 1159 -78 776 270 
Q 394 619 350 1200 
z
" transform="scale(0.015625)"/>
      <path id="Arial-ItalicMT-2e" d="M 369 0 
L 503 641 
L 1144 641 
L 1006 0 
L 369 0 
z
" transform="scale(0.015625)"/>
      <path id="Arial-ItalicMT-70" d="M -66 -1272 
L 894 3319 
L 1416 3319 
L 1319 2856 
Q 1609 3159 1839 3276 
Q 2069 3394 2325 3394 
Q 2800 3394 3112 3048 
Q 3425 2703 3425 2059 
Q 3425 1541 3253 1114 
Q 3081 688 2831 428 
Q 2581 169 2325 47 
Q 2069 -75 1800 -75 
Q 1203 -75 875 531 
L 500 -1272 
L -66 -1272 
z
M 1053 1356 
Q 1053 984 1106 841 
Q 1184 638 1362 513 
Q 1541 388 1775 388 
Q 2263 388 2563 936 
Q 2863 1484 2863 2056 
Q 2863 2478 2661 2708 
Q 2459 2938 2159 2938 
Q 1944 2938 1759 2823 
Q 1575 2709 1417 2482 
Q 1259 2256 1156 1928 
Q 1053 1600 1053 1356 
z
" transform="scale(0.015625)"/>
      <path id="Arial-ItalicMT-72" d="M 213 0 
L 906 3319 
L 1406 3319 
L 1266 2641 
Q 1522 3025 1767 3209 
Q 2013 3394 2269 3394 
Q 2438 3394 2684 3272 
L 2453 2747 
Q 2306 2853 2131 2853 
Q 1834 2853 1521 2522 
Q 1209 2191 1031 1331 
L 750 0 
L 213 0 
z
" transform="scale(0.015625)"/>
      <path id="Arial-ItalicMT-63" d="M 2503 1209 
L 3069 1150 
Q 2856 528 2464 226 
Q 2072 -75 1572 -75 
Q 1031 -75 695 275 
Q 359 625 359 1253 
Q 359 1797 575 2322 
Q 791 2847 1192 3120 
Q 1594 3394 2109 3394 
Q 2644 3394 2956 3092 
Q 3269 2791 3269 2294 
L 2713 2256 
Q 2709 2572 2529 2750 
Q 2350 2928 2056 2928 
Q 1716 2928 1466 2712 
Q 1216 2497 1073 2058 
Q 931 1619 931 1213 
Q 931 788 1118 575 
Q 1306 363 1581 363 
Q 1856 363 2107 572 
Q 2359 781 2503 1209 
z
" transform="scale(0.015625)"/>
      <path id="Arial-ItalicMT-69" d="M 1016 3941 
L 1150 4581 
L 1713 4581 
L 1578 3941 
L 1016 3941 
z
M 191 0 
L 884 3319 
L 1450 3319 
L 756 0 
L 191 0 
z
" transform="scale(0.015625)"/>
      <path id="Arial-ItalicMT-6f" d="M 313 1259 
Q 313 2231 884 2869 
Q 1356 3394 2122 3394 
Q 2722 3394 3089 3019 
Q 3456 2644 3456 2006 
Q 3456 1434 3225 942 
Q 2994 450 2567 187 
Q 2141 -75 1669 -75 
Q 1281 -75 964 90 
Q 647 256 480 559 
Q 313 863 313 1259 
z
M 878 1316 
Q 878 847 1103 605 
Q 1328 363 1675 363 
Q 1856 363 2034 436 
Q 2213 509 2366 659 
Q 2519 809 2626 1001 
Q 2734 1194 2800 1416 
Q 2897 1725 2897 2009 
Q 2897 2459 2670 2707 
Q 2444 2956 2100 2956 
Q 1834 2956 1615 2829 
Q 1397 2703 1220 2459 
Q 1044 2216 961 1892 
Q 878 1569 878 1316 
z
" transform="scale(0.015625)"/>
      <path id="Arial-ItalicMT-73" d="M 266 1134 
L 831 1169 
Q 831 925 906 753 
Q 981 581 1182 472 
Q 1384 363 1653 363 
Q 2028 363 2215 513 
Q 2403 663 2403 866 
Q 2403 1013 2291 1144 
Q 2175 1275 1726 1467 
Q 1278 1659 1153 1738 
Q 944 1866 837 2039 
Q 731 2213 731 2438 
Q 731 2831 1043 3112 
Q 1356 3394 1919 3394 
Q 2544 3394 2870 3105 
Q 3197 2816 3209 2344 
L 2656 2306 
Q 2644 2606 2444 2781 
Q 2244 2956 1878 2956 
Q 1584 2956 1421 2822 
Q 1259 2688 1259 2531 
Q 1259 2375 1400 2256 
Q 1494 2175 1884 2006 
Q 2534 1725 2703 1563 
Q 2972 1303 2972 931 
Q 2972 684 2820 446 
Q 2669 209 2358 67 
Q 2047 -75 1625 -75 
Q 1050 -75 647 209 
Q 244 494 266 1134 
z
" transform="scale(0.015625)"/>
     </defs>
     <use xlink:href="#Arial-ItalicMT-4d"/>
     <use xlink:href="#Arial-ItalicMT-65" transform="translate(83.300781 0)"/>
     <use xlink:href="#Arial-ItalicMT-61" transform="translate(138.916016 0)"/>
     <use xlink:href="#Arial-ItalicMT-6e" transform="translate(194.53125 0)"/>
     <use xlink:href="#Arial-ItalicMT-20" transform="translate(250.146484 0)"/>
     <use xlink:href="#Arial-ItalicMT-7c" transform="translate(277.929688 0)"/>
     <use xlink:href="#Arial-ItalicMT-64" transform="translate(303.90625 0)"/>
     <use xlink:href="#Arial-ItalicMT-65" transform="translate(359.521484 0)"/>
     <use xlink:href="#Arial-ItalicMT-6c" transform="translate(415.136719 0)"/>
     <use xlink:href="#Arial-ItalicMT-74" transform="translate(437.353516 0)"/>
     <use xlink:href="#Arial-ItalicMT-61" transform="translate(465.136719 0)"/>
     <use xlink:href="#Arial-ItalicMT-7c" transform="translate(520.751953 0)"/>
     <use xlink:href="#Arial-ItalicMT-20" transform="translate(546.728516 0)"/>
     <use xlink:href="#Arial-ItalicMT-3d" transform="translate(574.511719 0)"/>
     <use xlink:href="#Arial-ItalicMT-20" transform="translate(632.910156 0)"/>
     <use xlink:href="#Arial-ItalicMT-31" transform="translate(660.693359 0)"/>
     <use xlink:href="#Arial-ItalicMT-33" transform="translate(716.308594 0)"/>
     <use xlink:href="#Arial-ItalicMT-2e" transform="translate(771.923828 0)"/>
     <use xlink:href="#Arial-ItalicMT-33" transform="translate(799.707031 0)"/>
     <use xlink:href="#Arial-ItalicMT-20" transform="translate(855.322266 0)"/>
     <use xlink:href="#Arial-ItalicMT-70" transform="translate(883.105469 0)"/>
     <use xlink:href="#Arial-ItalicMT-65" transform="translate(938.720703 0)"/>
     <use xlink:href="#Arial-ItalicMT-72" transform="translate(994.335938 0)"/>
     <use xlink:href="#Arial-ItalicMT-63" transform="translate(1027.636719 0)"/>
     <use xlink:href="#Arial-ItalicMT-65" transform="translate(1077.636719 0)"/>
     <use xlink:href="#Arial-ItalicMT-6e" transform="translate(1133.251953 0)"/>
     <use xlink:href="#Arial-ItalicMT-74" transform="translate(1188.867188 0)"/>
     <use xlink:href="#Arial-ItalicMT-69" transform="translate(1216.650391 0)"/>
     <use xlink:href="#Arial-ItalicMT-6c" transform="translate(1238.867188 0)"/>
     <use xlink:href="#Arial-ItalicMT-65" transform="translate(1261.083984 0)"/>
     <use xlink:href="#Arial-ItalicMT-20" transform="translate(1316.699219 0)"/>
     <use xlink:href="#Arial-ItalicMT-70" transform="translate(1344.482422 0)"/>
     <use xlink:href="#Arial-ItalicMT-6f" transform="translate(1400.097656 0)"/>
     <use xlink:href="#Arial-ItalicMT-69" transform="translate(1455.712891 0)"/>
     <use xlink:href="#Arial-ItalicMT-6e" transform="translate(1477.929688 0)"/>
     <use xlink:href="#Arial-ItalicMT-74" transform="translate(1533.544922 0)"/>
     <use xlink:href="#Arial-ItalicMT-73" transform="translate(1561.328125 0)"/>
    </g>
    <!-- 23/29 cities change rank -->
    <g style="fill: #8c8c8c" transform="translate(241.993359 376.83) scale(0.07 -0.07)">
     <defs>
      <path id="Arial-ItalicMT-32" d="M 375 0 
Q 463 409 617 686 
Q 772 963 1028 1211 
Q 1284 1459 2016 2044 
Q 2459 2397 2622 2566 
Q 2856 2809 2963 3044 
Q 3034 3203 3034 3391 
Q 3034 3706 2811 3926 
Q 2588 4147 2263 4147 
Q 1941 4147 1700 3923 
Q 1459 3700 1356 3206 
L 803 3288 
Q 884 3897 1276 4248 
Q 1669 4600 2253 4600 
Q 2644 4600 2961 4437 
Q 3278 4275 3437 3981 
Q 3597 3688 3597 3375 
Q 3597 2919 3272 2497 
Q 3072 2234 2097 1463 
Q 1678 1131 1473 918 
Q 1269 706 1166 519 
L 3216 519 
L 3106 0 
L 375 0 
z
" transform="scale(0.015625)"/>
      <path id="Arial-ItalicMT-2f" d="M -325 -75 
L 2138 4659 
L 2628 4659 
L 166 -75 
L -325 -75 
z
" transform="scale(0.015625)"/>
      <path id="Arial-ItalicMT-39" d="M 431 1050 
L 963 1103 
Q 1016 719 1181 556 
Q 1347 394 1575 394 
Q 1900 394 2178 675 
Q 2588 1088 2781 1859 
Q 2497 1647 2276 1556 
Q 2056 1466 1825 1466 
Q 1406 1466 1075 1747 
Q 638 2113 638 2797 
Q 638 3572 1144 4125 
Q 1578 4600 2209 4600 
Q 2778 4600 3153 4179 
Q 3528 3759 3528 2991 
Q 3528 2244 3278 1516 
Q 2981 659 2475 253 
Q 2063 -78 1547 -78 
Q 1072 -78 770 217 
Q 469 513 431 1050 
z
M 1184 2863 
Q 1184 2431 1414 2175 
Q 1644 1919 1959 1919 
Q 2194 1919 2425 2078 
Q 2656 2238 2822 2555 
Q 2988 2872 2988 3206 
Q 2988 3469 2878 3694 
Q 2769 3919 2580 4033 
Q 2391 4147 2197 4147 
Q 2009 4147 1828 4047 
Q 1647 3947 1492 3753 
Q 1338 3559 1261 3307 
Q 1184 3056 1184 2863 
z
" transform="scale(0.015625)"/>
      <path id="Arial-ItalicMT-68" d="M 213 0 
L 1169 4581 
L 1734 4581 
L 1369 2822 
Q 1684 3128 1956 3261 
Q 2228 3394 2516 3394 
Q 2928 3394 3156 3176 
Q 3384 2959 3384 2603 
Q 3384 2428 3284 1959 
L 2875 0 
L 2309 0 
L 2731 2009 
Q 2822 2447 2822 2559 
Q 2822 2722 2709 2825 
Q 2597 2928 2384 2928 
Q 2078 2928 1800 2767 
Q 1522 2606 1364 2326 
Q 1206 2047 1075 1425 
L 778 0 
L 213 0 
z
" transform="scale(0.015625)"/>
      <path id="Arial-ItalicMT-67" d="M 181 -300 
L 753 -353 
Q 747 -547 800 -644 
Q 853 -741 969 -794 
Q 1122 -863 1366 -863 
Q 1878 -863 2103 -597 
Q 2250 -419 2375 178 
L 2431 447 
Q 1991 0 1494 0 
Q 991 0 652 370 
Q 313 741 313 1419 
Q 313 1978 580 2447 
Q 847 2916 1215 3155 
Q 1584 3394 1975 3394 
Q 2628 3394 2981 2775 
L 3094 3319 
L 3613 3319 
L 2944 116 
Q 2834 -413 2656 -708 
Q 2478 -1003 2161 -1165 
Q 1844 -1328 1428 -1328 
Q 1028 -1328 739 -1225 
Q 450 -1122 308 -923 
Q 166 -725 166 -469 
Q 166 -391 181 -300 
z
M 888 1469 
Q 888 1128 953 956 
Q 1047 716 1220 589 
Q 1394 463 1606 463 
Q 1884 463 2159 658 
Q 2434 853 2604 1262 
Q 2775 1672 2775 2044 
Q 2775 2453 2548 2695 
Q 2322 2938 1988 2938 
Q 1781 2938 1587 2827 
Q 1394 2716 1226 2489 
Q 1059 2263 973 1947 
Q 888 1631 888 1469 
z
" transform="scale(0.015625)"/>
      <path id="Arial-ItalicMT-6b" d="M 219 0 
L 1178 4581 
L 1741 4581 
L 1147 1741 
L 2797 3319 
L 3544 3319 
L 2128 2081 
L 2984 0 
L 2366 0 
L 1703 1703 
L 1016 1109 
L 784 0 
L 219 0 
z
" transform="scale(0.015625)"/>
     </defs>
     <use xlink:href="#Arial-ItalicMT-32"/>
     <use xlink:href="#Arial-ItalicMT-33" transform="translate(55.615234 0)"/>
     <use xlink:href="#Arial-ItalicMT-2f" transform="translate(111.230469 0)"/>
     <use xlink:href="#Arial-ItalicMT-32" transform="translate(139.013672 0)"/>
     <use xlink:href="#Arial-ItalicMT-39" transform="translate(194.628906 0)"/>
     <use xlink:href="#Arial-ItalicMT-20" transform="translate(250.244141 0)"/>
     <use xlink:href="#Arial-ItalicMT-63" transform="translate(278.027344 0)"/>
     <use xlink:href="#Arial-ItalicMT-69" transform="translate(328.027344 0)"/>
     <use xlink:href="#Arial-ItalicMT-74" transform="translate(350.244141 0)"/>
     <use xlink:href="#Arial-ItalicMT-69" transform="translate(378.027344 0)"/>
     <use xlink:href="#Arial-ItalicMT-65" transform="translate(400.244141 0)"/>
     <use xlink:href="#Arial-ItalicMT-73" transform="translate(455.859375 0)"/>
     <use xlink:href="#Arial-ItalicMT-20" transform="translate(505.859375 0)"/>
     <use xlink:href="#Arial-ItalicMT-63" transform="translate(533.642578 0)"/>
     <use xlink:href="#Arial-ItalicMT-68" transform="translate(583.642578 0)"/>
     <use xlink:href="#Arial-ItalicMT-61" transform="translate(639.257812 0)"/>
     <use xlink:href="#Arial-ItalicMT-6e" transform="translate(694.873047 0)"/>
     <use xlink:href="#Arial-ItalicMT-67" transform="translate(750.488281 0)"/>
     <use xlink:href="#Arial-ItalicMT-65" transform="translate(806.103516 0)"/>
     <use xlink:href="#Arial-ItalicMT-20" transform="translate(861.71875 0)"/>
     <use xlink:href="#Arial-ItalicMT-72" transform="translate(889.501953 0)"/>
     <use xlink:href="#Arial-ItalicMT-61" transform="translate(922.802734 0)"/>
     <use xlink:href="#Arial-ItalicMT-6e" transform="translate(978.417969 0)"/>
     <use xlink:href="#Arial-ItalicMT-6b" transform="translate(1034.033203 0)"/>
    </g>
   </g>
  </g>
  <g id="text_20">
   <!-- Fig. S12 | CNMI ablation as exploratory stress-test -->
   <g transform="translate(33.691719 12.335625) scale(0.12 -0.12)">
    <defs>
     <path id="Arial-BoldMT-46" d="M 472 0 
L 472 4581 
L 3613 4581 
L 3613 3806 
L 1397 3806 
L 1397 2722 
L 3309 2722 
L 3309 1947 
L 1397 1947 
L 1397 0 
L 472 0 
z
" transform="scale(0.015625)"/>
     <path id="Arial-BoldMT-2e" d="M 459 0 
L 459 878 
L 1338 878 
L 1338 0 
L 459 0 
z
" transform="scale(0.015625)"/>
     <path id="Arial-BoldMT-31" d="M 2519 0 
L 1641 0 
L 1641 3309 
Q 1159 2859 506 2644 
L 506 3441 
Q 850 3553 1253 3867 
Q 1656 4181 1806 4600 
L 2519 4600 
L 2519 0 
z
" transform="scale(0.015625)"/>
     <path id="Arial-BoldMT-32" d="M 3238 816 
L 3238 0 
L 159 0 
Q 209 463 459 877 
Q 709 1291 1447 1975 
Q 2041 2528 2175 2725 
Q 2356 2997 2356 3263 
Q 2356 3556 2198 3714 
Q 2041 3872 1763 3872 
Q 1488 3872 1325 3706 
Q 1163 3541 1138 3156 
L 263 3244 
Q 341 3969 753 4284 
Q 1166 4600 1784 4600 
Q 2463 4600 2850 4234 
Q 3238 3869 3238 3325 
Q 3238 3016 3127 2736 
Q 3016 2456 2775 2150 
Q 2616 1947 2200 1565 
Q 1784 1184 1673 1059 
Q 1563 934 1494 816 
L 3238 816 
z
" transform="scale(0.015625)"/>
     <path id="Arial-BoldMT-7c" d="M 550 -1347 
L 550 4659 
L 1247 4659 
L 1247 -1347 
L 550 -1347 
z
" transform="scale(0.015625)"/>
     <path id="Arial-BoldMT-43" d="M 3397 1684 
L 4294 1400 
Q 4088 650 3608 286 
Q 3128 -78 2391 -78 
Q 1478 -78 890 545 
Q 303 1169 303 2250 
Q 303 3394 893 4026 
Q 1484 4659 2447 4659 
Q 3288 4659 3813 4163 
Q 4125 3869 4281 3319 
L 3366 3100 
Q 3284 3456 3026 3662 
Q 2769 3869 2400 3869 
Q 1891 3869 1573 3503 
Q 1256 3138 1256 2319 
Q 1256 1450 1568 1081 
Q 1881 713 2381 713 
Q 2750 713 3015 947 
Q 3281 1181 3397 1684 
z
" transform="scale(0.015625)"/>
     <path id="Arial-BoldMT-4e" d="M 475 0 
L 475 4581 
L 1375 4581 
L 3250 1522 
L 3250 4581 
L 4109 4581 
L 4109 0 
L 3181 0 
L 1334 2988 
L 1334 0 
L 475 0 
z
" transform="scale(0.015625)"/>
     <path id="Arial-BoldMT-4d" d="M 453 0 
L 453 4581 
L 1838 4581 
L 2669 1456 
L 3491 4581 
L 4878 4581 
L 4878 0 
L 4019 0 
L 4019 3606 
L 3109 0 
L 2219 0 
L 1313 3606 
L 1313 0 
L 453 0 
z
" transform="scale(0.015625)"/>
     <path id="Arial-BoldMT-78" d="M 38 0 
L 1234 1709 
L 88 3319 
L 1159 3319 
L 1747 2406 
L 2366 3319 
L 3397 3319 
L 2272 1747 
L 3500 0 
L 2422 0 
L 1747 1028 
L 1066 0 
L 38 0 
z
" transform="scale(0.015625)"/>
     <path id="Arial-BoldMT-70" d="M 434 3319 
L 1253 3319 
L 1253 2831 
Q 1413 3081 1684 3237 
Q 1956 3394 2288 3394 
Q 2866 3394 3269 2941 
Q 3672 2488 3672 1678 
Q 3672 847 3265 386 
Q 2859 -75 2281 -75 
Q 2006 -75 1782 34 
Q 1559 144 1313 409 
L 1313 -1263 
L 434 -1263 
L 434 3319 
z
M 1303 1716 
Q 1303 1156 1525 889 
Q 1747 622 2066 622 
Q 2372 622 2575 867 
Q 2778 1113 2778 1672 
Q 2778 2194 2568 2447 
Q 2359 2700 2050 2700 
Q 1728 2700 1515 2451 
Q 1303 2203 1303 1716 
z
" transform="scale(0.015625)"/>
     <path id="Arial-BoldMT-2d" d="M 359 1222 
L 359 2100 
L 2084 2100 
L 2084 1222 
L 359 1222 
z
" transform="scale(0.015625)"/>
    </defs>
    <use xlink:href="#Arial-BoldMT-46"/>
    <use xlink:href="#Arial-BoldMT-69" transform="translate(61.083984 0)"/>
    <use xlink:href="#Arial-BoldMT-67" transform="translate(88.867188 0)"/>
    <use xlink:href="#Arial-BoldMT-2e" transform="translate(149.951172 0)"/>
    <use xlink:href="#Arial-BoldMT-20" transform="translate(177.734375 0)"/>
    <use xlink:href="#Arial-BoldMT-53" transform="translate(205.517578 0)"/>
    <use xlink:href="#Arial-BoldMT-31" transform="translate(272.216797 0)"/>
    <use xlink:href="#Arial-BoldMT-32" transform="translate(327.832031 0)"/>
    <use xlink:href="#Arial-BoldMT-20" transform="translate(383.447266 0)"/>
    <use xlink:href="#Arial-BoldMT-7c" transform="translate(411.230469 0)"/>
    <use xlink:href="#Arial-BoldMT-20" transform="translate(439.208984 0)"/>
    <use xlink:href="#Arial-BoldMT-43" transform="translate(466.992188 0)"/>
    <use xlink:href="#Arial-BoldMT-4e" transform="translate(539.208984 0)"/>
    <use xlink:href="#Arial-BoldMT-4d" transform="translate(611.425781 0)"/>
    <use xlink:href="#Arial-BoldMT-49" transform="translate(694.726562 0)"/>
    <use xlink:href="#Arial-BoldMT-20" transform="translate(722.509766 0)"/>
    <use xlink:href="#Arial-BoldMT-61" transform="translate(750.292969 0)"/>
    <use xlink:href="#Arial-BoldMT-62" transform="translate(805.908203 0)"/>
    <use xlink:href="#Arial-BoldMT-6c" transform="translate(866.992188 0)"/>
    <use xlink:href="#Arial-BoldMT-61" transform="translate(894.775391 0)"/>
    <use xlink:href="#Arial-BoldMT-74" transform="translate(950.390625 0)"/>
    <use xlink:href="#Arial-BoldMT-69" transform="translate(983.691406 0)"/>
    <use xlink:href="#Arial-BoldMT-6f" transform="translate(1011.474609 0)"/>
    <use xlink:href="#Arial-BoldMT-6e" transform="translate(1072.558594 0)"/>
    <use xlink:href="#Arial-BoldMT-20" transform="translate(1133.642578 0)"/>
    <use xlink:href="#Arial-BoldMT-61" transform="translate(1161.425781 0)"/>
    <use xlink:href="#Arial-BoldMT-73" transform="translate(1217.041016 0)"/>
    <use xlink:href="#Arial-BoldMT-20" transform="translate(1272.65625 0)"/>
    <use xlink:href="#Arial-BoldMT-65" transform="translate(1300.439453 0)"/>
    <use xlink:href="#Arial-BoldMT-78" transform="translate(1356.054688 0)"/>
    <use xlink:href="#Arial-BoldMT-70" transform="translate(1411.669922 0)"/>
    <use xlink:href="#Arial-BoldMT-6c" transform="translate(1472.753906 0)"/>
    <use xlink:href="#Arial-BoldMT-6f" transform="translate(1500.537109 0)"/>
    <use xlink:href="#Arial-BoldMT-72" transform="translate(1561.621094 0)"/>
    <use xlink:href="#Arial-BoldMT-61" transform="translate(1600.537109 0)"/>
    <use xlink:href="#Arial-BoldMT-74" transform="translate(1656.152344 0)"/>
    <use xlink:href="#Arial-BoldMT-6f" transform="translate(1689.453125 0)"/>
    <use xlink:href="#Arial-BoldMT-72" transform="translate(1750.537109 0)"/>
    <use xlink:href="#Arial-BoldMT-79" transform="translate(1789.453125 0)"/>
    <use xlink:href="#Arial-BoldMT-20" transform="translate(1845.068359 0)"/>
    <use xlink:href="#Arial-BoldMT-73" transform="translate(1872.851562 0)"/>
    <use xlink:href="#Arial-BoldMT-74" transform="translate(1928.466797 0)"/>
    <use xlink:href="#Arial-BoldMT-72" transform="translate(1961.767578 0)"/>
    <use xlink:href="#Arial-BoldMT-65" transform="translate(2000.683594 0)"/>
    <use xlink:href="#Arial-BoldMT-73" transform="translate(2056.298828 0)"/>
    <use xlink:href="#Arial-BoldMT-73" transform="translate(2111.914062 0)"/>
    <use xlink:href="#Arial-BoldMT-2d" transform="translate(2167.529297 0)"/>
    <use xlink:href="#Arial-BoldMT-74" transform="translate(2200.830078 0)"/>
    <use xlink:href="#Arial-BoldMT-65" transform="translate(2234.130859 0)"/>
    <use xlink:href="#Arial-BoldMT-73" transform="translate(2289.746094 0)"/>
    <use xlink:href="#Arial-BoldMT-74" transform="translate(2345.361328 0)"/>
   </g>
  </g>
 </g>
 <defs>
  <clipPath id="p0d34f33ce0">
   <rect x="33.691719" y="31.68" width="492.48" height="351"/>
  </clipPath>
 </defs>
</svg>
