<?xml version="1.0" encoding="utf-8" standalone="no"?>
<!DOCTYPE svg PUBLIC "-//W3C//DTD SVG 1.1//EN"
  "http://www.w3.org/Graphics/SVG/1.1/DTD/svg11.dtd">
<svg xmlns:xlink="http://www.w3.org/1999/xlink" width="572.422447pt" height="377.752419pt" viewBox="0 0 572.422447 377.752419" xmlns="http://www.w3.org/2000/svg" version="1.1">
 <metadata>
  <rdf:RDF xmlns:dc="http://purl.org/dc/elements/1.1/" xmlns:cc="http://creativecommons.org/ns#" xmlns:rdf="http://www.w3.org/1999/02/22-rdf-syntax-ns#">
   <cc:Work>
    <dc:type rdf:resource="http://purl.org/dc/dcmitype/StillImage"/>
    <dc:date>2026-06-04T19:22:04.050327</dc:date>
    <dc:format>image/svg+xml</dc:format>
    <dc:creator>
     <cc:Agent>
      <dc:title>Matplotlib v3.10.9, https://matplotlib.org/</dc:title>
     </cc:Agent>
    </dc:creator>
   </cc:Work>
  </rdf:RDF>
 </metadata>
 <defs>
  <style type="text/css">*{stroke-linejoin: round; stroke-linecap: butt}</style>
 </defs>
 <g id="figure_1">
  <g id="patch_1">
   <path d="M 0 377.752419
L 572.422447 377.752419
L 572.422447 0
L 0 0
z
" style="fill: #fbfaf7"/>
  </g>
  <g id="axes_1">
   <g id="patch_2">
    <path d="M 58.68 349.2432
L 560.88 349.2432
L 560.88 49.8672
L 58.68 49.8672
z
" style="fill: #ffffff"/>
   </g>
   <g id="line2d_1">
    <path d="M 70.212727 335.6352
L 501.927315 335.6352
" clip-path="url(#p30fa2b5108)" style="fill: none; stroke: #d6d3d1; stroke-width: 2; stroke-linecap: square"/>
   </g>
   <g id="line2d_2">
    <path d="M 146.986818 290.2752
L 501.907035 290.2752
" clip-path="url(#p30fa2b5108)" style="fill: none; stroke: #d6d3d1; stroke-width: 2; stroke-linecap: square"/>
   </g>
   <g id="line2d_3">
    <path d="M 151.435839 244.9152
L 501.886747 244.9152
" clip-path="url(#p30fa2b5108)" style="fill: none; stroke: #d6d3d1; stroke-width: 2; stroke-linecap: square"/>
   </g>
   <g id="line2d_4">
    <path d="M 231.862616 199.5552
L 501.947587 199.5552
" clip-path="url(#p30fa2b5108)" style="fill: none; stroke: #d6d3d1; stroke-width: 2; stroke-linecap: square"/>
   </g>
   <g id="line2d_5">
    <path d="M 239.291237 154.1952
L 501.947587 154.1952
" clip-path="url(#p30fa2b5108)" style="fill: none; stroke: #d6d3d1; stroke-width: 2; stroke-linecap: square"/>
   </g>
   <g id="line2d_6">
    <path d="M 247.860177 108.8352
L 501.907035 108.8352
" clip-path="url(#p30fa2b5108)" style="fill: none; stroke: #d6d3d1; stroke-width: 2; stroke-linecap: square"/>
   </g>
   <g id="line2d_7">
    <path d="M 326.749291 63.4752
L 501.96785 63.4752
" clip-path="url(#p30fa2b5108)" style="fill: none; stroke: #d6d3d1; stroke-width: 2; stroke-linecap: square"/>
   </g>
   <g id="matplotlib.axis_1">
    <g id="xtick_1">
     <g id="line2d_8">
      <path d="M 65.15906 349.2432
L 65.15906 49.8672
" clip-path="url(#p30fa2b5108)" style="fill: none; stroke: #d6d3d1; stroke-opacity: 0.6; stroke-width: 0.5; stroke-linecap: square"/>
     </g>
     <g id="line2d_9">
      <defs>
       <path id="m3584b04d38" d="M 0 0
L 0 3.5
" style="stroke: #000000; stroke-width: 0.8"/>
      </defs>
      <g>
       <use xlink:href="#m3584b04d38" x="65.15906" y="349.2432" style="stroke: #000000; stroke-width: 0.8"/>
      </g>
     </g>
     <g id="text_1">
      <text style="font-size: 7px; font-family: 'Arial', 'DejaVu Sans', sans-serif; text-anchor: middle" x="65.15906" y="361.253669" transform="rotate(-0 65.15906 361.253669)">0.01</text>
     </g>
    </g>
    <g id="xtick_2">
     <g id="line2d_10">
      <path d="M 152.098591 349.2432
L 152.098591 49.8672
" clip-path="url(#p30fa2b5108)" style="fill: none; stroke: #d6d3d1; stroke-opacity: 0.6; stroke-width: 0.5; stroke-linecap: square"/>
     </g>
     <g id="line2d_11">
      <g>
       <use xlink:href="#m3584b04d38" x="152.098591" y="349.2432" style="stroke: #000000; stroke-width: 0.8"/>
      </g>
     </g>
     <g id="text_2">
      <text style="font-size: 7px; font-family: 'Arial', 'DejaVu Sans', sans-serif; text-anchor: middle" x="152.098591" y="361.253669" transform="rotate(-0 152.098591 361.253669)">0.1</text>
     </g>
    </g>
    <g id="xtick_3">
     <g id="line2d_12">
      <path d="M 268.721677 349.2432
L 268.721677 49.8672
" clip-path="url(#p30fa2b5108)" style="fill: none; stroke: #d6d3d1; stroke-opacity: 0.6; stroke-width: 0.5; stroke-linecap: square"/>
     </g>
     <g id="line2d_13">
      <g>
       <use xlink:href="#m3584b04d38" x="268.721677" y="349.2432" style="stroke: #000000; stroke-width: 0.8"/>
      </g>
     </g>
     <g id="text_3">
      <text style="font-size: 7px; font-family: 'Arial', 'DejaVu Sans', sans-serif; text-anchor: middle" x="268.721677" y="361.253669" transform="rotate(-0 268.721677 361.253669)">1</text>
     </g>
    </g>
    <g id="xtick_4">
     <g id="line2d_14">
      <path d="M 385.344764 349.2432
L 385.344764 49.8672
" clip-path="url(#p30fa2b5108)" style="fill: none; stroke: #d6d3d1; stroke-opacity: 0.6; stroke-width: 0.5; stroke-linecap: square"/>
     </g>
     <g id="line2d_15">
      <g>
       <use xlink:href="#m3584b04d38" x="385.344764" y="349.2432" style="stroke: #000000; stroke-width: 0.8"/>
      </g>
     </g>
     <g id="text_4">
      <text style="font-size: 7px; font-family: 'Arial', 'DejaVu Sans', sans-serif; text-anchor: middle" x="385.344764" y="361.253669" transform="rotate(-0 385.344764 361.253669)">10</text>
     </g>
    </g>
    <g id="xtick_5">
     <g id="line2d_16">
      <path d="M 501.96785 349.2432
L 501.96785 49.8672
" clip-path="url(#p30fa2b5108)" style="fill: none; stroke: #d6d3d1; stroke-opacity: 0.6; stroke-width: 0.5; stroke-linecap: square"/>
     </g>
     <g id="line2d_17">
      <g>
       <use xlink:href="#m3584b04d38" x="501.96785" y="349.2432" style="stroke: #000000; stroke-width: 0.8"/>
      </g>
     </g>
     <g id="text_5">
      <text style="font-size: 7px; font-family: 'Arial', 'DejaVu Sans', sans-serif; text-anchor: middle" x="501.96785" y="361.253669" transform="rotate(-0 501.96785 361.253669)">100</text>
     </g>
    </g>
    <g id="text_6">
     <text style="font-size: 8px; font-family: 'Arial', 'DejaVu Sans', sans-serif; text-anchor: middle" x="309.78" y="372.468669" transform="rotate(-0 309.78 372.468669)">Height availability / coverage (%; symlog)</text>
    </g>
   </g>
   <g id="matplotlib.axis_2">
    <g id="ytick_1">
     <g id="line2d_18">
      <defs>
       <path id="ma564c9a9a9" d="M 0 0
L -3.5 0
" style="stroke: #000000; stroke-width: 0.8"/>
      </defs>
      <g>
       <use xlink:href="#ma564c9a9a9" x="58.68" y="335.6352" style="stroke: #000000; stroke-width: 0.8"/>
      </g>
     </g>
     <g id="text_7">
      <text style="font-size: 7px; font-family: 'Arial', 'DejaVu Sans', sans-serif; text-anchor: end" x="51.68" y="338.140434" transform="rotate(-0 51.68 338.140434)">Jaipur</text>
     </g>
    </g>
    <g id="ytick_2">
     <g id="line2d_19">
      <g>
       <use xlink:href="#ma564c9a9a9" x="58.68" y="290.2752" style="stroke: #000000; stroke-width: 0.8"/>
      </g>
     </g>
     <g id="text_8">
      <text style="font-size: 7px; font-family: 'Arial', 'DejaVu Sans', sans-serif; text-anchor: end" x="51.68" y="292.780434" transform="rotate(-0 51.68 292.780434)">Mumbai</text>
     </g>
    </g>
    <g id="ytick_3">
     <g id="line2d_20">
      <g>
       <use xlink:href="#ma564c9a9a9" x="58.68" y="244.9152" style="stroke: #000000; stroke-width: 0.8"/>
      </g>
     </g>
     <g id="text_9">
      <text style="font-size: 7px; font-family: 'Arial', 'DejaVu Sans', sans-serif; text-anchor: end" x="51.68" y="247.420434" transform="rotate(-0 51.68 247.420434)">Delhi</text>
     </g>
    </g>
    <g id="ytick_4">
     <g id="line2d_21">
      <g>
       <use xlink:href="#ma564c9a9a9" x="58.68" y="199.5552" style="stroke: #000000; stroke-width: 0.8"/>
      </g>
     </g>
     <g id="text_10">
      <text style="font-size: 7px; font-family: 'Arial', 'DejaVu Sans', sans-serif; text-anchor: end" x="51.68" y="202.060434" transform="rotate(-0 51.68 202.060434)">Istanbul</text>
     </g>
    </g>
    <g id="ytick_5">
     <g id="line2d_22">
      <g>
       <use xlink:href="#ma564c9a9a9" x="58.68" y="154.1952" style="stroke: #000000; stroke-width: 0.8"/>
      </g>
     </g>
     <g id="text_11">
      <text style="font-size: 7px; font-family: 'Arial', 'DejaVu Sans', sans-serif; text-anchor: end" x="51.68" y="156.700434" transform="rotate(-0 51.68 156.700434)">Tehran</text>
     </g>
    </g>
    <g id="ytick_6">
     <g id="line2d_23">
      <g>
       <use xlink:href="#ma564c9a9a9" x="58.68" y="108.8352" style="stroke: #000000; stroke-width: 0.8"/>
      </g>
     </g>
     <g id="text_12">
      <text style="font-size: 7px; font-family: 'Arial', 'DejaVu Sans', sans-serif; text-anchor: end" x="51.68" y="111.340434" transform="rotate(-0 51.68 111.340434)">Marrakech</text>
     </g>
    </g>
    <g id="ytick_7">
     <g id="line2d_24">
      <g>
       <use xlink:href="#ma564c9a9a9" x="58.68" y="63.4752" style="stroke: #000000; stroke-width: 0.8"/>
      </g>
     </g>
     <g id="text_13">
      <text style="font-size: 7px; font-family: 'Arial', 'DejaVu Sans', sans-serif; text-anchor: end" x="51.68" y="65.980434" transform="rotate(-0 51.68 65.980434)">Paris</text>
     </g>
    </g>
   </g>
   <g id="patch_3">
    <path d="M 58.68 349.2432
L 58.68 49.8672
" style="fill: none; stroke: #d6d3d1; stroke-width: 0.8; stroke-linejoin: miter; stroke-linecap: square"/>
   </g>
   <g id="patch_4">
    <path d="M 58.68 349.2432
L 560.88 349.2432
" style="fill: none; stroke: #d6d3d1; stroke-width: 0.8; stroke-linejoin: miter; stroke-linecap: square"/>
   </g>
   <g id="PathCollection_1">
    <defs>
     <path id="m7bc993e0d4" d="M 0 4.1833
C 1.109424 4.1833 2.173559 3.742521 2.95804 2.95804
C 3.742521 2.173559 4.1833 1.109424 4.1833 0
C 4.1833 -1.109424 3.742521 -2.173559 2.95804 -2.95804
C 2.173559 -3.742521 1.109424 -4.1833 0 -4.1833
C -1.109424 -4.1833 -2.173559 -3.742521 -2.95804 -2.95804
C -3.742521 -2.173559 -4.1833 -1.109424 -4.1833 0
C -4.1833 1.109424 -3.742521 2.173559 -2.95804 2.95804
C -2.173559 3.742521 -1.109424 4.1833 0 4.1833
z
" style="stroke: #ffffff; stroke-width: 0.8"/>
    </defs>
    <g clip-path="url(#p30fa2b5108)">
     <use xlink:href="#m7bc993e0d4" x="70.212727" y="335.6352" style="fill: #b23a48; stroke: #ffffff; stroke-width: 0.8"/>
    </g>
   </g>
   <g id="PathCollection_2">
    <defs>
     <path id="mbdf921c77c" d="M 0 4.1833
C 1.109424 4.1833 2.173559 3.742521 2.95804 2.95804
C 3.742521 2.173559 4.1833 1.109424 4.1833 0
C 4.1833 -1.109424 3.742521 -2.173559 2.95804 -2.95804
C 2.173559 -3.742521 1.109424 -4.1833 0 -4.1833
C -1.109424 -4.1833 -2.173559 -3.742521 -2.95804 -2.95804
C -3.742521 -2.173559 -4.1833 -1.109424 -4.1833 0
C -4.1833 1.109424 -3.742521 2.173559 -2.95804 2.95804
C -2.173559 3.742521 -1.109424 4.1833 0 4.1833
z
" style="stroke: #ffffff; stroke-width: 0.8"/>
    </defs>
    <g clip-path="url(#p30fa2b5108)">
     <use xlink:href="#mbdf921c77c" x="501.927315" y="335.6352" style="fill: #2f5d7c; stroke: #ffffff; stroke-width: 0.8"/>
    </g>
   </g>
   <g id="text_14">
    <text style="font-size: 6.6px; font-family: 'Arial', 'DejaVu Sans', sans-serif; text-anchor: start; fill: #6b7280" x="502.471822" y="337.383684" transform="rotate(-0 502.471822 337.383684)">EO AGBH p50 ≈ 6.0 m</text>
   </g>
   <g id="PathCollection_3">
    <g clip-path="url(#p30fa2b5108)">
     <use xlink:href="#m7bc993e0d4" x="146.986818" y="290.2752" style="fill: #b23a48; stroke: #ffffff; stroke-width: 0.8"/>
    </g>
   </g>
   <g id="PathCollection_4">
    <g clip-path="url(#p30fa2b5108)">
     <use xlink:href="#mbdf921c77c" x="501.907035" y="290.2752" style="fill: #2f5d7c; stroke: #ffffff; stroke-width: 0.8"/>
    </g>
   </g>
   <g id="text_15">
    <text style="font-size: 6.6px; font-family: 'Arial', 'DejaVu Sans', sans-serif; text-anchor: start; fill: #6b7280" x="502.471822" y="292.023684" transform="rotate(-0 502.471822 292.023684)">EO AGBH p50 ≈ 6.2 m</text>
   </g>
   <g id="PathCollection_5">
    <g clip-path="url(#p30fa2b5108)">
     <use xlink:href="#m7bc993e0d4" x="151.435839" y="244.9152" style="fill: #b23a48; stroke: #ffffff; stroke-width: 0.8"/>
    </g>
   </g>
   <g id="PathCollection_6">
    <g clip-path="url(#p30fa2b5108)">
     <use xlink:href="#mbdf921c77c" x="501.886747" y="244.9152" style="fill: #2f5d7c; stroke: #ffffff; stroke-width: 0.8"/>
    </g>
   </g>
   <g id="text_16">
    <text style="font-size: 6.6px; font-family: 'Arial', 'DejaVu Sans', sans-serif; text-anchor: start; fill: #6b7280" x="502.471822" y="246.663684" transform="rotate(-0 502.471822 246.663684)">EO AGBH p50 ≈ 5.4 m</text>
   </g>
   <g id="PathCollection_7">
    <g clip-path="url(#p30fa2b5108)">
     <use xlink:href="#m7bc993e0d4" x="231.862616" y="199.5552" style="fill: #b23a48; stroke: #ffffff; stroke-width: 0.8"/>
    </g>
   </g>
   <g id="PathCollection_8">
    <g clip-path="url(#p30fa2b5108)">
     <use xlink:href="#mbdf921c77c" x="501.947587" y="199.5552" style="fill: #2f5d7c; stroke: #ffffff; stroke-width: 0.8"/>
    </g>
   </g>
   <g id="text_17">
    <text style="font-size: 6.6px; font-family: 'Arial', 'DejaVu Sans', sans-serif; text-anchor: start; fill: #6b7280" x="502.471822" y="201.303684" transform="rotate(-0 502.471822 201.303684)">EO AGBH p50 ≈ 5.8 m</text>
   </g>
   <g id="PathCollection_9">
    <g clip-path="url(#p30fa2b5108)">
     <use xlink:href="#m7bc993e0d4" x="239.291237" y="154.1952" style="fill: #b23a48; stroke: #ffffff; stroke-width: 0.8"/>
    </g>
   </g>
   <g id="PathCollection_10">
    <g clip-path="url(#p30fa2b5108)">
     <use xlink:href="#mbdf921c77c" x="501.947587" y="154.1952" style="fill: #2f5d7c; stroke: #ffffff; stroke-width: 0.8"/>
    </g>
   </g>
   <g id="text_18">
    <text style="font-size: 6.6px; font-family: 'Arial', 'DejaVu Sans', sans-serif; text-anchor: start; fill: #6b7280" x="502.471822" y="155.943684" transform="rotate(-0 502.471822 155.943684)">EO AGBH p50 ≈ 6.2 m</text>
   </g>
   <g id="PathCollection_11">
    <g clip-path="url(#p30fa2b5108)">
     <use xlink:href="#m7bc993e0d4" x="247.860177" y="108.8352" style="fill: #b23a48; stroke: #ffffff; stroke-width: 0.8"/>
    </g>
   </g>
   <g id="PathCollection_12">
    <g clip-path="url(#p30fa2b5108)">
     <use xlink:href="#mbdf921c77c" x="501.907035" y="108.8352" style="fill: #2f5d7c; stroke: #ffffff; stroke-width: 0.8"/>
    </g>
   </g>
   <g id="text_19">
    <text style="font-size: 6.6px; font-family: 'Arial', 'DejaVu Sans', sans-serif; text-anchor: start; fill: #6b7280" x="502.471822" y="110.583684" transform="rotate(-0 502.471822 110.583684)">EO AGBH p50 ≈ 3.5 m</text>
   </g>
   <g id="PathCollection_13">
    <g clip-path="url(#p30fa2b5108)">
     <use xlink:href="#m7bc993e0d4" x="326.749291" y="63.4752" style="fill: #b23a48; stroke: #ffffff; stroke-width: 0.8"/>
    </g>
   </g>
   <g id="PathCollection_14">
    <g clip-path="url(#p30fa2b5108)">
     <use xlink:href="#mbdf921c77c" x="501.96785" y="63.4752" style="fill: #2f5d7c; stroke: #ffffff; stroke-width: 0.8"/>
    </g>
   </g>
   <g id="text_20">
    <text style="font-size: 6.6px; font-family: 'Arial', 'DejaVu Sans', sans-serif; text-anchor: start; fill: #6b7280" x="502.471822" y="65.223684" transform="rotate(-0 502.471822 65.223684)">EO AGBH p50 ≈ 9.0 m</text>
   </g>
   <g id="text_21">
    <text style="font-weight: 700; font-size: 10px; font-family: 'Arial', 'DejaVu Sans', sans-serif; text-anchor: start" x="58.68" y="43.8672" transform="rotate(-0 58.68 43.8672)">EO height restores coverage but not resolution</text>
   </g>
   <g id="legend_1">
    <g id="line2d_25">
     <path d="M 393.532875 330.106294
L 400.132875 330.106294
L 406.732875 330.106294
" style="fill: none; stroke: #ffffff; stroke-width: 1.5; stroke-linecap: square"/>
     <defs>
      <path id="mf7ea8103f6" d="M 0 4
C 1.060812 4 2.078319 3.578535 2.828427 2.828427
C 3.578535 2.078319 4 1.060812 4 0
C 4 -1.060812 3.578535 -2.078319 2.828427 -2.828427
C 2.078319 -3.578535 1.060812 -4 0 -4
C -1.060812 -4 -2.078319 -3.578535 -2.828427 -2.828427
C -3.578535 -2.078319 -4 -1.060812 -4 0
C -4 1.060812 -3.578535 2.078319 -2.828427 2.828427
C -2.078319 3.578535 -1.060812 4 0 4
z
" style="stroke: #ffffff"/>
     </defs>
     <g>
      <use xlink:href="#mf7ea8103f6" x="400.132875" y="330.106294" style="fill: #b23a48; stroke: #ffffff"/>
     </g>
    </g>
    <g id="text_22">
     <text style="font-size: 6.6px; font-family: 'Arial', 'DejaVu Sans', sans-serif; text-anchor: start" x="412.012875" y="332.416294" transform="rotate(-0 412.012875 332.416294)">native Overture per-building height</text>
    </g>
    <g id="line2d_26">
     <path d="M 393.532875 339.604106
L 400.132875 339.604106
L 406.732875 339.604106
" style="fill: none; stroke: #ffffff; stroke-width: 1.5; stroke-linecap: square"/>
     <defs>
      <path id="m4485f798e4" d="M 0 4
C 1.060812 4 2.078319 3.578535 2.828427 2.828427
C 3.578535 2.078319 4 1.060812 4 0
C 4 -1.060812 3.578535 -2.078319 2.828427 -2.828427
C 2.078319 -3.578535 1.060812 -4 0 -4
C -1.060812 -4 -2.078319 -3.578535 -2.828427 -2.828427
C -3.578535 -2.078319 -4 -1.060812 -4 0
C -4 1.060812 -3.578535 2.078319 -2.828427 2.828427
C -2.078319 3.578535 -1.060812 4 0 4
z
" style="stroke: #ffffff"/>
     </defs>
     <g>
      <use xlink:href="#m4485f798e4" x="400.132875" y="339.604106" style="fill: #2f5d7c; stroke: #ffffff"/>
     </g>
    </g>
    <g id="text_23">
     <text style="font-size: 6.6px; font-family: 'Arial', 'DejaVu Sans', sans-serif; text-anchor: start" x="412.012875" y="341.914106" transform="rotate(-0 412.012875 341.914106)">GHS-BUILT-H EO areal-height coverage (100 m)</text>
    </g>
   </g>
  </g>
  <g id="text_24">
   <text style="font-weight: 700; font-size: 12.5px; font-family: 'Arial', 'DejaVu Sans', sans-serif; text-anchor: start" x="3.6" y="12.699609" transform="rotate(-0 3.6 12.699609)">Fig. S3 | An EO height layer substitutes coverage for per-building resolution</text>
  </g>
 </g>
 <defs>
  <clipPath id="p30fa2b5108">
   <rect x="58.68" y="49.8672" width="502.2" height="299.376"/>
  </clipPath>
 </defs>
</svg>
